<svg width="192" height="163" viewBox="0 0 192 163" fill="none" xmlns="http://www.w3.org/2000/svg">
<g id="at-work/bro">
<g id="Plants--inject-1">
<path id="Vector" d="M176.584 134.894C176.544 134.894 177.179 132.123 177.237 131.952C177.931 129.983 180.436 126.581 182.775 126.644C183.163 126.665 183.543 126.768 183.89 126.945C184.236 127.123 184.541 127.372 184.785 127.675C185.029 127.979 185.205 128.331 185.304 128.707C185.402 129.084 185.42 129.477 185.356 129.861C185.144 131.497 183.635 132.862 182.279 133.637C180.684 134.547 176.589 134.894 176.584 134.894Z" fill="#263238"/>
<path id="Vector_2" d="M176.845 123.621C176.805 123.621 177.85 120.972 177.936 120.814C178.922 118.967 181.909 115.985 184.212 116.404C184.592 116.483 184.952 116.642 185.268 116.87C185.583 117.098 185.847 117.39 186.042 117.726C186.237 118.063 186.359 118.437 186.4 118.824C186.441 119.211 186.4 119.602 186.28 119.972C185.829 121.562 184.122 122.675 182.675 123.238C180.95 123.901 176.85 123.621 176.845 123.621Z" fill="#263238"/>
<path id="Vector_3" d="M179.783 111.092C179.738 111.092 180.783 108.443 180.869 108.285C181.855 106.442 184.847 103.46 187.149 103.874C187.53 103.954 187.89 104.114 188.205 104.342C188.52 104.571 188.784 104.863 188.979 105.2C189.173 105.537 189.295 105.911 189.335 106.298C189.375 106.686 189.334 107.077 189.213 107.447C188.762 109.033 187.055 110.15 185.608 110.713C183.887 111.371 179.783 111.092 179.783 111.092Z" fill="#263238"/>
<path id="Vector_4" d="M181.977 99.1435C181.932 99.1435 182.977 96.4944 183.063 96.3322C184.049 94.4895 187.041 91.5069 189.343 91.9259C189.724 92.0055 190.084 92.1645 190.399 92.3924C190.715 92.6203 190.978 92.9121 191.173 93.2487C191.368 93.5853 191.49 93.9592 191.531 94.3461C191.572 94.733 191.531 95.1241 191.411 95.4942C190.961 97.0846 189.249 98.1974 187.807 98.7606C186.081 99.4184 181.977 99.1435 181.977 99.1435Z" fill="#263238"/>
<path id="Vector_5" d="M181.044 88.7586C180.999 88.7586 181.31 85.9382 181.351 85.7625C181.801 83.7216 183.91 80.0542 186.244 79.8515C186.632 79.8283 187.021 79.887 187.384 80.0239C187.748 80.1608 188.079 80.3728 188.356 80.646C188.633 80.9193 188.849 81.2477 188.99 81.6099C189.132 81.9721 189.195 82.36 189.177 82.7484C189.177 84.4019 187.825 85.9292 186.555 86.8528C185.077 87.9251 181.044 88.7586 181.044 88.7586Z" fill="#263238"/>
<path id="Vector_6" d="M175.449 134.587C175.489 134.587 175.039 131.785 174.998 131.614C174.435 129.6 172.16 126.041 169.822 125.951C169.432 125.946 169.046 126.024 168.689 126.179C168.332 126.333 168.011 126.562 167.748 126.848C167.485 127.135 167.285 127.475 167.162 127.844C167.039 128.213 166.995 128.604 167.033 128.992C167.136 130.641 168.556 132.1 169.858 132.961C171.38 133.975 175.444 134.587 175.449 134.587Z" fill="#263238"/>
<path id="Vector_7" d="M176.683 122.053C176.728 122.053 175.854 119.35 175.782 119.179C174.917 117.273 172.128 114.101 169.803 114.367C169.418 114.422 169.049 114.558 168.72 114.765C168.39 114.972 168.108 115.246 167.892 115.57C167.675 115.893 167.53 116.259 167.464 116.642C167.398 117.026 167.414 117.419 167.51 117.796C167.862 119.409 169.488 120.639 170.903 121.292C172.57 122.062 176.679 122.053 176.683 122.053Z" fill="#263238"/>
<path id="Vector_8" d="M179.477 110.24C179.517 110.24 178.648 107.537 178.576 107.37C177.715 105.465 174.926 102.293 172.601 102.559C172.216 102.613 171.847 102.748 171.517 102.955C171.188 103.161 170.906 103.435 170.689 103.758C170.472 104.081 170.326 104.446 170.259 104.829C170.193 105.213 170.208 105.606 170.304 105.983C170.66 107.6 172.282 108.826 173.701 109.483C175.363 110.249 179.472 110.24 179.477 110.24Z" fill="#263238"/>
<path id="Vector_9" d="M181.518 99.2472C181.563 99.2472 180.689 96.5439 180.617 96.3727C179.752 94.4714 176.967 91.2997 174.638 91.5655C174.253 91.6199 173.884 91.7548 173.554 91.9616C173.225 92.1683 172.943 92.4421 172.726 92.7652C172.51 93.0883 172.364 93.4534 172.298 93.8367C172.233 94.22 172.248 94.6128 172.345 94.9896C172.696 96.607 174.323 97.8325 175.742 98.4857C177.404 99.2562 181.518 99.2472 181.518 99.2472Z" fill="#263238"/>
<path id="Vector_10" d="M180.959 89.0965C181.004 89.0965 179.841 86.4969 179.747 86.3392C178.679 84.5371 175.561 81.6942 173.277 82.2168C172.9 82.3133 172.548 82.4883 172.243 82.7302C171.938 82.9722 171.688 83.2757 171.509 83.621C171.329 83.9662 171.225 84.3455 171.202 84.7339C171.179 85.1223 171.238 85.5112 171.376 85.8752C171.903 87.4385 173.651 88.4838 175.133 88.9749C176.872 89.5561 180.959 89.0965 180.959 89.0965Z" fill="#263238"/>
<path id="Vector_11" d="M178.499 80.1128C178.535 80.1128 178.702 77.2879 178.693 77.1077C178.571 75.0172 177.116 71.0524 174.85 70.4622C174.471 70.3747 174.077 70.368 173.696 70.4424C173.314 70.5169 172.952 70.6709 172.634 70.8945C172.315 71.118 172.048 71.4061 171.848 71.7399C171.648 72.0737 171.521 72.4459 171.475 72.8321C171.223 74.4675 172.295 76.1976 173.381 77.3374C174.656 78.635 178.494 80.1083 178.499 80.1128Z" fill="#263238"/>
<path id="Vector_12" d="M176.215 150.032C176.215 150.032 176.066 148.838 175.886 146.765C175.706 144.693 175.498 141.728 175.404 138.165C175.354 136.363 175.336 134.452 175.372 132.407C175.372 131.38 175.426 130.352 175.467 129.253C175.503 128.721 175.543 128.185 175.579 127.64C175.616 127.095 175.706 126.536 175.764 125.978C176.073 123.703 176.504 121.447 177.057 119.22C177.611 116.944 178.242 114.66 178.859 112.38C179.477 110.101 180.085 107.821 180.562 105.555C181.048 103.342 181.375 101.097 181.54 98.8372C181.656 96.7219 181.584 94.6005 181.324 92.4981C181.11 90.5926 180.784 88.7015 180.346 86.8348C179.95 85.1093 179.486 83.5504 179.062 82.1762C178.639 80.8021 178.202 79.6217 177.841 78.653C177.107 76.7157 176.607 75.6434 176.607 75.6434C176.607 75.6434 177.129 76.7067 177.904 78.626C178.292 79.5856 178.738 80.7616 179.206 82.1267C179.675 83.4918 180.161 85.0462 180.594 86.7717C181.08 88.6253 181.458 90.5058 181.725 92.4035C182.035 94.5271 182.155 96.6741 182.085 98.8191C181.965 101.11 181.683 103.389 181.243 105.64C180.792 107.938 180.252 110.245 179.679 112.543C179.107 114.84 178.508 117.143 178.008 119.395C177.511 121.599 177.135 123.828 176.882 126.072C176.836 126.617 176.755 127.135 176.737 127.685C176.719 128.235 176.683 128.771 176.656 129.303C176.656 130.33 176.625 131.393 176.634 132.398C176.634 134.421 176.701 136.331 176.791 138.093C176.958 141.62 177.242 144.553 177.454 146.599C177.665 148.644 177.846 149.798 177.846 149.798C177.861 149.904 177.856 150.013 177.829 150.118C177.803 150.223 177.756 150.321 177.692 150.408C177.627 150.494 177.547 150.567 177.454 150.623C177.361 150.678 177.259 150.715 177.152 150.73C177.045 150.746 176.936 150.74 176.832 150.714C176.727 150.688 176.628 150.641 176.542 150.576C176.455 150.512 176.382 150.431 176.327 150.339C176.271 150.246 176.235 150.143 176.219 150.036V150.032H176.215Z" fill="#263238"/>
<path id="Vector_13" d="M171.205 145.378H182.437V147.703H181.459L179.432 160.39H174.214L172.183 147.703H171.205V145.378Z" fill="#263238" stroke="#263238" stroke-linecap="round" stroke-linejoin="round"/>
</g>
<g id="Character--inject-1">
<path id="Vector_14" d="M97.1949 153.861C97.1949 153.861 96.8074 156.146 97.0912 156.659C97.3751 157.173 97.8301 157.849 97.8301 157.849H101.407L101.601 156.745C102.094 157.292 102.7 157.727 103.376 158.02C104.327 158.358 105.246 158.02 106.359 158.106C107.3 158.178 109.513 158.106 109.513 158.106L109.45 156.912L102.993 154.019L100.682 152.217C100.682 152.217 98.6546 154.046 97.1949 153.861Z" fill="#263238" stroke="#263238" stroke-linecap="round" stroke-linejoin="round"/>
<path id="Vector_15" d="M70.5499 153.861C70.5499 153.861 71.1627 155.722 70.9374 156.231C70.7121 156.74 70.3427 157.849 70.3427 157.849H66.7699L66.4545 156.745C66.0196 157.295 65.4586 157.732 64.8191 158.02C63.918 158.358 62.9448 158.02 61.8455 158.106C60.9129 158.178 58.6917 158.106 58.6917 158.106L58.6287 156.912L64.7695 154.019L67.2069 152.668C67.2069 152.668 69.1082 154.046 70.5499 153.861Z" fill="#263238" stroke="#263238" stroke-linecap="round" stroke-linejoin="round"/>
<path id="Vector_16" d="M99.1232 66.0244C99.1232 66.0244 100.601 85.1543 101.115 94.3002C101.628 103.446 101.867 107.596 101.926 114.034C101.984 120.472 102.268 133.195 102.268 137.975C102.273 142.855 101.955 147.73 101.317 152.568L96.9966 154.871C96.9966 154.871 95.6 142.598 95.0368 138.201C94.5277 134.222 92.667 118.035 91.8244 113.029C90.9819 108.024 87.1434 90.6193 87.1434 90.6193C87.1434 90.6193 82.0207 108.88 80.6961 116.174C79.3716 123.468 74.3886 139.917 73.3208 143.918C72.253 147.919 70.55 153.852 70.55 153.852C69.9495 154.029 69.3188 154.078 68.6983 153.997C68.4198 153.975 68.1509 153.885 67.9153 153.735C67.6796 153.585 67.4844 153.379 67.3467 153.136C67.3467 153.136 68.6037 141.161 69.1218 135.34C69.7661 128.131 69.9688 118.562 70.7528 114.556C71.5367 110.551 71.5097 102.878 72.4197 97.7288C72.9379 94.8048 75.5735 66.8309 75.5735 66.8309C75.5735 66.8309 90.189 72.7465 99.1232 66.0244Z" fill="#263238" stroke="#263238" stroke-linecap="round" stroke-linejoin="round"/>
<path id="Vector_17" d="M101.317 152.568L97.9517 155.299" stroke="white" stroke-width="0.5" stroke-linecap="round" stroke-linejoin="round"/>
<path id="Vector_18" d="M67.2114 152.658L69.8831 154.708" stroke="white" stroke-width="0.5" stroke-linecap="round" stroke-linejoin="round"/>
<path id="Vector_19" d="M89.3509 72.4626L89.0806 83.6179L90.9728 81.7302" stroke="white" stroke-width="0.5" stroke-linecap="round" stroke-linejoin="round"/>
<path id="Vector_20" d="M88.1704 90.2949L93.5453 83.6089" stroke="white" stroke-width="0.5" stroke-linecap="round" stroke-linejoin="round"/>
<path id="Vector_21" d="M95.0366 84.0955L90.5537 88.4928" stroke="white" stroke-width="0.5" stroke-linecap="round" stroke-linejoin="round"/>
<path id="Vector_22" d="M84.9716 84.5866C83.5849 81.5166 81.215 78.996 78.2361 77.423" stroke="white" stroke-width="0.5" stroke-linecap="round" stroke-linejoin="round"/>
<path id="Vector_23" d="M91.8063 69.444L91.5495 70.7506L89.459 71.2371L89.6978 69.6107" stroke="white" stroke-width="0.5" stroke-linecap="round" stroke-linejoin="round"/>
<path id="Vector_24" d="M89.4589 71.2371C89.4589 71.2371 85.5438 71.0749 83.5569 70.4217L83.9759 69.1196" stroke="white" stroke-width="0.5" stroke-linecap="round" stroke-linejoin="round"/>
<path id="Vector_25" d="M82.1648 68.7952L81.7684 70.4217C81.7684 70.4217 78.6642 70.2595 78.1641 69.7729" stroke="white" stroke-width="0.5" stroke-linecap="round" stroke-linejoin="round"/>
<path id="Vector_26" d="M91.5496 70.737C92.6152 70.7056 93.6591 70.428 94.5997 69.9261L96.0189 69.1106L95.4692 67.9707" stroke="white" stroke-width="0.5" stroke-linecap="round" stroke-linejoin="round"/>
<path id="Vector_27" d="M101.051 28.5891C101.051 28.5891 103.881 31.0446 104.728 32.6665C105.575 34.2885 116.694 56.9596 116.649 58.5094C116.604 60.0593 114.96 63.0148 112.058 63.0148C109.157 63.0148 98.1589 45.3447 98.1589 45.3447L101.051 28.5891Z" fill="white"/>
<g id="Clip path group">
<mask id="mask0_9_2699" style="mask-type:luminance" maskUnits="userSpaceOnUse" x="98" y="28" width="19" height="36">
<g id="clip-path--inject-1">
<path id="Vector_28" d="M101.051 28.5891C101.051 28.5891 103.881 31.0446 104.728 32.6665C105.575 34.2885 116.694 56.9596 116.649 58.5094C116.604 60.0593 114.96 63.0148 112.058 63.0148C109.157 63.0148 98.1589 45.3447 98.1589 45.3447L101.051 28.5891Z" fill="white"/>
</g>
</mask>
<g mask="url(#mask0_9_2699)">
<g id="Group">
<g id="Vector_29" style="mix-blend-mode:multiply" opacity="0.5">
<path d="M101.398 31.3104L101.588 31.414C101.921 31.6078 102.669 32.0448 103.489 32.5899C104.415 33.3007 105.26 34.1121 106.007 35.0093C106.007 35.0093 104.989 32.3061 103.498 31.013C102.669 30.3005 101.897 29.5231 101.191 28.6883L101.398 31.3104Z" fill="#92E3A9"/>
</g>
</g>
</g>
</g>
<path id="Vector_30" d="M101.051 28.5891C101.051 28.5891 103.881 31.0446 104.728 32.6665C105.575 34.2885 116.694 56.9596 116.649 58.5094C116.604 60.0593 114.96 63.0148 112.058 63.0148C109.157 63.0148 98.1589 45.3447 98.1589 45.3447L101.051 28.5891Z" stroke="#263238" stroke-linecap="round" stroke-linejoin="round"/>
<path id="Vector_31" opacity="0.5" d="M108.138 52.2965C107.764 51.846 104.984 47.3721 104.701 45.7006C104.417 44.0291 105.151 41.8891 105.151 40.7717C105.151 39.6544 103.385 42.7225 103.29 42.3531C103.196 41.9837 102.083 37.9829 102.083 37.9829L98.6724 42.3937L98.1633 45.3537C98.1633 45.3537 102.47 52.2695 106.408 57.4461C109.211 56.5451 113.441 55.1709 114.351 54.6213C115.761 53.7878 108.512 52.7651 108.138 52.2965Z" fill="#92E3A9"/>
<path id="Vector_32" d="M87.4677 25.5255L101.069 28.5891C101.069 28.5891 102.016 35.559 101.907 39.3255C101.799 43.092 98.997 66.3848 98.997 66.3848C98.997 66.3848 91.7884 73.7376 75.605 66.8354C75.605 66.8354 75.0418 65.7496 74.8301 57.6309C74.6273 49.6248 68.6081 34.757 69.0902 33.063C70.0814 29.5893 81.9846 26.2509 83.548 26.1562C84.8668 26.0309 86.1761 25.8202 87.4677 25.5255Z" fill="white" stroke="#263238" stroke-linecap="round" stroke-linejoin="round"/>
<g id="Vector_33" style="mix-blend-mode:multiply" opacity="0.5">
<path d="M88.6976 66.3443L76.2402 61.4605L78.3938 37.7982L92.5633 44.4301L101.056 40.6095L94.9826 65.3035L88.6976 66.3443Z" fill="#92E3A9"/>
</g>
<g id="Vector_34" style="mix-blend-mode:multiply" opacity="0.5">
<path d="M92.383 29.6119C92.9642 29.6119 98.3391 30.6886 101.394 31.3104C101.218 29.7155 101.065 28.6072 101.065 28.6072L87.4631 25.5435C86.1716 25.8397 84.8623 26.0519 83.5434 26.1787C81.98 26.2734 70.0768 29.6118 69.0856 33.0855C68.9279 33.6487 69.4776 35.6491 70.293 38.3658C71.4825 35.2976 72.5457 32.7701 72.9107 32.4142C73.7307 31.5942 81.9214 29.4677 81.9214 29.4677L92.383 29.6119Z" fill="#92E3A9"/>
</g>
<path id="Vector_35" d="M91.162 32.4818L89.2923 36.6628L93.3922 65.6324L90.3871 69.6873L87.5352 66.3803L88.3326 37.0322L84.5571 32.626L86.972 28.0575L91.162 32.4818Z" fill="#263238"/>
<path id="Vector_36" d="M105.647 41.844L94.7484 47.8902L80.7321 40.5555L78.511 61.2577L92.3921 67.9482L102.903 61.6226L105.647 41.844Z" fill="#92E3A9" stroke="#263238" stroke-linecap="round" stroke-linejoin="round"/>
<path id="Vector_37" d="M94.3337 52.5398L94.7482 49.2148" stroke="#263238" stroke-width="0.5" stroke-linecap="round" stroke-linejoin="round"/>
<path id="Vector_38" d="M92.3921 67.9482L94.1041 54.3645" stroke="#263238" stroke-width="0.5" stroke-linecap="round" stroke-linejoin="round"/>
<path id="Vector_39" d="M88.7337 24.3631C88.7337 24.3631 91.1891 24.3631 92.2569 25.985C93.3247 27.607 95.3747 34.0181 95.3747 34.0181L87.9858 31.9411L83.5075 36.5682C83.5075 36.5682 79.4031 30.4859 81.0746 26.6248C82.7461 22.7637 88.7337 24.3631 88.7337 24.3631Z" fill="white" stroke="#263238" stroke-linecap="round" stroke-linejoin="round"/>
<g id="Vector_40" style="mix-blend-mode:multiply" opacity="0.5">
<path d="M93.0047 27.4853C92.7933 26.9673 92.5433 26.4658 92.2569 25.985C91.1891 24.3406 88.7336 24.3631 88.7336 24.3631C88.7336 24.3631 82.755 22.7637 81.0745 26.6158C80.5338 27.8638 80.6239 29.3461 80.9348 30.7788C81.2277 30.0128 81.89 28.4765 82.737 27.625C83.8813 26.4806 84.0165 27.4763 84.0165 27.4763L90.4232 26.9672C91.2717 27.1949 92.134 27.3679 93.0047 27.4853Z" fill="#92E3A9"/>
</g>
<path id="Vector_41" d="M89.7878 20.6326C89.7878 20.6326 90.2023 29.1568 89.1256 30.8373C88.0488 32.5178 86.8233 31.8736 85.9267 30.8373C85.0302 29.8011 84.0164 27.4853 84.0164 27.4853L82.9216 21.1778C82.9216 21.1778 89.3013 22.3537 89.7878 20.6326Z" fill="white" stroke="#263238" stroke-linecap="round" stroke-linejoin="round"/>
<g id="Vector_42" style="mix-blend-mode:multiply" opacity="0.5">
<path d="M87.4766 27.4853C88.4045 27.2195 89.2285 26.6754 89.8374 25.9264C89.8374 25.4444 89.8374 24.9668 89.8374 24.5027C88.7877 23.2998 86.3773 21.0291 83.6921 21.759C83.4623 21.822 83.2416 21.8941 83.0388 21.9662L84.012 27.4853C84.012 27.4853 85.0302 29.8191 85.9223 30.8373L85.0212 26.814C85.3355 27.1316 85.7279 27.3608 86.159 27.4786C86.59 27.5965 87.0444 27.5988 87.4766 27.4853Z" fill="#92E3A9"/>
</g>
<path id="Vector_43" d="M93.5455 12.8789C93.5455 12.8789 94.78 12.7888 94.807 14.8477C94.834 16.9067 93.6221 18.6367 92.7886 17.9204C91.9551 17.204 93.3157 11.9417 93.5455 12.8789Z" fill="white" stroke="#263238" stroke-linecap="round" stroke-linejoin="round"/>
<path id="Vector_44" d="M85.0709 2.21912C79.4526 3.5437 77.9479 7.17505 77.9929 10.464C77.9929 11.721 78.5741 13.8971 79.3445 16.1903L79.2454 15.9831C79.2454 15.9831 77.5559 13.0366 77.3081 14.8072C77.0603 16.5778 78.7318 18.4115 79.2859 19.0017C79.4398 19.1433 79.638 19.2271 79.8468 19.2386C80.0556 19.2501 80.2619 19.1887 80.4303 19.0648C81.5477 21.768 82.7956 24.1874 83.6111 24.8452C85.3772 26.2734 87.8597 27.0078 89.8331 25.2957C91.8064 23.5837 93.7572 13.8205 93.7572 13.8205C94.2258 3.94468 90.6891 0.903547 85.0709 2.21912Z" fill="white"/>
<g id="Clip path group_2">
<mask id="mask1_9_2699" style="mask-type:luminance" maskUnits="userSpaceOnUse" x="77" y="1" width="17" height="26">
<g id="clip-path-2--inject-1">
<path id="Vector_45" d="M85.0709 2.21912C79.4526 3.5437 77.9479 7.17505 77.9929 10.464C77.9929 11.721 78.5741 13.8971 79.3445 16.1903L79.2454 15.9831C79.2454 15.9831 77.5559 13.0366 77.3081 14.8072C77.0603 16.5778 78.7318 18.4115 79.2859 19.0017C79.4398 19.1433 79.638 19.2271 79.8468 19.2386C80.0556 19.2501 80.2619 19.1887 80.4303 19.0648C81.5477 21.768 82.7956 24.1874 83.6111 24.8452C85.3772 26.2734 87.8597 27.0078 89.8331 25.2957C91.8064 23.5837 93.7572 13.8205 93.7572 13.8205C94.2258 3.94468 90.6891 0.903547 85.0709 2.21912Z" fill="white"/>
</g>
</mask>
<g mask="url(#mask1_9_2699)">
<g id="Group_2">
<g id="Vector_46" style="mix-blend-mode:multiply" opacity="0.5">
<path d="M82.0793 12.6176C82.0793 12.6176 84.0391 10.9821 86.0035 10.9821C87.9678 10.9821 92.0587 12.7842 92.5453 14.253C92.8427 15.1541 92.4912 18.0601 92.1623 20.2677C93.1085 17.159 93.7753 13.834 93.7753 13.834C94.2258 3.9627 90.6846 0.912555 85.0709 2.23714C79.4572 3.56172 77.9479 7.19307 77.9929 10.482C77.9929 11.739 78.5741 13.9151 79.3445 16.2083L79.2454 16.0011C79.2454 16.0011 77.5559 13.0546 77.3081 14.8252C77.0603 16.5958 78.7318 18.4295 79.2859 19.0197C79.4398 19.1614 79.638 19.2451 79.8468 19.2566C80.0556 19.2681 80.2619 19.2067 80.4303 19.0828C81.5477 21.786 82.7956 24.2054 83.6111 24.8632C83.6111 24.8632 81.7324 20.6326 81.0791 18.835C80.4258 17.0373 80.606 13.9106 82.0793 12.6176Z" fill="#92E3A9"/>
</g>
</g>
</g>
</g>
<path id="Vector_47" d="M85.0709 2.21912C79.4526 3.5437 77.9479 7.17505 77.9929 10.464C77.9929 11.721 78.5741 13.8971 79.3445 16.1903L79.2454 15.9831C79.2454 15.9831 77.5559 13.0366 77.3081 14.8072C77.0603 16.5778 78.7318 18.4115 79.2859 19.0017C79.4398 19.1433 79.638 19.2271 79.8468 19.2386C80.0556 19.2501 80.2619 19.1887 80.4303 19.0648C81.5477 21.768 82.7956 24.1874 83.6111 24.8452C85.3772 26.2734 87.8597 27.0078 89.8331 25.2957C91.8064 23.5837 93.7572 13.8205 93.7572 13.8205C94.2258 3.94468 90.6891 0.903547 85.0709 2.21912Z" stroke="#263238" stroke-linecap="round" stroke-linejoin="round"/>
<path id="Vector_48" d="M91.6758 16.6949C91.3944 17.118 90.9582 17.4136 90.461 17.5181C89.9638 17.6226 89.4454 17.5276 89.0176 17.2536" stroke="#263238" stroke-linecap="round" stroke-linejoin="round"/>
<path id="Vector_49" d="M85.6789 17.2896C85.3976 17.7127 84.9614 18.0084 84.4642 18.1129C83.9669 18.2174 83.4486 18.1223 83.0208 17.8483" stroke="#263238" stroke-linecap="round" stroke-linejoin="round"/>
<path id="Vector_50" d="M85.9673 15.929C85.2411 15.5646 84.4551 15.3341 83.6471 15.2487C82.5748 15.2036 81.5205 16.0777 81.5205 16.0777" stroke="#263238" stroke-linecap="round" stroke-linejoin="round"/>
<path id="Vector_51" d="M88.5535 20.4794C88.5154 20.7532 88.3712 21.0011 88.1521 21.1696C87.933 21.3381 87.6565 21.4139 87.3821 21.3805C87.0955 21.3892 86.8122 21.3185 86.5633 21.1762C86.3144 21.0338 86.1097 20.8254 85.9719 20.574" stroke="#263238" stroke-linecap="round" stroke-linejoin="round"/>
<path id="Vector_52" d="M89.4996 22.6555C89.4996 22.6555 86.8685 23.4395 85.179 22.7592C85.3997 23.156 85.7016 23.5019 86.0649 23.7743C86.4281 24.0468 86.8447 24.2397 87.2875 24.3406C88.2877 24.6064 89.4996 22.6555 89.4996 22.6555Z" fill="#263238"/>
<path id="Vector_53" d="M92.0046 14.7441C92.0046 14.7441 91.0179 14.6585 90.0853 14.6675C89.2293 14.6675 88.3778 15.7803 88.3778 15.7803L88.0759 17.1319" stroke="#263238" stroke-linecap="round" stroke-linejoin="round"/>
<path id="Vector_54" d="M83.8859 9.88278C85.929 11.5938 88.1618 13.0647 90.5403 14.2665C94.415 16.2038 97.3885 12.4644 95.5728 10.6262C93.7572 8.78797 97.9382 12.6446 98.596 10.3378C99.2538 8.03106 93.2346 0.115097 87.1883 0.00246232C81.1421 -0.110172 79.6778 3.67886 79.6778 3.67886C79.6778 3.67886 78.966 1.72803 78.4299 2.80481C78.118 3.39085 77.9396 4.03854 77.9072 4.70158C77.9072 4.70158 76.6818 5.60266 76.1411 6.1388C75.6005 6.67494 76.2943 7.24262 76.2943 7.24262C76.2943 7.24262 75.213 9.94585 75.7897 12.0318L78.8939 16.5372C79.2684 16.5251 79.6351 16.4269 79.9655 16.2504C80.296 16.0738 80.5814 15.8236 80.7997 15.519C81.6107 14.4557 81.0159 11.1398 81.0159 11.1398C81.0159 11.1398 81.0655 14.708 82.0161 13.9241C82.9668 13.1402 81.5656 9.653 81.5656 9.653L83.8859 9.88278Z" fill="#263238"/>
<path id="Vector_55" d="M81.1873 6.19736C81.1873 6.19736 83.9536 8.27884 85.954 10.1801C87.9543 12.0814 91.0045 12.8113 91.9101 12.3923" stroke="white" stroke-width="0.5" stroke-miterlimit="10" stroke-linecap="round"/>
<path id="Vector_56" d="M89.7338 8.81501C89.7338 8.81501 85.7691 7.91393 84.8364 6.19287C83.9038 4.47181 81.0159 4.67456 81.0159 4.67456C81.7372 4.0093 82.6174 3.54058 83.5721 3.31337C84.5267 3.08615 85.5237 3.10807 86.4674 3.377" stroke="white" stroke-width="0.5" stroke-miterlimit="10" stroke-linecap="round"/>
<path id="Vector_57" d="M79.6824 7.04889C79.6824 7.04889 82.7821 11.721 80.8267 13.1582" stroke="white" stroke-width="0.5" stroke-miterlimit="10" stroke-linecap="round"/>
<path id="Vector_58" d="M69.0901 33.0675C69.0901 33.0675 60.6785 55.9999 61.066 58.559C61.4534 61.118 65.8687 60.0998 67.2609 59.7529C68.653 59.406 74.019 50.8908 74.055 49.0571C74.4017 48.8403 74.6982 48.5522 74.9251 48.212C75.1519 47.8717 75.3037 47.4872 75.3706 47.0838C75.6995 45.606 75.9247 40.3257 73.7892 36.3655" fill="white"/>
<g id="Clip path group_3">
<mask id="mask2_9_2699" style="mask-type:luminance" maskUnits="userSpaceOnUse" x="61" y="33" width="15" height="28">
<g id="clip-path-3--inject-1">
<path id="Vector_59" d="M69.0901 33.0675C69.0901 33.0675 60.6785 55.9999 61.066 58.559C61.4534 61.118 65.8687 60.0998 67.2609 59.7529C68.653 59.406 74.019 50.8908 74.055 49.0571C74.4017 48.8403 74.6982 48.5522 74.9251 48.212C75.1519 47.8717 75.3037 47.4872 75.3706 47.0838C75.6995 45.606 75.9247 40.3257 73.7892 36.3655" fill="white"/>
</g>
</mask>
<g mask="url(#mask2_9_2699)">
<g id="Group_3">
<g id="Vector_60" style="mix-blend-mode:multiply" opacity="0.5">
<path d="M69.0901 33.0675C69.0901 33.0675 60.6785 55.9999 61.066 58.559C61.2822 59.9602 62.7059 60.2845 64.1747 60.2395C65.2019 57.3425 65.6029 52.0487 66.3733 49.4266C67.2248 46.4936 70.0001 38.902 71.6897 34.9102L69.0901 33.0675Z" fill="#92E3A9"/>
</g>
</g>
</g>
</g>
<path id="Vector_61" d="M69.0901 33.0675C69.0901 33.0675 60.6785 55.9999 61.066 58.559C61.4534 61.118 65.8687 60.0998 67.2609 59.7529C68.653 59.406 74.019 50.8908 74.055 49.0571C74.4017 48.8403 74.6982 48.5522 74.9251 48.212C75.1519 47.8717 75.3037 47.4872 75.3706 47.0838C75.6995 45.606 75.9247 40.3257 73.7892 36.3655" stroke="#263238" stroke-linecap="round" stroke-linejoin="round"/>
<path id="Vector_62" d="M75.4473 56.464C75.4473 56.464 64.6344 55.8062 63.2468 55.6936C61.8591 55.5809 60.1966 57.4957 61.5032 60.1449C62.8097 62.7941 64.8867 62.9472 67.4368 62.4652C69.9868 61.9831 75.6186 58.5455 75.6186 58.5455L75.4473 56.464Z" fill="white"/>
<g id="Clip path group_4">
<mask id="mask3_9_2699" style="mask-type:luminance" maskUnits="userSpaceOnUse" x="61" y="55" width="15" height="8">
<g id="clip-path-4--inject-1">
<path id="Vector_63" d="M75.4473 56.464C75.4473 56.464 64.6344 55.8062 63.2468 55.6936C61.8591 55.5809 60.1966 57.4957 61.5032 60.1449C62.8097 62.7941 64.8867 62.9472 67.4368 62.4652C69.9868 61.9831 75.6186 58.5455 75.6186 58.5455L75.4473 56.464Z" fill="white"/>
</g>
</mask>
<g mask="url(#mask3_9_2699)">
<g id="Group_4">
<path id="Vector_64" opacity="0.5" d="M75.4473 56.464C75.4473 56.464 64.6344 55.8062 63.2468 55.6936C61.8591 55.5809 60.1966 57.4957 61.5032 60.1449C62.8097 62.7941 64.8867 62.9472 67.4368 62.4652C69.9868 61.9831 75.6186 58.5455 75.6186 58.5455L75.4473 56.464Z" fill="#92E3A9" stroke="#263238" stroke-linecap="round" stroke-linejoin="round"/>
</g>
</g>
</g>
<path id="Vector_65" d="M75.4473 56.464C75.4473 56.464 64.6344 55.8062 63.2468 55.6936C61.8591 55.5809 60.1966 57.4957 61.5032 60.1449C62.8097 62.7941 64.8867 62.9472 67.4368 62.4652C69.9868 61.9831 75.6186 58.5455 75.6186 58.5455L75.4473 56.464Z" stroke="#263238" stroke-linecap="round" stroke-linejoin="round"/>
<path id="Vector_66" d="M77.1727 53.8283C77.1727 53.8283 78.5694 52.346 78.9388 52.3776C79.3083 52.4091 82.0205 52.2604 82.2503 52.8957C82.4801 53.5309 82.1151 53.2516 81.7412 53.4634C81.3672 53.6751 79.511 53.9139 79.511 53.9139C79.511 53.9139 81.1104 54.0446 81.5925 54.3284C82.0746 54.6122 84.1155 56.4955 84.1065 56.8649C84.0975 57.2344 83.8497 57.3155 83.3541 57.3155C82.8585 57.3155 83.2235 57.6714 83.0883 58.0273C82.9531 58.3832 81.9755 58.3067 81.9755 58.3067C81.9755 58.3067 82.0611 59.5411 81.3222 59.4781C80.5833 59.415 79.2587 58.4508 79.2587 58.4508C79.2587 58.4508 76.5239 59.451 75.5418 59.3744C74.8967 59.3453 74.2556 59.49 73.6855 59.7934C74.5115 57.6266 75.6898 55.6111 77.1727 53.8283Z" fill="white"/>
<g id="Clip path group_5">
<mask id="mask4_9_2699" style="mask-type:luminance" maskUnits="userSpaceOnUse" x="73" y="52" width="12" height="8">
<g id="clip-path-5--inject-1">
<path id="Vector_67" d="M77.1727 53.8283C77.1727 53.8283 78.5694 52.346 78.9388 52.3776C79.3083 52.4091 82.0205 52.2604 82.2503 52.8957C82.4801 53.5309 82.1151 53.2516 81.7412 53.4634C81.3672 53.6751 79.511 53.9139 79.511 53.9139C79.511 53.9139 81.1104 54.0446 81.5925 54.3284C82.0746 54.6122 84.1155 56.4955 84.1065 56.8649C84.0975 57.2344 83.8497 57.3155 83.3541 57.3155C82.8585 57.3155 83.2235 57.6714 83.0883 58.0273C82.9531 58.3832 81.9755 58.3067 81.9755 58.3067C81.9755 58.3067 82.0611 59.5411 81.3222 59.4781C80.5833 59.415 79.2587 58.4508 79.2587 58.4508C79.2587 58.4508 76.5239 59.451 75.5418 59.3744C74.8967 59.3453 74.2556 59.49 73.6855 59.7934C74.5115 57.6266 75.6898 55.6111 77.1727 53.8283Z" fill="white"/>
</g>
</mask>
<g mask="url(#mask4_9_2699)">
<g id="Group_5">
<g id="Vector_68" style="mix-blend-mode:multiply" opacity="0.5">
<path d="M77.1727 53.8283C75.6936 55.5988 74.5155 57.6003 73.6855 59.7529C74.2556 59.4495 74.8967 59.3048 75.5418 59.3339C75.8647 59.3393 76.1871 59.3045 76.5014 59.2303C76.6972 58.3687 76.8133 57.491 76.8483 56.6081C76.8483 55.2971 78.9388 52.3776 78.9388 52.3776C78.5649 52.346 77.1727 53.8283 77.1727 53.8283Z" fill="#92E3A9"/>
</g>
</g>
</g>
</g>
<path id="Vector_69" d="M77.1727 53.8283C77.1727 53.8283 78.5694 52.346 78.9388 52.3776C79.3083 52.4091 82.0205 52.2604 82.2503 52.8957C82.4801 53.5309 82.1151 53.2516 81.7412 53.4634C81.3672 53.6751 79.511 53.9139 79.511 53.9139C79.511 53.9139 81.1104 54.0446 81.5925 54.3284C82.0746 54.6122 84.1155 56.4955 84.1065 56.8649C84.0975 57.2344 83.8497 57.3155 83.3541 57.3155C82.8585 57.3155 83.2235 57.6714 83.0883 58.0273C82.9531 58.3832 81.9755 58.3067 81.9755 58.3067C81.9755 58.3067 82.0611 59.5411 81.3222 59.4781C80.5833 59.415 79.2587 58.4508 79.2587 58.4508C79.2587 58.4508 76.5239 59.451 75.5418 59.3744C74.8967 59.3453 74.2556 59.49 73.6855 59.7934C74.5115 57.6266 75.6898 55.6111 77.1727 53.8283Z" stroke="#263238" stroke-linecap="round" stroke-linejoin="round"/>
<path id="Vector_70" d="M83.3542 57.2749L80.9438 55.3602L78.9795 55.0763" stroke="#263238" stroke-linecap="round" stroke-linejoin="round"/>
<path id="Vector_71" d="M81.9711 58.2661L79.2994 56.8199L78.074 56.5991" stroke="#263238" stroke-linecap="round" stroke-linejoin="round"/>
<path id="Vector_72" d="M106.782 52.0037C106.782 52.0037 105.386 50.5259 105.016 50.5529C104.647 50.5799 101.934 50.4403 101.705 51.071C101.475 51.7018 101.84 51.427 102.214 51.6432C102.942 51.8539 103.689 51.9972 104.444 52.0712C104.444 52.0712 102.845 52.2019 102.362 52.4902C101.88 52.7786 99.8394 54.6573 99.8484 55.0223C99.8574 55.3872 100.105 55.4728 100.601 55.4728C101.096 55.4728 100.731 55.8287 100.867 56.1847C101.002 56.5406 101.979 56.4595 101.979 56.4595C101.979 56.4595 101.894 57.694 102.633 57.6354C103.372 57.5768 104.696 56.6082 104.696 56.6082C104.696 56.6082 107.431 57.6084 108.413 57.5092C109.059 57.4792 109.701 57.6256 110.269 57.9327C109.44 55.7785 108.262 53.7753 106.782 52.0037Z" fill="white" stroke="#263238" stroke-linecap="round" stroke-linejoin="round"/>
<path id="Vector_73" d="M100.601 55.4503L103.007 53.54L104.971 53.2561" stroke="#263238" stroke-linecap="round" stroke-linejoin="round"/>
<path id="Vector_74" d="M101.979 56.4414L104.651 54.9997L105.877 54.7744" stroke="#263238" stroke-linecap="round" stroke-linejoin="round"/>
<path id="Vector_75" d="M108.391 54.2473C108.391 54.2473 113.027 53.7157 114.617 54.9096C116.207 56.1035 115.942 59.1447 115.942 59.1447" stroke="#263238" stroke-linecap="round" stroke-linejoin="round"/>
</g>
<g id="character--inject-1">
<path id="Vector_76" d="M71.7661 152.285C71.7661 152.285 72.2617 151.298 73.8431 151.496C75.4245 151.694 76.4157 153.573 75.3254 154.163C74.2351 154.753 71.7661 152.285 71.7661 152.285Z" fill="#92E3A9" stroke="#263238" stroke-linecap="round" stroke-linejoin="round"/>
<path id="Vector_77" d="M74.1044 106.402C74.1044 106.402 77.8258 107.15 79.6145 108.339C81.4031 109.528 81.696 109.826 82.142 112.209C82.588 114.592 80.9526 120.99 80.9526 124.266C80.9526 127.541 78.5692 147.486 78.5692 149.131C78.5692 150.775 80.2092 154.19 80.0605 155.38C79.9973 156.235 80.0982 157.094 80.3579 157.912C80.3579 157.912 81.3986 158.655 80.0605 158.813C78.7224 158.971 78.5692 159.11 77.3798 158.515C76.1904 157.921 75.5776 154.943 74.5504 154.051C73.5232 153.159 72.915 152.118 72.915 151.37C72.915 150.622 75.2938 147.802 75.2938 147.802C75.2938 147.802 74.9965 143.634 74.8433 140.061C74.6901 136.489 73.0411 128.6 73.0411 125.194C73.0411 121.788 75.2938 113.732 75.2938 113.732C75.2938 113.732 69.5134 114.439 67.2607 112.953C65.008 111.466 67.5581 104.915 74.1044 106.402Z" fill="white" stroke="#263238" stroke-linecap="round" stroke-linejoin="round"/>
<path id="Vector_78" d="M74.5505 154.033C74.5505 154.033 71.8473 151.712 71.7662 152.303C71.6851 152.893 71.6671 157.547 71.8653 158.038C72.0636 158.529 77.4024 159.029 80.1733 159.525C82.9441 160.02 81.8538 158.236 81.2591 157.84C80.6643 157.443 74.5505 154.033 74.5505 154.033Z" fill="#92E3A9" stroke="#263238" stroke-linecap="round" stroke-linejoin="round"/>
<path id="Vector_79" opacity="0.2" d="M74.5505 154.033C74.5505 154.033 71.8473 151.712 71.7662 152.303C71.6851 152.893 71.6671 157.547 71.8653 158.038C72.0636 158.529 77.4024 159.029 80.1733 159.525C82.9441 160.02 81.8538 158.236 81.2591 157.84C80.6643 157.443 74.5505 154.033 74.5505 154.033Z" fill="black"/>
<path id="Vector_80" d="M75.3254 156.655C75.8666 156.006 76.4995 155.44 77.2042 154.974C78.0412 154.38 78.9804 153.945 79.975 153.69L81.259 156.159C80.3736 156.368 79.5128 156.67 78.691 157.06C78.0672 157.438 77.5012 157.904 77.0105 158.443C77.0105 158.443 75.5237 157.448 75.3254 156.655Z" fill="#263238" stroke="#263238" stroke-linecap="round" stroke-linejoin="round"/>
<path id="Vector_81" d="M77.9971 153.888C77.8721 153.904 77.7517 153.945 77.6432 154.009C77.5347 154.073 77.4405 154.158 77.3662 154.26C77.2919 154.362 77.2392 154.478 77.2114 154.6C77.1835 154.723 77.181 154.85 77.2041 154.974C77.3033 155.965 77.4024 159.128 77.7988 159.227C78.1953 159.326 83.1377 160.128 84.9174 160.214C86.697 160.3 88.6749 160.313 88.6749 159.426C88.6749 158.538 88.3775 158.142 87.9855 158.142C87.5936 158.142 86.697 157.844 85.5121 157.155C84.3272 156.466 81.4572 153.794 80.5561 153.695C79.6551 153.596 78.4927 152.996 77.9971 153.888Z" fill="#92E3A9" stroke="#263238" stroke-linecap="round" stroke-linejoin="round"/>
<path id="Vector_82" opacity="0.2" d="M77.9971 153.888C77.8721 153.904 77.7517 153.945 77.6432 154.009C77.5347 154.073 77.4405 154.158 77.3662 154.26C77.2919 154.362 77.2392 154.478 77.2114 154.6C77.1835 154.723 77.181 154.85 77.2041 154.974C77.3033 155.965 77.4024 159.128 77.7988 159.227C78.1953 159.326 83.1377 160.128 84.9174 160.214C86.697 160.3 88.6749 160.313 88.6749 159.426C88.6749 158.538 88.3775 158.142 87.9855 158.142C87.5936 158.142 86.697 157.844 85.5121 157.155C84.3272 156.466 81.4572 153.794 80.5561 153.695C79.6551 153.596 78.4927 152.996 77.9971 153.888Z" fill="black"/>
<path id="Vector_83" d="M36.5386 158.142C36.5386 157.696 36.4065 157.26 36.1589 156.89C35.9114 156.52 35.5596 156.231 35.148 156.06C34.7363 155.89 34.2834 155.845 33.8464 155.932C33.4094 156.019 33.008 156.234 32.693 156.549C32.378 156.864 32.1634 157.265 32.0765 157.702C31.9896 158.139 32.0342 158.592 32.2047 159.004C32.3752 159.415 32.6639 159.767 33.0344 160.015C33.4048 160.262 33.8404 160.394 34.2859 160.394C34.8833 160.394 35.4563 160.157 35.8788 159.734C36.3013 159.312 36.5386 158.739 36.5386 158.142Z" fill="#263238" stroke="#263238" stroke-linecap="round" stroke-linejoin="round"/>
<path id="Vector_84" d="M34.286 159.263C34.9081 159.263 35.4124 158.759 35.4124 158.137C35.4124 157.515 34.9081 157.011 34.286 157.011C33.664 157.011 33.1597 157.515 33.1597 158.137C33.1597 158.759 33.664 159.263 34.286 159.263Z" fill="white" stroke="#263238" stroke-linecap="round" stroke-linejoin="round"/>
<path id="Vector_85" d="M60.6785 158.142C60.6785 157.696 60.5464 157.26 60.2988 156.89C60.0513 156.52 59.6995 156.231 59.2879 156.06C58.8762 155.89 58.4233 155.845 57.9863 155.932C57.5493 156.019 57.1479 156.234 56.8329 156.549C56.5179 156.864 56.3033 157.265 56.2164 157.702C56.1295 158.139 56.1741 158.592 56.3446 159.004C56.5151 159.415 56.8038 159.767 57.1743 160.015C57.5447 160.262 57.9803 160.394 58.4258 160.394C59.0232 160.394 59.5962 160.157 60.0187 159.734C60.4412 159.312 60.6785 158.739 60.6785 158.142Z" fill="#263238" stroke="#263238" stroke-linecap="round" stroke-linejoin="round"/>
<path id="Vector_86" d="M59.552 158.142C59.552 157.919 59.486 157.701 59.3622 157.516C59.2384 157.331 59.0625 157.186 58.8567 157.101C58.6509 157.016 58.4244 156.993 58.2059 157.037C57.9874 157.08 57.7867 157.188 57.6292 157.345C57.4717 157.503 57.3644 157.703 57.321 157.922C57.2775 158.14 57.2998 158.367 57.3851 158.573C57.4703 158.778 57.6147 158.954 57.7999 159.078C57.9851 159.202 58.2029 159.268 58.4257 159.268C58.7244 159.268 59.0109 159.149 59.2221 158.938C59.4333 158.727 59.552 158.44 59.552 158.142Z" fill="white" stroke="#263238" stroke-linecap="round" stroke-linejoin="round"/>
<path id="Vector_87" d="M68.5674 158.142C68.5674 157.696 68.4353 157.26 68.1877 156.89C67.9402 156.52 67.5884 156.231 67.1768 156.06C66.7651 155.89 66.3122 155.845 65.8752 155.932C65.4382 156.019 65.0369 156.234 64.7218 156.549C64.4068 156.864 64.1922 157.265 64.1053 157.702C64.0184 158.139 64.063 158.592 64.2335 159.004C64.404 159.415 64.6927 159.767 65.0632 160.015C65.4336 160.262 65.8692 160.394 66.3147 160.394C66.9122 160.394 67.4851 160.157 67.9076 159.734C68.3301 159.312 68.5674 158.739 68.5674 158.142Z" fill="#263238" stroke="#263238" stroke-linecap="round" stroke-linejoin="round"/>
<path id="Vector_88" d="M67.4411 158.142C67.442 157.917 67.3763 157.698 67.2524 157.512C67.1285 157.325 66.9519 157.179 66.7451 157.093C66.5383 157.007 66.3106 156.984 66.0908 157.028C65.871 157.071 65.6691 157.179 65.5107 157.337C65.3522 157.496 65.2444 157.698 65.201 157.918C65.1575 158.137 65.1802 158.365 65.2664 158.572C65.3525 158.779 65.4982 158.955 65.6848 159.079C65.8715 159.203 66.0907 159.269 66.3148 159.268C66.6135 159.268 66.9 159.149 67.1112 158.938C67.3225 158.727 67.4411 158.44 67.4411 158.142Z" fill="white" stroke="#263238" stroke-linecap="round" stroke-linejoin="round"/>
<path id="Vector_89" d="M54.9295 119.467H50.1628V155.56H54.9295V119.467Z" fill="#263238" stroke="#263238" stroke-linecap="round" stroke-linejoin="round"/>
<path id="Vector_90" d="M56.2047 138.327H48.897V155.56H56.2047V138.327Z" fill="#263238" stroke="#263238" stroke-linecap="round" stroke-linejoin="round"/>
<path id="Vector_91" d="M33.8219 154.88H67.4907C67.9686 154.88 68.427 155.07 68.765 155.407C69.103 155.745 69.2928 156.204 69.2928 156.682V156.921H32.0198V156.682C32.0198 156.204 32.2096 155.745 32.5476 155.407C32.8856 155.07 33.344 154.88 33.8219 154.88Z" fill="#263238" stroke="#263238" stroke-linecap="round" stroke-linejoin="round"/>
<path id="Vector_92" d="M47.6803 105.51H41.553V115.385H47.6803V105.51Z" fill="#263238" stroke="#263238" stroke-linecap="round" stroke-linejoin="round"/>
<path id="Vector_93" d="M72.397 114.02H32.6955C30.8716 114.02 29.3931 115.499 29.3931 117.323V118.21C29.3931 120.034 30.8716 121.513 32.6955 121.513H72.397C74.2209 121.513 75.6994 120.034 75.6994 118.21V117.323C75.6994 115.499 74.2209 114.02 72.397 114.02Z" fill="#92E3A9" stroke="#263238" stroke-linecap="round" stroke-linejoin="round"/>
<path id="Vector_94" opacity="0.1" d="M72.397 114.02H32.6955C30.8716 114.02 29.3931 115.499 29.3931 117.323V118.21C29.3931 120.034 30.8716 121.513 32.6955 121.513H72.397C74.2209 121.513 75.6994 120.034 75.6994 118.21V117.323C75.6994 115.499 74.2209 114.02 72.397 114.02Z" fill="black"/>
<path id="Vector_95" d="M75.6995 117.764C75.6995 116.771 75.305 115.819 74.6029 115.117C73.9008 114.415 72.9485 114.02 71.9555 114.02H51.5281C51.0252 114.003 50.5239 114.087 50.0542 114.267C49.5844 114.448 49.1558 114.721 48.7939 115.07C48.432 115.42 48.1441 115.839 47.9476 116.302C47.751 116.765 47.6497 117.263 47.6497 117.766C47.6497 118.27 47.751 118.768 47.9476 119.231C48.1441 119.694 48.432 120.113 48.7939 120.463C49.1558 120.812 49.5844 121.085 50.0542 121.266C50.5239 121.446 51.0252 121.53 51.5281 121.513H71.9555C72.9489 121.512 73.9012 121.116 74.6032 120.413C75.3052 119.71 75.6995 118.758 75.6995 117.764Z" fill="#92E3A9" stroke="#263238" stroke-miterlimit="10"/>
<path id="Vector_96" opacity="0.1" d="M75.6995 117.881C75.6995 117.39 75.6026 116.903 75.4145 116.449C75.2263 115.994 74.9505 115.582 74.6029 115.234C74.2552 114.886 73.8425 114.611 73.3883 114.422C72.934 114.234 72.4472 114.137 71.9555 114.137H51.5281C51.0252 114.12 50.5239 114.204 50.0542 114.384C49.5844 114.565 49.1558 114.838 48.7939 115.188C48.432 115.537 48.1441 115.956 47.9476 116.419C47.751 116.882 47.6497 117.38 47.6497 117.884C47.6497 118.387 47.751 118.885 47.9476 119.348C48.1441 119.811 48.432 120.23 48.7939 120.58C49.1558 120.929 49.5844 121.203 50.0542 121.383C50.5239 121.563 51.0252 121.647 51.5281 121.63H71.9555C72.4475 121.63 72.9348 121.533 73.3893 121.344C73.8438 121.156 74.2568 120.88 74.6045 120.532C74.9522 120.184 75.2279 119.77 75.4158 119.316C75.6037 118.861 75.7001 118.373 75.6995 117.881Z" fill="black"/>
<path id="Vector_97" d="M56.6867 105.514H32.8081C32.2499 105.514 31.6972 105.403 31.1828 105.186C30.6683 104.969 30.2025 104.651 29.8128 104.252C29.4231 103.852 29.1175 103.378 28.9138 102.858C28.7102 102.338 28.6127 101.783 28.6271 101.225L29.2173 77.9456C29.2432 76.8545 29.6953 75.8168 30.4767 75.0547C31.2581 74.2926 32.3068 73.8668 33.3983 73.8683H53.1004C54.1 73.8665 55.0671 74.2233 55.8261 74.874C56.585 75.5246 57.0854 76.4258 57.2363 77.414L60.8181 100.711C60.9075 101.306 60.8676 101.913 60.7011 102.491C60.5346 103.069 60.2454 103.604 59.8532 104.06C59.4611 104.516 58.9752 104.882 58.4287 105.133C57.8822 105.384 57.288 105.514 56.6867 105.514Z" fill="#92E3A9" stroke="#263238" stroke-linecap="round" stroke-linejoin="round"/>
<path id="Vector_98" opacity="0.1" d="M56.6867 105.514H32.8081C32.2499 105.514 31.6972 105.403 31.1828 105.186C30.6683 104.969 30.2025 104.651 29.8128 104.252C29.4231 103.852 29.1175 103.378 28.9138 102.858C28.7102 102.338 28.6127 101.783 28.6271 101.225L29.2173 77.9456C29.2432 76.8545 29.6953 75.8168 30.4767 75.0547C31.2581 74.2926 32.3068 73.8668 33.3983 73.8683H53.1004C54.1 73.8665 55.0671 74.2233 55.8261 74.874C56.585 75.5246 57.0854 76.4258 57.2363 77.414L60.8181 100.711C60.9075 101.306 60.8676 101.913 60.7011 102.491C60.5346 103.069 60.2454 103.604 59.8532 104.06C59.4611 104.516 58.9752 104.882 58.4287 105.133C57.8822 105.384 57.288 105.514 56.6867 105.514Z" fill="black"/>
<path id="Vector_99" d="M48.8878 120.319L38.4172 127.212" stroke="#263238" stroke-linecap="round" stroke-linejoin="round"/>
<path id="Vector_100" d="M38.0209 126.153L36.2187 127.365C36.0776 127.461 35.9595 127.588 35.8729 127.735C35.7864 127.882 35.7334 128.047 35.7179 128.217C35.7024 128.387 35.7247 128.558 35.7833 128.719C35.8418 128.879 35.9351 129.025 36.0565 129.145L36.2097 129.289C36.4121 129.488 36.6812 129.605 36.9649 129.618C37.2486 129.63 37.5269 129.537 37.746 129.357L39.395 128.005C39.5174 127.904 39.6176 127.778 39.6892 127.636C39.7608 127.495 39.8024 127.34 39.8113 127.181C39.8201 127.022 39.7962 126.864 39.7408 126.715C39.6855 126.566 39.5999 126.43 39.4896 126.315C39.303 126.12 39.0534 125.997 38.7848 125.967C38.5161 125.937 38.2457 126.003 38.0209 126.153Z" fill="#263238" stroke="#263238" stroke-linecap="round" stroke-linejoin="round"/>
<path id="Vector_101" d="M50.5232 154.88H60.854C61.332 154.88 61.7904 155.07 62.1284 155.407C62.4663 155.745 62.6562 156.204 62.6562 156.682V156.921H50.5232V154.88Z" fill="#263238" stroke="#263238" stroke-linecap="round" stroke-linejoin="round"/>
<path id="Vector_102" d="M58.7951 93.5163C60.833 93.5163 62.485 92.5763 62.485 91.4167C62.485 90.2572 60.833 89.3172 58.7951 89.3172C56.7573 89.3172 55.1052 90.2572 55.1052 91.4167C55.1052 92.5763 56.7573 93.5163 58.7951 93.5163Z" fill="white" stroke="#263238" stroke-linecap="round" stroke-linejoin="round"/>
<path id="Vector_103" d="M69.0631 108.636C69.0631 108.636 75.0147 108.934 76.3573 112.06C76.6338 113.131 76.785 114.23 76.8078 115.336C76.8078 116.971 82.3134 148.527 82.4621 149.126C82.6108 149.725 85.8862 154.334 86.3322 155.375C86.7783 156.416 87.2333 157.313 87.2333 157.313C87.2333 157.313 88.5849 157.907 88.4272 158.353C88.2695 158.799 85.1518 158.948 83.8137 158.948C82.4756 158.948 80.9843 155.677 80.0923 155.375C79.2002 155.073 78.1549 154.024 78.1549 153.442C78.1549 152.861 78.6055 148.532 78.6055 148.532C78.0346 145 77.036 141.55 75.6319 138.259C73.6406 133.722 71.1626 127.095 70.8652 123.973C70.5679 120.85 70.5679 117.868 70.5679 117.868L66.8104 117.269C66.8104 117.269 66.3598 109.528 69.0631 108.636Z" fill="white" stroke="#263238" stroke-linecap="round" stroke-linejoin="round"/>
<path id="Vector_104" d="M81.1599 156.853C81.1599 156.853 82.3493 152.01 85.413 153.888L86.697 156.06C86.697 156.06 83.8316 156.06 82.9395 158.831C82.5039 158.672 82.1139 158.408 81.8036 158.063C81.4934 157.719 81.2724 157.303 81.1599 156.853Z" fill="#263238" stroke="#263238" stroke-linecap="round" stroke-linejoin="round"/>
<path id="Vector_105" d="M56.7453 99.5985L56.6011 99.6211C55.2495 94.1155 53.4248 88.4883 53.4248 88.4883C53.4248 88.4883 44.4726 90.8536 39.3094 89.2497C39.3094 89.2497 36.6828 102.185 36.6828 105.564C36.6828 108.267 36.1241 111.015 38.1695 112.601C38.3674 112.892 38.6216 113.141 38.9173 113.332C39.2129 113.523 39.5439 113.653 39.8906 113.714C45.4728 114.764 55.0918 114.399 56.6957 114.719C58.2996 115.038 66.8103 117.269 66.8103 117.269C66.8103 117.269 67.3194 112.574 68.7611 109.528C70.2028 106.483 76.7852 107.001 76.7852 107.001L56.7453 99.5985Z" fill="#263238" stroke="#263238" stroke-linecap="round" stroke-linejoin="round"/>
<path id="Vector_106" d="M54.6772 63.5284C54.6772 63.5284 53.4427 61.9786 52.1091 63.6861C50.7755 65.3936 51.8343 71.3227 52.4921 73.6926C53.1499 76.0624 64.2601 85.8932 65.3054 86.623C66.3506 87.3529 79.9704 90.4301 81.1598 89.8669C82.3493 89.3037 82.6917 86.4518 82.0159 84.911C81.3401 83.3701 68.6123 80.0992 68.6123 80.0992L54.6772 63.5284Z" fill="white"/>
<g id="Clip path group_6">
<mask id="mask5_9_2699" style="mask-type:luminance" maskUnits="userSpaceOnUse" x="51" y="62" width="32" height="28">
<g id="clip-path-6--inject-1">
<path id="Vector_107" d="M54.6772 63.5284C54.6772 63.5284 53.4427 61.9786 52.1091 63.6861C50.7755 65.3936 51.8343 71.3227 52.4921 73.6926C53.1499 76.0624 64.2601 85.8932 65.3054 86.623C66.3506 87.3529 79.9704 90.4301 81.1598 89.8669C82.3493 89.3037 82.6917 86.4518 82.0159 84.911C81.3401 83.3701 68.6123 80.0992 68.6123 80.0992L54.6772 63.5284Z" fill="white"/>
</g>
</mask>
<g mask="url(#mask5_9_2699)">
<g id="Group_6">
<g id="Vector_108" style="mix-blend-mode:multiply" opacity="0.5">
<path d="M65.3054 86.632C66.3507 87.3574 79.9705 90.4391 81.1599 89.8759C81.8447 89.5515 82.2457 88.4612 82.3358 87.3033C80.2318 86.4563 77.7358 85.8841 76.5779 85.9517C74.8974 86.0463 76.0237 87.6142 73.3295 87.1727C70.6353 86.7312 67.5626 85.3705 64.7693 83.7756C61.9759 82.1807 56.9614 77.4681 56.9614 77.4681L60.8946 77.9186L56.4118 76.5355L60.309 75.0712L56.9614 74.873C57.1759 74.3427 57.2757 73.7731 57.2543 73.2015C57.2543 72.0436 55.0467 67.7455 55.0467 67.7455L52.7039 74.1836C54.3393 77.1212 64.3187 85.9427 65.3054 86.632Z" fill="#92E3A9"/>
</g>
</g>
</g>
</g>
<path id="Vector_109" d="M54.6772 63.5284C54.6772 63.5284 53.4427 61.9786 52.1091 63.6861C50.7755 65.3936 51.8343 71.3227 52.4921 73.6926C53.1499 76.0624 64.2601 85.8932 65.3054 86.623C66.3506 87.3529 79.9704 90.4301 81.1598 89.8669C82.3493 89.3037 82.6917 86.4518 82.0159 84.911C81.3401 83.3701 68.6123 80.0992 68.6123 80.0992L54.6772 63.5284Z" stroke="#263238" stroke-linecap="round" stroke-linejoin="round"/>
<path id="Vector_110" d="M59.0521 75.9768L55.9929 77.1617L61.1381 78.8738" stroke="#263238" stroke-width="0.5" stroke-linecap="round" stroke-linejoin="round"/>
<path id="Vector_111" d="M81.1914 84.8974C80.7982 84.9781 80.4385 85.1756 80.1595 85.4643C79.8805 85.7529 79.6953 86.1191 79.6281 86.5149C79.3623 87.9251 80.7499 89.128 80.7499 89.128C80.7499 89.128 83.6739 90.1327 84.548 87.7764C85.422 85.4201 82.6061 84.8073 81.1914 84.8974Z" fill="white"/>
<g id="Clip path group_7">
<mask id="mask6_9_2699" style="mask-type:luminance" maskUnits="userSpaceOnUse" x="79" y="84" width="6" height="6">
<g id="clip-path-7--inject-1">
<path id="Vector_112" d="M81.1914 84.8974C80.7982 84.9781 80.4385 85.1756 80.1595 85.4643C79.8805 85.7529 79.6953 86.1191 79.6281 86.5149C79.3623 87.9251 80.7499 89.128 80.7499 89.128C80.7499 89.128 83.6739 90.1327 84.548 87.7764C85.422 85.4201 82.6061 84.8073 81.1914 84.8974Z" fill="white"/>
</g>
</mask>
<g mask="url(#mask6_9_2699)">
<g id="Group_7">
<g id="Vector_113" style="mix-blend-mode:multiply" opacity="0.5">
<path d="M80.7499 89.128C80.7499 89.128 83.2459 89.9795 84.3137 88.263C82.847 87.4466 81.2792 86.827 79.6506 86.4203C79.641 86.4513 79.6334 86.4829 79.6281 86.5149C79.3623 87.9251 80.7499 89.128 80.7499 89.128Z" fill="#92E3A9"/>
</g>
</g>
</g>
</g>
<path id="Vector_114" d="M81.1914 84.8974C80.7982 84.9781 80.4385 85.1756 80.1595 85.4643C79.8805 85.7529 79.6953 86.1191 79.6281 86.5149C79.3623 87.9251 80.7499 89.128 80.7499 89.128C80.7499 89.128 83.6739 90.1327 84.548 87.7764C85.422 85.4201 82.6061 84.8073 81.1914 84.8974Z" stroke="#263238" stroke-linecap="round" stroke-linejoin="round"/>
<path id="Vector_115" d="M89.8284 88.1549C90.6451 88.2859 91.3975 88.6779 91.9729 89.2722C92.8244 90.2319 92.1306 90.6238 91.5855 90.4841C91.0403 90.3445 89.2472 87.6953 89.8284 88.1549Z" fill="white" stroke="#263238" stroke-linecap="round" stroke-linejoin="round"/>
<path id="Vector_116" d="M89.2606 87.9791C90.0519 88.222 90.7428 88.7154 91.2295 89.3848C91.9414 90.4481 91.198 90.7364 90.6798 90.5292C90.1617 90.3219 88.747 87.443 89.2606 87.9791Z" fill="white" stroke="#263238" stroke-linecap="round" stroke-linejoin="round"/>
<path id="Vector_117" d="M84.1605 85.8796C84.1605 85.8796 82.8089 86.3752 82.6602 87.2312C82.6357 87.4985 82.6671 87.7679 82.7524 88.0223C82.8377 88.2767 82.9751 88.5106 83.1558 88.709C83.1558 88.709 84.5074 89.7903 85.021 89.9029C85.5346 90.0156 86.688 90.6733 86.8232 90.0471C86.9583 89.4208 85.5887 88.8667 85.5887 88.8667C85.5887 88.8667 88.2063 89.0244 88.2919 89.5515C88.3775 90.0786 89.3236 90.6238 90.1616 90.6373C90.9997 90.6508 89.9859 88.9568 89.7832 88.5333C89.5805 88.1098 85.8365 85.9111 84.1605 85.8796Z" fill="white" stroke="#263238" stroke-linecap="round" stroke-linejoin="round"/>
<path id="Vector_118" d="M41.2557 59.3249C41.2557 59.3249 33.0199 64.1141 32.3756 64.4295C31.7313 64.7448 31.0916 69.7008 31.0916 70.1693C31.0916 70.6379 39.3274 89.2496 39.3274 89.2496C39.3274 89.2496 41.3548 90.9662 47.2884 90.9662C53.222 90.9662 53.6816 90.0651 53.6816 90.0651L54.1546 82.2122C54.1546 82.2122 56.182 76.9049 56.3397 75.9678C56.4974 75.0306 54.6773 63.5284 54.6773 63.5284L46.2522 57.9102C46.2522 57.9102 42.8191 55.8918 41.2557 59.3249Z" fill="white"/>
<g id="Clip path group_8">
<mask id="mask7_9_2699" style="mask-type:luminance" maskUnits="userSpaceOnUse" x="31" y="57" width="26" height="34">
<g id="clip-path-8--inject-1">
<path id="Vector_119" d="M41.2557 59.3249C41.2557 59.3249 33.0199 64.1141 32.3756 64.4295C31.7313 64.7448 31.0916 69.7008 31.0916 70.1693C31.0916 70.6379 39.3274 89.2496 39.3274 89.2496C39.3274 89.2496 41.3548 90.9662 47.2884 90.9662C53.222 90.9662 53.6816 90.0651 53.6816 90.0651L54.1546 82.2122C54.1546 82.2122 56.182 76.9049 56.3397 75.9678C56.4974 75.0306 54.6773 63.5284 54.6773 63.5284L46.2522 57.9102C46.2522 57.9102 42.8191 55.8918 41.2557 59.3249Z" fill="white"/>
</g>
</mask>
<g mask="url(#mask7_9_2699)">
<g id="Group_8">
<g id="Vector_120" style="mix-blend-mode:multiply" opacity="0.5">
<path d="M33.2136 67.8355C33.8579 66.8038 39.7869 62.9382 39.7869 62.9382L41.9766 61.6496L44.7834 57.392C43.6571 57.1848 42.1523 57.356 41.2557 59.3249C41.2557 59.3249 33.0018 64.1141 32.3756 64.425C31.7493 64.7358 31.0916 69.6963 31.0916 70.1648C31.0916 70.2684 31.479 71.2236 32.0827 72.6608C32.317 70.5298 32.7631 68.5564 33.2136 67.8355Z" fill="#92E3A9"/>
</g>
</g>
</g>
</g>
<path id="Vector_121" d="M41.2557 59.3249C41.2557 59.3249 33.0199 64.1141 32.3756 64.4295C31.7313 64.7448 31.0916 69.7008 31.0916 70.1693C31.0916 70.6379 39.3274 89.2496 39.3274 89.2496C39.3274 89.2496 41.3548 90.9662 47.2884 90.9662C53.222 90.9662 53.6816 90.0651 53.6816 90.0651L54.1546 82.2122C54.1546 82.2122 56.182 76.9049 56.3397 75.9678C56.4974 75.0306 54.6773 63.5284 54.6773 63.5284L46.2522 57.9102C46.2522 57.9102 42.8191 55.8918 41.2557 59.3249Z" stroke="#263238" stroke-linecap="round" stroke-linejoin="round"/>
<g id="Vector_122">
<path d="M44.0176 66.7543L46.419 69.3449L45.9189 80.3605L49.4331 81.2887L49.8026 76.4769L51.0956 81.4734L53.6862 78.8828L48.086 69.1602L48.8249 66.2001L45.6801 62.6859L43.6482 67.4977" fill="#263238"/>
<path d="M44.0176 66.7543L46.419 69.3449L45.9189 80.3605L49.4331 81.2887L49.8026 76.4769L51.0956 81.4734L53.6862 78.8828L48.086 69.1602L48.8249 66.2001L45.6801 62.6859L43.6482 67.4977" stroke="#263238" stroke-linecap="round" stroke-linejoin="round"/>
</g>
<path id="Vector_123" d="M39.6472 59.3519C39.6472 59.3519 40.1608 62.7805 40.8457 64.3078C41.5305 65.8351 43.0758 68.4257 43.0758 68.4257L46.3332 65.1639L49.5951 67.4165C49.5951 67.4165 49.2527 61.7578 48.0498 59.1852C46.8468 56.6126 41.0169 54.0355 39.6472 59.3519Z" fill="white" stroke="#263238" stroke-linecap="round" stroke-linejoin="round"/>
<g id="Vector_124" style="mix-blend-mode:multiply" opacity="0.5">
<path d="M41.9765 61.6497L45.2339 56.6937C44.6393 56.4334 44.0032 56.2808 43.3552 56.2432C42.7965 56.3558 42.1657 56.4955 41.4989 56.6442C40.6835 57.0947 40.0076 57.9417 39.6472 59.3474C39.6472 59.3474 39.904 61.0775 40.3005 62.6318L41.9765 61.6497Z" fill="#92E3A9"/>
</g>
<path id="Vector_125" d="M47.7075 58.3202C47.2665 59.2915 47.0332 60.3442 47.0227 61.4109C47.0227 63.1229 47.3651 65.0152 47.3651 65.8712V68.4438C47.3651 68.4438 45.3061 65.8712 43.7608 63.9834C42.2154 62.0957 41.017 60.3791 41.1882 58.8383C41.3594 57.2974 42.9047 51.2873 42.9047 51.2873C43.721 51.2799 44.5231 51.5008 45.2205 51.9252C45.9179 52.3495 46.4828 52.9603 46.8515 53.6886C48.2211 56.2612 47.7075 58.3202 47.7075 58.3202Z" fill="white" stroke="#263238" stroke-linecap="round" stroke-linejoin="round"/>
<g id="Vector_126" style="mix-blend-mode:multiply" opacity="0.5">
<path d="M42.3641 55.3376L41.8505 55.5854C41.5351 56.937 41.2558 58.2301 41.1882 58.8383C41.0215 60.3251 42.1343 61.9921 43.5986 63.7942L43.7833 60.2485L47.7075 58.3337L44.5537 55.2205L42.3641 55.3376Z" fill="#92E3A9"/>
</g>
<path id="Vector_127" d="M51.0415 56.4775C51.0415 56.4775 49.9062 58.5815 51.1317 58.6671C52.3571 58.7527 52.0913 57.7029 52.267 57.356C52.4427 57.0091 53.2312 57.8066 52.7941 59.4555C52.3571 61.1045 50.1675 62.2579 48.8519 60.9423C47.5364 59.6267 47.8923 58.2391 48.3293 57.1803C48.7663 56.1215 50.5279 55.6034 51.0415 56.4775Z" fill="#263238" stroke="#263238" stroke-linecap="round" stroke-linejoin="round"/>
<path id="Vector_128" d="M48.5816 37.8792C48.1986 37.8252 47.7976 37.7846 47.3831 37.7621C45.8738 37.6855 44.2294 37.7846 43.0535 38.7262C40.6115 40.6816 41.0215 44.6103 41.1972 47.345C41.3955 50.4493 41.3549 54.9772 43.6842 57.2254C47.6174 61.0189 53.7673 56.9595 53.7673 52.4632C53.7673 50.5619 53.8394 47.6649 53.9655 47.0162C54.1298 46.2147 54.2426 45.4036 54.3034 44.5877C54.5737 40.4473 52.2264 38.3973 48.5816 37.8792Z" fill="white" stroke="#263238" stroke-linecap="round" stroke-linejoin="round"/>
<g id="Vector_129" style="mix-blend-mode:multiply" opacity="0.5">
<path d="M50.0321 58.0363C48.9316 58.0209 47.8332 57.9367 46.7432 57.784C45.0717 57.5272 42.7514 54.8195 43.9093 51.0845C45.0672 47.3495 45.0717 45.4122 45.0717 45.4122L41.1295 42.9478C41.0391 44.4132 41.0632 45.8834 41.2016 47.345C41.3998 50.4493 41.3592 54.9772 43.6885 57.2254C45.5988 59.0726 48.0317 59.0545 50.0321 58.0363Z" fill="#92E3A9"/>
</g>
<path id="Vector_130" d="M47.7976 49.8636C48.0439 49.8636 48.2436 49.5206 48.2436 49.0976C48.2436 48.6746 48.0439 48.3317 47.7976 48.3317C47.5513 48.3317 47.3516 48.6746 47.3516 49.0976C47.3516 49.5206 47.5513 49.8636 47.7976 49.8636Z" fill="#263238"/>
<path id="Vector_131" d="M52.1992 49.2869C52.1722 49.7104 51.9469 50.0393 51.7036 50.0213C51.4603 50.0032 51.2801 49.6518 51.3071 49.2283C51.3342 48.8048 51.5549 48.4759 51.8027 48.4939C52.0505 48.512 52.2262 48.8634 52.1992 49.2869Z" fill="#263238"/>
<g id="Vector_132">
<path d="M46.4143 47.264C46.4143 47.264 47.3154 45.3627 48.7616 46.2593L46.4143 47.264Z" fill="white"/>
<path d="M46.4143 47.264C46.4143 47.264 47.3154 45.3627 48.7616 46.2593" stroke="#263238" stroke-linecap="round" stroke-linejoin="round"/>
</g>
<g id="Vector_133">
<path d="M51.1089 46.5927C51.1089 46.5927 52.1767 45.3672 52.7849 47.3766L51.1089 46.5927Z" fill="white"/>
<path d="M51.1089 46.5927C51.1089 46.5927 52.1767 45.3672 52.7849 47.3766" stroke="#263238" stroke-linecap="round" stroke-linejoin="round"/>
</g>
<g id="Vector_134">
<path d="M50.4152 50.6205C50.4152 50.6971 50.4152 50.7737 50.4152 50.8412C50.5279 51.6252 51.0865 52.1929 50.8658 52.5172C50.645 52.8416 49.5142 52.9678 49.5142 52.9678" fill="white"/>
<path d="M50.4152 50.6205C50.4152 50.6971 50.4152 50.7737 50.4152 50.8412C50.5279 51.6252 51.0865 52.1929 50.8658 52.5172C50.645 52.8416 49.5142 52.9678 49.5142 52.9678" stroke="#263238" stroke-linecap="round" stroke-linejoin="round"/>
</g>
<g id="Vector_135">
<path d="M49.0951 54.7564C49.0951 54.7564 47.1262 55.3646 46.3918 53.7742L49.0951 54.7564Z" fill="white"/>
<path d="M49.0951 54.7564C49.0951 54.7564 47.1262 55.3646 46.3918 53.7742" stroke="#263238" stroke-linecap="round" stroke-linejoin="round"/>
</g>
<path id="Vector_136" d="M47.4146 50.9719C48.6936 50.9719 49.7304 49.9351 49.7304 48.6561C49.7304 47.3772 48.6936 46.3404 47.4146 46.3404C46.1357 46.3404 45.0989 47.3772 45.0989 48.6561C45.0989 49.9351 46.1357 50.9719 47.4146 50.9719Z" stroke="#263238" stroke-width="0.5" stroke-linecap="round" stroke-linejoin="round"/>
<path id="Vector_137" d="M52.6544 50.9719C53.8015 50.9719 54.7314 49.9351 54.7314 48.6561C54.7314 47.3772 53.8015 46.3404 52.6544 46.3404C51.5073 46.3404 50.5774 47.3772 50.5774 48.6561C50.5774 49.9351 51.5073 50.9719 52.6544 50.9719Z" stroke="#263238" stroke-width="0.5" stroke-linecap="round" stroke-linejoin="round"/>
<path id="Vector_138" d="M45.0989 48.6561L41.792 48.7958" stroke="#263238" stroke-width="0.5" stroke-linecap="round" stroke-linejoin="round"/>
<path id="Vector_139" d="M54.7313 48.6561H53.8843" stroke="#263238" stroke-width="0.5" stroke-linecap="round" stroke-linejoin="round"/>
<path id="Vector_140" d="M49.7258 47.9488H50.6855" stroke="#263238" stroke-width="0.5" stroke-linecap="round" stroke-linejoin="round"/>
<path id="Vector_141" d="M52.6679 35.1445C50.939 34.8426 49.1912 34.6619 47.4371 34.6038C47.4371 34.6038 44.369 33.1576 40.2285 34.784C34.3039 37.0998 34.4346 45.0113 35.9034 50.0528C36.3539 51.5756 37.4127 53.8869 36.4395 55.4142C35.8268 56.3784 34.0742 55.8647 34.34 54.5402C34.6058 53.2156 35.0383 53.6661 35.3897 53.4904C35.7412 53.3147 35.214 53.139 34.4256 52.8777C33.6371 52.6164 32.9478 53.3282 32.8487 55.0628C32.5874 59.7934 39.5572 62.9247 42.2154 58.7887C43.2967 56.9866 42.337 53.8553 41.8685 51.5801C41.7197 50.7925 41.6189 49.9966 41.5666 49.1968C42.4077 49.1162 43.1878 48.7221 43.7517 48.0929C44.1693 47.5206 44.5257 46.906 44.815 46.2593C45.1304 46.2593 45.4593 46.2818 45.8197 46.3178C49.424 46.6783 50.5143 40.5419 50.5143 40.5419C50.5143 40.5419 52.3165 43.9705 52.8571 45.2365L53.3978 46.498C53.3978 46.498 54.844 46.6782 56.2857 43.6101C57.7274 40.5419 56.0965 35.6986 52.6679 35.1445Z" fill="#263238" stroke="#263238" stroke-linecap="round" stroke-linejoin="round"/>
<path id="Vector_142" d="M50.3071 39.1002C50.3071 39.1002 54.7404 40.623 54.8756 43.2542C55.0108 45.8853 54.3214 46.0205 54.3214 46.0205" stroke="white" stroke-width="0.5" stroke-miterlimit="10" stroke-linecap="round"/>
<path id="Vector_143" d="M49.7573 38.1315C49.7573 38.1315 53.9068 37.1629 55.2944 39.9337" stroke="white" stroke-width="0.5" stroke-miterlimit="10" stroke-linecap="round"/>
<path id="Vector_144" d="M44.6347 35.3607C44.6347 35.3607 48.7842 37.4377 49.478 39.3795C50.1718 41.3213 46.572 45.0518 44.2157 45.7456C41.8594 46.4395 40.0663 45.606 38.4038 46.854C36.7413 48.102 37.4351 51.5576 37.4351 51.5576" stroke="white" stroke-width="0.5" stroke-miterlimit="10" stroke-linecap="round"/>
<path id="Vector_145" d="M36.1737 47.683C36.1737 47.683 35.0654 45.0518 37.4217 43.6687C39.7781 42.2855 41.8505 43.6687 44.4817 42.0062C47.1128 40.3437 47.5273 38.2712 47.5273 38.2712" stroke="white" stroke-width="0.5" stroke-miterlimit="10" stroke-linecap="round"/>
<g id="Vector_146">
<path d="M42.2694 50.0708C42.2694 50.0708 40.8142 46.5341 39.3545 47.7821C37.8947 49.0301 40.3952 52.3596 42.0577 51.9451" fill="white"/>
<path d="M42.2694 50.0708C42.2694 50.0708 40.8142 46.5341 39.3545 47.7821C37.8947 49.0301 40.3952 52.3596 42.0577 51.9451" stroke="#263238" stroke-linecap="round" stroke-linejoin="round"/>
</g>
<g id="Vector_147" opacity="0.37">
<path d="M42.2694 50.0708C42.2694 50.0708 40.8142 46.5341 39.3545 47.7821C37.8947 49.0301 40.3952 52.3596 42.0577 51.9451" fill="#92E3A9"/>
<path d="M42.2694 50.0708C42.2694 50.0708 40.8142 46.5341 39.3545 47.7821C37.8947 49.0301 40.3952 52.3596 42.0577 51.9451" stroke="#263238" stroke-linecap="round" stroke-linejoin="round"/>
</g>
<path id="Vector_148" d="M33.3803 64.7854C33.3803 64.7854 32.6729 64.2538 31.1005 65.4387C29.5282 66.6236 28.0639 72.0121 29.0461 74.2963C30.0283 76.5805 32.6504 88.4567 33.8713 89.1055C35.0923 89.7543 48.221 89.7002 49.7709 89.3353C51.3207 88.9703 52.402 86.9429 52.1407 85.1903C51.8794 83.4377 50.1493 82.9827 49.6402 82.9692C49.1311 82.9556 38.6741 82.3609 38.6741 82.3609L35.4257 68.6375" fill="white"/>
<g id="Clip path group_9">
<mask id="mask8_9_2699" style="mask-type:luminance" maskUnits="userSpaceOnUse" x="28" y="64" width="25" height="26">
<g id="clip-path-9--inject-1">
<path id="Vector_149" d="M33.3803 64.7854C33.3803 64.7854 32.6729 64.2538 31.1005 65.4387C29.5282 66.6236 28.0639 72.0121 29.0461 74.2963C30.0283 76.5805 32.6504 88.4567 33.8713 89.1055C35.0923 89.7543 48.221 89.7002 49.7709 89.3353C51.3207 88.9703 52.402 86.9429 52.1407 85.1903C51.8794 83.4377 50.1493 82.9827 49.6402 82.9692C49.1311 82.9556 38.6741 82.3609 38.6741 82.3609L35.4257 68.6375" fill="white"/>
</g>
</mask>
<g mask="url(#mask8_9_2699)">
<g id="Group_9">
<g id="Vector_150" style="mix-blend-mode:multiply" opacity="0.5">
<path d="M50.1854 86.3932C49.4375 85.4696 37.5342 87.0781 36.2637 86.3932C34.9932 85.7084 34.3805 84.4064 35.3086 83.5278C36.2367 82.6493 33.5334 82.451 33.556 81.6761C33.5785 80.9012 35.1284 80.6894 35.0292 79.6532C34.9301 78.6169 31.5826 78.4007 31.6637 75.4361C31.7448 72.4716 32.4882 68.8853 33.1595 67.8716C33.5312 67.4441 33.9585 67.0684 34.43 66.7543L33.3803 64.7809C33.3803 64.7809 32.6729 64.2493 31.1005 65.4342C29.5282 66.6191 28.0639 72.012 29.0461 74.2963C30.0283 76.5805 32.6504 88.4567 33.8713 89.1055C35.0923 89.7543 48.221 89.7002 49.7709 89.3353C50.2718 89.175 50.7272 88.8971 51.0987 88.5248C51.4702 88.1524 51.7472 87.6965 51.9064 87.1952C51.0729 86.9564 50.4061 86.6636 50.1854 86.3932Z" fill="#92E3A9"/>
</g>
</g>
</g>
</g>
<path id="Vector_151" d="M33.3803 64.7854C33.3803 64.7854 32.6729 64.2538 31.1005 65.4387C29.5282 66.6236 28.0639 72.0121 29.0461 74.2963C30.0283 76.5805 32.6504 88.4567 33.8713 89.1055C35.0923 89.7543 48.221 89.7002 49.7709 89.3353C51.3207 88.9703 52.402 86.9429 52.1407 85.1903C51.8794 83.4377 50.1493 82.9827 49.6402 82.9692C49.1311 82.9556 38.6741 82.3609 38.6741 82.3609L35.4257 68.6375" stroke="#263238" stroke-linecap="round" stroke-linejoin="round"/>
<path id="Vector_152" d="M34.6958 84.8929C35.4707 82.6132 38.6696 82.5682 38.6696 82.5682C37.3937 82.234 36.0598 82.1863 34.7634 82.4285" stroke="#263238" stroke-width="0.5" stroke-linecap="round" stroke-linejoin="round"/>
<path id="Vector_153" d="M51.5732 83.5368C51.0997 83.7395 50.6958 84.0759 50.4109 84.5049C50.1259 84.9339 49.9725 85.4367 49.9693 85.9517C49.9152 87.7989 51.1407 88.1413 51.4425 88.3531C51.7444 88.5648 53.5646 89.5425 54.2989 88.9433C55.0333 88.3441 55.8984 86.7312 55.2 85.3795C54.5017 84.0279 52.2895 83.5549 51.5732 83.5368Z" fill="white"/>
<g id="Clip path group_10">
<mask id="mask9_9_2699" style="mask-type:luminance" maskUnits="userSpaceOnUse" x="49" y="83" width="7" height="7">
<g id="clip-path-10--inject-1">
<path id="Vector_154" d="M51.5732 83.5368C51.0997 83.7395 50.6958 84.0759 50.4109 84.5049C50.1259 84.9339 49.9725 85.4367 49.9693 85.9517C49.9152 87.7989 51.1407 88.1413 51.4425 88.3531C51.7444 88.5648 53.5646 89.5425 54.2989 88.9433C55.0333 88.3441 55.8984 86.7312 55.2 85.3795C54.5017 84.0279 52.2895 83.5549 51.5732 83.5368Z" fill="white"/>
</g>
</mask>
<g mask="url(#mask9_9_2699)">
<g id="Group_10">
<g id="Vector_155" style="mix-blend-mode:multiply" opacity="0.5">
<path d="M54.299 88.9433C54.4861 88.7845 54.6526 88.6028 54.7946 88.4027L53.2628 87.5872C51.8571 87.1997 50.519 86.8033 50.1856 86.3933C50.1276 86.3321 50.0546 86.2871 49.9739 86.2626C50.0595 87.8395 51.1543 88.1549 51.4426 88.3531C51.731 88.5513 53.5647 89.5425 54.299 88.9433Z" fill="#92E3A9"/>
</g>
</g>
</g>
</g>
<path id="Vector_156" d="M51.5732 83.5368C51.0997 83.7395 50.6958 84.0759 50.4109 84.5049C50.1259 84.9339 49.9725 85.4367 49.9693 85.9517C49.9152 87.7989 51.1407 88.1413 51.4425 88.3531C51.7444 88.5648 53.5646 89.5425 54.2989 88.9433C55.0333 88.3441 55.8984 86.7312 55.2 85.3795C54.5017 84.0279 52.2895 83.5549 51.5732 83.5368Z" stroke="#263238" stroke-linecap="round" stroke-linejoin="round"/>
<path id="Vector_157" d="M54.1097 85.1903C54.1097 85.1903 52.9924 85.6183 52.8392 86.4608C52.686 87.3033 52.74 87.7584 52.9338 87.8124C53.1275 87.8665 53.7718 88.1594 53.7718 88.1594L55.7587 89.1911C55.7587 89.1911 57.3355 90.9933 57.8537 91.1374C58.3718 91.2816 57.9257 90.9437 57.8537 90.5517C57.6282 89.9903 57.3362 89.4578 56.9841 88.9658L59.3359 91.0473C59.3359 91.0473 60.1109 91.3267 59.9306 90.7365C59.7504 90.1462 58.5475 88.9343 58.5475 88.9343L60.7686 90.9482C60.7686 90.9482 61.2192 91.1554 61.2192 90.8941C61.2445 90.7632 61.2354 90.6279 61.1927 90.5016C61.1501 90.3752 61.0754 90.2621 60.9759 90.1733C60.7236 89.9705 59.2098 88.236 59.2098 88.236L61.3183 89.529C61.3183 89.529 61.7688 90.1282 62.0842 90.1372C62.3996 90.1462 62.2194 89.9435 61.9806 89.2362C61.7418 88.5288 60.1379 87.4926 59.5657 87.0871C58.9935 86.6816 55.8668 85.2399 54.1097 85.1903Z" fill="white" stroke="#263238" stroke-linecap="round" stroke-linejoin="round"/>
</g>
<g id="Desk--inject-1">
<path id="Vector_158" d="M154.913 84.6497H137.315L140.482 74.3774H158.081L154.913 84.6497Z" fill="#263238" stroke="#263238" stroke-linecap="round" stroke-linejoin="round"/>
<path id="Vector_159" d="M153.53 85.6183H135.937L139.104 75.3416H156.697L153.53 85.6183Z" fill="white" stroke="#263238" stroke-linecap="round" stroke-linejoin="round"/>
<path id="Vector_160" d="M128.246 81.55H157.243C157.959 81.55 158.647 81.8348 159.154 82.3417C159.661 82.8487 159.946 83.5362 159.946 84.2532V91.8132H128.246V81.55Z" fill="#263238" stroke="#263238" stroke-linecap="round" stroke-linejoin="round"/>
<path id="Vector_161" d="M154.756 81.55H123.042V91.8267H154.756V81.55Z" fill="white" stroke="#263238" stroke-linecap="round" stroke-linejoin="round"/>
<path id="Vector_162" d="M147.619 89.0695H122.285V90.4256H147.619V89.0695Z" fill="white" stroke="#263238" stroke-linecap="round" stroke-linejoin="round"/>
<path id="Vector_163" d="M147.619 87.7133H127.692V89.0694H147.619V87.7133Z" fill="#263238" stroke="#263238" stroke-linecap="round" stroke-linejoin="round"/>
<path id="Vector_164" d="M122.389 90.8266H102.398V91.7592H122.389V90.8266Z" fill="white" stroke="#263238" stroke-linecap="round" stroke-linejoin="round"/>
<path id="Vector_165" d="M137.761 57.8156H94.6716V85.6048H137.761V57.8156Z" fill="white" stroke="#263238" stroke-linecap="round" stroke-linejoin="round"/>
<path id="Vector_166" d="M137.761 57.8156H97.0234V85.6048H137.761V57.8156Z" fill="#263238" stroke="#263238" stroke-linecap="round" stroke-linejoin="round"/>
<path id="Vector_167" d="M122.853 70.728H113.423V92.1827H122.853V70.728Z" fill="white" stroke="#263238" stroke-linecap="round" stroke-linejoin="round"/>
<path id="Vector_168" d="M123.722 70.728H114.293V92.1827H123.722V70.728Z" fill="#263238" stroke="#263238" stroke-linecap="round" stroke-linejoin="round"/>
<path id="Vector_169" d="M113.667 70.9803H123.943V85.6724" stroke="white" stroke-linejoin="round"/>
<path id="Vector_170" d="M94.3743 90.3265H65.5083V91.8358H94.3743V90.3265Z" fill="white" stroke="#263238" stroke-linecap="round" stroke-linejoin="round"/>
<path id="Vector_171" d="M101.835 90.3265H72.9692V91.8358H101.835V90.3265Z" fill="white" stroke="#263238" stroke-linecap="round" stroke-linejoin="round"/>
<path id="Vector_172" d="M64.3954 94.3228H20.166L18.0665 158.957C18.055 159.136 18.0792 159.316 18.1377 159.485C18.1962 159.655 18.2879 159.811 18.4074 159.945C18.5269 160.078 18.6719 160.187 18.8338 160.264C18.9957 160.341 19.1714 160.386 19.3506 160.394C19.6819 160.385 19.9977 160.251 20.2354 160.02C20.4731 159.789 20.6156 159.477 20.6346 159.146L24.8562 106.33C24.9097 105.388 25.314 104.5 25.9895 103.841C26.6649 103.182 27.5625 102.8 28.5055 102.77H56.056C56.9985 102.8 57.8956 103.183 58.5703 103.841C59.245 104.5 59.6483 105.388 59.7008 106.33L63.9269 159.137C63.9458 159.467 64.0876 159.779 64.3244 160.01C64.5612 160.241 64.8758 160.375 65.2064 160.385C65.3856 160.377 65.5613 160.334 65.7235 160.257C65.8856 160.18 66.0309 160.072 66.1508 159.939C66.2707 159.805 66.3629 159.65 66.422 159.48C66.4811 159.311 66.5059 159.132 66.4949 158.953L64.3954 94.3228Z" fill="#92E3A9" stroke="#263238" stroke-linecap="round" stroke-linejoin="round"/>
<path id="Vector_173" d="M64.4945 97.2963L64.3954 94.3228H49.9286H34.6328H20.166L20.0669 97.2963H64.4945Z" fill="#263238" stroke="#263238" stroke-linecap="round" stroke-linejoin="round"/>
<path id="Vector_174" d="M165.118 94.3228H120.875L118.78 158.957C118.769 159.136 118.794 159.315 118.853 159.484C118.911 159.653 119.003 159.808 119.123 159.942C119.242 160.075 119.387 160.183 119.548 160.26C119.71 160.337 119.885 160.381 120.064 160.39C120.395 160.379 120.709 160.245 120.946 160.014C121.183 159.783 121.325 159.472 121.344 159.142L125.579 106.33C125.632 105.388 126.037 104.5 126.712 103.841C127.387 103.182 128.285 102.8 129.228 102.77H156.779C157.721 102.8 158.618 103.183 159.293 103.841C159.968 104.5 160.371 105.388 160.423 106.33L164.649 159.137C164.666 159.469 164.807 159.782 165.044 160.015C165.281 160.248 165.597 160.383 165.929 160.394C166.108 160.386 166.283 160.342 166.445 160.265C166.606 160.188 166.751 160.08 166.87 159.946C166.99 159.813 167.082 159.657 167.141 159.488C167.199 159.319 167.224 159.14 167.213 158.962L165.118 94.3228Z" fill="#92E3A9" stroke="#263238" stroke-linecap="round" stroke-linejoin="round"/>
<path id="Vector_175" d="M165.411 97.2963L165.316 94.3228H150.849H135.549H121.082L120.988 97.2963H165.411Z" fill="#263238" stroke="#263238" stroke-linecap="round" stroke-linejoin="round"/>
<path id="Vector_176" d="M168.033 91.8268H16.5798V95.2328H168.033V91.8268Z" fill="white" stroke="#263238" stroke-linecap="round" stroke-linejoin="round"/>
<path id="Vector_177" d="M168.037 91.8268H59.4846V95.2328H168.037V91.8268Z" fill="white" stroke="#263238" stroke-linecap="round" stroke-linejoin="round"/>
</g>
</g>
</svg>
