<svg width="225" height="188" viewBox="0 0 225 188" fill="none" xmlns="http://www.w3.org/2000/svg">
<g id="business-support/rafiki">
<g id="background-complete">
<path id="Vector" d="M49.1877 53.6791H43.3118C43.0251 53.6792 42.75 53.5666 42.5456 53.3656C42.3412 53.1646 42.2241 52.8913 42.2193 52.6047V46.7827C42.2193 45.7127 41.9676 44.7102 41.2303 44.2426C41.0769 44.1549 40.9043 44.1061 40.7277 44.1007C40.5511 44.0953 40.3758 44.1333 40.2174 44.2114C40.0589 44.2895 39.922 44.4054 39.8188 44.5488C39.7155 44.6922 39.6491 44.8588 39.6253 45.0339C39.3511 46.7557 38.5463 50.2534 36.2985 52.4293C35.5482 53.2691 35.1128 54.3433 35.0667 55.4684V65.8445C35.0667 66.8606 36.8649 67.6833 39.0229 67.6833H47.9244C48.3341 67.6833 48.7398 67.6026 49.1184 67.4458C49.4969 67.289 49.8409 67.0592 50.1306 66.7695C50.4203 66.4797 50.6501 66.1358 50.8069 65.7573C50.9637 65.3787 51.0444 64.973 51.0444 64.5633V63.2146C51.0668 62.2294 51.3258 61.2642 51.7997 60.4002C52.1315 59.763 52.3042 59.0551 52.3032 58.3367V56.7947C52.302 55.9688 51.9734 55.177 51.3894 54.593C50.8054 54.009 50.0136 53.6803 49.1877 53.6791Z" fill="#EBEBEB"/>
<path id="Vector_2" d="M33.9022 54.0568H30.1033V66.91H33.9022V54.0568Z" fill="#EBEBEB"/>
<path id="Vector_3" d="M171.768 91.2094L175.054 82.1865C176.277 82.6324 177.397 83.3222 178.345 84.2141C179.293 85.1059 180.05 86.1811 180.57 87.3745L171.768 91.2094Z" fill="#F5F5F5"/>
<path id="Vector_4" d="M171.768 91.2094L174.569 100.394C173.248 100.797 171.856 100.911 170.487 100.727C169.118 100.543 167.806 100.066 166.638 99.3285C165.471 98.5911 164.476 97.6105 163.722 96.4537C162.967 95.2969 162.472 93.9911 162.268 92.6253C162.064 91.2595 162.158 89.8658 162.542 88.5394C162.926 87.2129 163.591 85.9849 164.493 84.939C165.395 83.8931 166.511 83.054 167.767 82.4789C169.022 81.9038 170.387 81.6062 171.768 81.6065C172.873 81.6056 173.969 81.7957 175.009 82.1685L171.768 91.2094Z" fill="#E0E0E0"/>
<path id="Vector_5" d="M171.768 91.2094L180.588 87.415C181.121 88.6521 181.387 89.9874 181.37 91.3342C181.352 92.6809 181.051 94.0089 180.487 95.2318C179.923 96.4547 179.107 97.5452 178.094 98.4322C177.08 99.3193 175.891 99.9832 174.605 100.381L171.768 91.2094Z" fill="#EBEBEB"/>
<path id="Vector_6" d="M70.2544 97.7506C69.1713 99.3991 68.4087 101.237 68.0066 103.168L64.981 103.456V109.3L68.0066 109.583C68.4078 111.516 69.1705 113.356 70.2544 115.005L68.3348 117.343L72.4798 121.488L74.8131 119.555C76.4627 120.639 78.3022 121.401 80.2349 121.803L80.5182 124.828H86.3626L86.6503 121.803C88.5813 121.401 90.4192 120.638 92.0676 119.555L94.4054 121.488L98.5505 117.343L96.6173 115.01C97.7034 113.361 98.4662 111.521 98.8652 109.588L101.895 109.305V103.46L98.8652 103.172C98.4653 101.241 97.7026 99.4024 96.6173 97.7551L98.5505 95.4174L94.4099 91.2678L92.0721 93.201C90.4248 92.1157 88.5865 91.3529 86.6548 90.9531L86.3671 87.923H80.5226L80.2394 90.9531C78.306 91.3521 76.4661 92.1149 74.8176 93.201L72.4843 91.2678L68.3348 95.4129L70.2544 97.7506ZM88.9296 100.898C90.0159 101.984 90.7557 103.368 91.0553 104.875C91.3549 106.382 91.201 107.944 90.613 109.364C90.0249 110.783 89.0292 111.996 87.7517 112.85C86.4742 113.703 84.9723 114.159 83.4359 114.159C81.8995 114.159 80.3975 113.703 79.12 112.85C77.8425 111.996 76.8468 110.783 76.2588 109.364C75.6707 107.944 75.5168 106.382 75.8164 104.875C76.1161 103.368 76.8558 101.984 77.9421 100.898C78.6632 100.176 79.5194 99.6031 80.4619 99.2122C81.4044 98.8213 82.4146 98.6199 83.4349 98.6195C84.4552 98.6191 85.4657 98.8196 86.4084 99.2098C87.3512 99.5999 88.2079 100.172 88.9296 100.893V100.898Z" fill="#F0F0F0"/>
<path id="Vector_7" d="M62.0409 17.9292C60.2869 20.6054 59.0544 23.589 58.4083 26.7228L53.499 27.1724V36.6853L58.4128 37.1349C59.0521 40.2785 60.2833 43.2719 62.0409 45.9555L58.8939 49.7454L65.6375 56.489L69.4273 53.342C72.1064 55.0918 75.0912 56.3211 78.2255 56.9655L78.675 61.8748H88.188L88.6375 56.9655C91.7714 56.3194 94.755 55.087 97.4312 53.333L101.221 56.48L107.965 49.7364L104.818 45.9465C106.568 43.2691 107.799 40.2859 108.446 37.1529L113.355 36.7033V27.1859L108.446 26.7363C107.798 23.6029 106.566 20.6197 104.813 17.9427L107.96 14.1528L101.217 7.40923L97.4267 10.5562C94.7505 8.80223 91.7669 7.56976 88.633 6.92369L88.1835 2.01437H78.675L78.2255 6.92369C75.0921 7.57141 72.1088 8.80376 69.4318 10.5562L65.6419 7.40923L58.8984 14.1528L62.0409 17.9292ZM92.3465 23.0273C94.103 24.7894 95.298 27.0324 95.7805 29.4732C96.263 31.9139 96.0114 34.4429 95.0575 36.7408C94.1036 39.0386 92.4901 41.0023 90.4209 42.3837C88.3517 43.7652 85.9195 44.5025 83.4315 44.5025C80.9435 44.5025 78.5113 43.7652 76.4421 42.3837C74.3728 41.0023 72.7594 39.0386 71.8055 36.7408C70.8516 34.4429 70.6 31.9139 71.0825 29.4732C71.565 27.0324 72.76 24.7894 74.5165 23.0273C75.686 21.8536 77.0757 20.9223 78.6059 20.2868C80.1362 19.6513 81.7768 19.3242 83.4337 19.3242C85.0907 19.3242 86.7313 19.6513 88.2616 20.2868C89.7918 20.9223 91.1815 21.8536 92.351 23.0273H92.3465Z" fill="#F5F5F5"/>
<path id="Vector_8" d="M130.241 49.4037C128.941 51.3787 128.026 53.5812 127.543 55.8955L123.92 56.2372V63.255L127.543 63.5967C128.026 65.9098 128.941 68.111 130.241 70.084L127.926 72.8803L132.871 77.8256L135.667 75.5103C137.64 76.8115 139.841 77.7268 142.155 78.2077L142.514 81.8268H149.532L149.874 78.2033C152.189 77.7224 154.391 76.8071 156.365 75.5058L159.162 77.8211L164.107 72.8758L161.792 70.0795C163.084 68.1049 163.992 65.9038 164.467 63.5922L168.09 63.2505V56.2372L164.467 55.8955C163.982 53.5818 163.067 51.3797 161.769 49.4037L164.085 46.6119L159.139 41.6666L156.343 43.9819C154.369 42.6806 152.166 41.7652 149.851 41.2844L149.51 37.6609H142.514L142.173 41.2844C139.86 41.7671 137.659 42.6823 135.685 43.9819L132.889 41.6711L127.944 46.6164L130.241 49.4037ZM152.603 53.1666C153.903 54.4675 154.789 56.1249 155.148 57.9292C155.507 59.7335 155.323 61.6038 154.619 63.3035C153.915 65.0031 152.723 66.4558 151.193 67.4779C149.663 68.5 147.865 69.0455 146.025 69.0455C144.186 69.0455 142.387 68.5 140.858 67.4779C139.328 66.4558 138.136 65.0031 137.432 63.3035C136.728 61.6038 136.544 59.7335 136.902 57.9292C137.261 56.1249 138.147 54.4675 139.448 53.1666C141.193 51.4222 143.558 50.4422 146.025 50.4422C148.492 50.4422 150.858 51.4222 152.603 53.1666Z" fill="#F0F0F0"/>
<path id="Vector_9" d="M45.0605 86.0483C44.4107 87.0537 43.9533 88.1711 43.7118 89.3437L41.873 89.5145V93.0661L43.7118 93.2414C43.9521 94.4129 44.4096 95.5291 45.0605 96.5323L43.8871 97.9484L46.4047 100.466L47.8254 99.2927C48.827 99.9467 49.9437 100.404 51.1162 100.641L51.2871 102.48H54.8477L55.023 100.641C56.1951 100.403 57.3116 99.9454 58.3139 99.2927L59.73 100.466L62.2476 97.9484L61.0742 96.5323C61.727 95.53 62.1846 94.4135 62.423 93.2414L64.2887 93.0661V89.5145L62.4499 89.3437C62.2124 88.1699 61.7548 87.0518 61.1012 86.0483L62.2746 84.6321L59.757 82.1145L58.3409 83.2879C57.3386 82.6352 56.2221 82.1776 55.05 81.9392L54.8747 80.1005H51.314L51.1432 81.9392C49.9707 82.1762 48.854 82.6339 47.8523 83.2879L46.4317 82.1145L43.9141 84.6321L45.0605 86.0483ZM56.4032 87.959C57.0624 88.6186 57.5113 89.459 57.693 90.3737C57.8747 91.2884 57.7811 92.2365 57.4241 93.098C57.0671 93.9596 56.4626 94.696 55.6871 95.214C54.9117 95.7321 54 96.0086 53.0674 96.0086C52.1348 96.0086 51.2231 95.7321 50.4476 95.214C49.6722 94.696 49.0677 93.9596 48.7107 93.098C48.3536 92.2365 48.26 91.2884 48.4418 90.3737C48.6235 89.459 49.0723 88.6186 49.7316 87.959C50.1695 87.5207 50.6895 87.1731 51.2619 86.9359C51.8343 86.6987 52.4478 86.5766 53.0674 86.5766C53.687 86.5766 54.3005 86.6987 54.8728 86.9359C55.4452 87.1731 55.9652 87.5207 56.4032 87.959Z" fill="#E0E0E0"/>
<path id="Vector_10" d="M171.826 32.7246C171.174 33.7271 170.716 34.8436 170.477 36.0155L168.639 36.1908V39.7469L170.477 39.9223C170.716 41.0942 171.174 42.2106 171.826 43.2131L170.648 44.6338L173.166 47.1514L174.587 45.9735C175.589 46.6258 176.705 47.0833 177.877 47.3222L178.053 49.161H181.627L181.802 47.3267C182.974 47.0878 184.09 46.6302 185.093 45.978L186.514 47.1559L189.031 44.6383L187.853 43.2176C188.506 42.2151 188.963 41.0987 189.202 39.9268L191.036 39.7514V36.1953L189.198 36.02C188.959 34.8481 188.501 33.7316 187.849 32.7291L189.027 31.3085L186.509 28.7909L185.089 29.9687C184.086 29.3165 182.97 28.8589 181.798 28.62L181.622 26.7813H178.066L177.891 28.62C176.719 28.8589 175.603 29.3165 174.6 29.9687L173.166 28.7774L170.648 31.295L171.826 32.7246ZM183.169 34.6218C183.829 35.282 184.278 36.1231 184.461 37.0388C184.643 37.9545 184.549 38.9036 184.192 39.7661C183.835 40.6286 183.23 41.3659 182.453 41.8845C181.677 42.4032 180.764 42.68 179.831 42.68C178.897 42.68 177.985 42.4032 177.208 41.8845C176.432 41.3659 175.827 40.6286 175.47 39.7661C175.112 38.9036 175.019 37.9545 175.201 37.0388C175.383 36.1231 175.833 35.282 176.493 34.6218C177.379 33.7386 178.579 33.2428 179.831 33.2428C181.082 33.2428 182.282 33.7386 183.169 34.6218Z" fill="#E0E0E0"/>
<path id="Vector_11" d="M176.538 64.3565C176.134 64.9721 175.85 65.6585 175.702 66.3795L174.573 66.4829V68.6679L175.702 68.7758C175.85 69.4954 176.134 70.1803 176.538 70.7943L175.814 71.6665L177.361 73.2085L178.228 72.4892C178.845 72.8912 179.531 73.1748 180.251 73.3254L180.355 74.4494H182.526L182.634 73.3254C183.353 73.1747 184.038 72.8911 184.653 72.4892L185.525 73.2085L187.067 71.6665L186.348 70.7943C186.749 70.1794 187.033 69.4948 187.184 68.7758L188.308 68.6679V66.4829L187.179 66.3795C187.029 65.6591 186.745 64.973 186.343 64.3565L187.062 63.4888L185.52 61.9423L184.648 62.6661C184.034 62.2624 183.349 61.9786 182.63 61.8299L182.526 60.697H180.341L180.238 61.8254C179.518 61.9733 178.833 62.2571 178.219 62.6616L177.347 61.9378L175.801 63.4843L176.538 64.3565ZM183.497 65.5299C183.902 65.9348 184.178 66.4507 184.289 67.0123C184.401 67.5739 184.343 68.1559 184.124 68.6849C183.905 69.2138 183.534 69.6659 183.058 69.984C182.582 70.302 182.022 70.4718 181.449 70.4718C180.877 70.4718 180.317 70.302 179.841 69.984C179.365 69.6659 178.994 69.2138 178.775 68.6849C178.556 68.1559 178.498 67.5739 178.61 67.0123C178.721 66.4507 178.997 65.9348 179.402 65.5299C179.945 64.9877 180.682 64.6832 181.449 64.6832C182.217 64.6832 182.954 64.9877 183.497 65.5299Z" fill="#F0F0F0"/>
<path id="Vector_12" d="M39.4948 119.505H32.5579V137.749H39.4948V119.505Z" fill="#E0E0E0"/>
<path id="Vector_13" d="M48.14 125.305H41.2031V137.749H48.14V125.305Z" fill="#E0E0E0"/>
<path id="Vector_14" d="M56.5382 131.527H49.6013V137.749H56.5382V131.527Z" fill="#E0E0E0"/>
<path id="Vector_15" d="M199.574 125.076H118.314C117.615 125.074 116.946 124.796 116.452 124.303C115.958 123.809 115.68 123.139 115.679 122.441V4.07791C115.68 3.37957 115.958 2.71016 116.452 2.21636C116.946 1.72255 117.615 1.44461 118.314 1.44342H199.574C200.272 1.44461 200.941 1.72255 201.435 2.21636C201.929 2.71016 202.207 3.37957 202.208 4.07791V122.441C202.207 123.139 201.929 123.809 201.435 124.303C200.941 124.796 200.272 125.074 199.574 125.076ZM118.314 1.55581C117.645 1.557 117.004 1.8231 116.532 2.29583C116.059 2.76856 115.793 3.40937 115.792 4.07791V122.441C115.793 123.11 116.059 123.75 116.532 124.223C117.004 124.696 117.645 124.962 118.314 124.963H199.574C200.243 124.963 200.884 124.697 201.357 124.224C201.83 123.752 202.096 123.11 202.096 122.441V4.07791C202.096 3.40901 201.83 2.7675 201.357 2.29452C200.884 1.82153 200.243 1.55581 199.574 1.55581H118.314Z" fill="#E0E0E0"/>
<path id="Vector_16" d="M105.87 125.076H24.6141C23.915 125.076 23.2444 124.798 22.7496 124.304C22.2548 123.81 21.9763 123.14 21.9751 122.441V4.07791C21.9763 3.37879 22.2548 2.7087 22.7496 2.21477C23.2444 1.72084 23.915 1.44342 24.6141 1.44342H105.87C106.568 1.44342 107.238 1.72098 107.733 2.21504C108.227 2.70911 108.504 3.3792 108.504 4.07791V122.441C108.504 123.14 108.227 123.81 107.733 124.304C107.238 124.798 106.568 125.076 105.87 125.076ZM24.6141 1.55581C23.9448 1.55581 23.3028 1.82139 22.8291 2.29424C22.3554 2.7671 22.0887 3.4086 22.0875 4.07791V122.441C22.0851 122.774 22.1487 123.105 22.2746 123.414C22.4005 123.722 22.5863 124.003 22.8211 124.239C23.056 124.476 23.3353 124.664 23.643 124.792C23.9507 124.92 24.2808 124.986 24.6141 124.986H105.87C106.201 124.986 106.529 124.92 106.835 124.794C107.141 124.667 107.419 124.481 107.653 124.247C107.887 124.013 108.073 123.735 108.2 123.429C108.326 123.123 108.392 122.795 108.392 122.464V4.07791C108.392 3.7467 108.326 3.41874 108.2 3.11275C108.073 2.80675 107.887 2.52872 107.653 2.29452C107.419 2.06032 107.141 1.87454 106.835 1.7478C106.529 1.62105 106.201 1.55581 105.87 1.55581H24.6141Z" fill="#E0E0E0"/>
<path id="Vector_17" d="M224.786 152.531H0V152.643H224.786V152.531Z" fill="#E0E0E0"/>
<path id="Vector_18" d="M36.685 161.725H29.4648V161.837H36.685V161.725Z" fill="#E0E0E0"/>
<path id="Vector_19" d="M106.886 160.506H82.8201V160.619H106.886V160.506Z" fill="#E0E0E0"/>
<path id="Vector_20" d="M53.4315 165.901H37.1345V166.014H53.4315V165.901Z" fill="#E0E0E0"/>
<path id="Vector_21" d="M195.748 160.448H176.331V160.56H195.748V160.448Z" fill="#E0E0E0"/>
<path id="Vector_22" d="M202.599 160.448H199.754V160.56H202.599V160.448Z" fill="#E0E0E0"/>
<path id="Vector_23" d="M172.622 163.249H148.395V163.361H172.622V163.249Z" fill="#E0E0E0"/>
</g>
<g id="Shadow">
<path id="Vector_24" d="M204.299 185.826C204.299 187.009 163.15 187.971 112.393 187.971C61.6363 187.971 20.4871 187.027 20.4871 185.826C20.4871 184.626 61.6363 183.677 112.393 183.677C163.15 183.677 204.299 184.639 204.299 185.826Z" fill="#F5F5F5"/>
</g>
<g id="Plant">
<path id="Vector_25" d="M169.336 171.8C168.869 171.131 168.296 170.544 167.641 170.06C167.373 169.84 167.054 169.692 166.714 169.629C166.373 169.566 166.022 169.591 165.694 169.7C164.876 170.033 164.503 171.049 164.615 171.912C164.763 172.874 165.114 173.794 165.645 174.609C167.767 177.72 169.731 180.566 173.009 182.877C173.009 179.029 171.287 175.095 169.336 171.8Z" fill="#244A4A"/>
<path id="Vector_26" d="M180.148 172.339C179.415 171.934 178.048 172.505 177.378 173.004C176.148 173.929 175.143 175.12 174.438 176.489C173.409 178.327 173.292 180.903 173.161 182.544C175.755 180.436 178.399 178.278 180.179 175.446C180.518 174.969 180.742 174.419 180.831 173.841C180.871 173.551 180.827 173.257 180.706 172.991C180.585 172.725 180.392 172.499 180.148 172.339Z" fill="#244A4A"/>
<path id="Vector_27" d="M173.395 184.491C173.37 184.49 173.345 184.481 173.325 184.465C173.306 184.449 173.292 184.426 173.287 184.401C172.676 181.563 171.579 178.851 170.046 176.385C170.03 176.359 170.026 176.329 170.032 176.299C170.039 176.27 170.057 176.244 170.082 176.228C170.108 176.213 170.139 176.209 170.169 176.216C170.198 176.224 170.223 176.242 170.239 176.268C171.785 178.758 172.89 181.496 173.507 184.361C173.513 184.39 173.507 184.42 173.491 184.445C173.476 184.47 173.451 184.488 173.422 184.495L173.395 184.491Z" fill="#263238"/>
<path id="Vector_28" d="M173.053 182.904H173.017C172.989 182.894 172.967 182.873 172.954 182.846C172.941 182.819 172.94 182.788 172.95 182.76C173.643 180.85 174.662 179.075 175.962 177.514C175.972 177.502 175.983 177.493 175.996 177.486C176.01 177.479 176.024 177.474 176.039 177.473C176.054 177.471 176.068 177.473 176.083 177.477C176.097 177.481 176.11 177.488 176.122 177.498C176.133 177.507 176.143 177.519 176.15 177.532C176.157 177.545 176.161 177.56 176.163 177.574C176.164 177.589 176.163 177.604 176.158 177.618C176.154 177.633 176.147 177.646 176.138 177.657C174.852 179.198 173.845 180.95 173.161 182.837C173.152 182.857 173.137 182.875 173.118 182.887C173.099 182.899 173.076 182.905 173.053 182.904Z" fill="#263238"/>
</g>
<g id="Arrow">
<path id="Vector_29" d="M191.189 113.854L181.2 113.099L185.03 117.595L170.455 129.153L146.043 129.099L108.392 149.604H40.893L15.5776 184.693H35.1924L49.0977 165.645H108.392L146.003 145.724L176.232 145.792L195.82 130.25L199.511 134.58L200.343 124.595L201.179 114.61L191.189 113.854Z" fill="#244A4A"/>
</g>
<g id="speech-bubble">
<path id="Vector_30" d="M147.841 19.9495C151.719 16.6866 152.217 10.8983 148.954 7.0208C145.692 3.14332 139.903 2.64504 136.026 5.90786C132.148 9.17069 131.65 14.9591 134.913 18.8365C138.176 22.714 143.964 23.2123 147.841 19.9495Z" fill="#244A4A"/>
<path id="Vector_31" d="M137.326 18.4417L134.97 18.6305L134.561 21.5797L137.407 20.8784L137.326 18.4417Z" fill="#244A4A"/>
<path id="Vector_32" d="M152.126 11.3115C152.099 11.3116 152.072 11.3015 152.052 11.2832C152.032 11.2648 152.02 11.2396 152.018 11.2126C151.845 9.74524 151.314 8.34283 150.472 7.12859C149.63 5.91436 148.503 4.92545 147.189 4.24875C147.163 4.23442 147.144 4.21059 147.134 4.18217C147.125 4.15374 147.127 4.12287 147.14 4.0959C147.154 4.07 147.177 4.05037 147.204 4.04114C147.232 4.03191 147.262 4.03381 147.288 4.04644C148.635 4.7407 149.79 5.75532 150.653 7.00102C151.515 8.24672 152.058 9.6853 152.234 11.1901C152.236 11.2047 152.234 11.2194 152.23 11.2335C152.226 11.2476 152.22 11.2607 152.21 11.2721C152.201 11.2834 152.19 11.2928 152.177 11.2996C152.164 11.3064 152.149 11.3104 152.135 11.3115H152.126Z" fill="#244A4A"/>
<path id="Vector_33" d="M152.184 14.0359H152.162C152.147 14.0327 152.134 14.0267 152.121 14.0182C152.109 14.0097 152.099 13.9988 152.091 13.9863C152.083 13.9737 152.078 13.9598 152.075 13.9451C152.073 13.9305 152.073 13.9155 152.076 13.901C152.178 13.4721 152.19 13.0267 152.112 12.5928C152.107 12.5636 152.114 12.5335 152.13 12.5091C152.147 12.4847 152.173 12.4679 152.202 12.4624C152.217 12.4592 152.232 12.459 152.246 12.4618C152.261 12.4646 152.275 12.4704 152.287 12.4789C152.299 12.4873 152.31 12.4982 152.317 12.5108C152.325 12.5235 152.33 12.5376 152.333 12.5523C152.417 13.0159 152.405 13.4919 152.297 13.9505C152.29 13.975 152.275 13.9967 152.255 14.0121C152.234 14.0275 152.21 14.0359 152.184 14.0359Z" fill="#244A4A"/>
<path id="Vector_34" d="M138.513 10.6776C138.234 11.1051 138.037 11.5808 137.933 12.0803L137.151 12.1567V13.6763L137.933 13.7482C138.037 14.2491 138.234 14.7263 138.513 15.1554L138.018 15.7398L139.093 16.8143L139.695 16.3153C140.124 16.594 140.601 16.7907 141.102 16.8952L141.174 17.6775H142.694L142.77 16.8952C143.27 16.7907 143.745 16.594 144.173 16.3153L144.762 16.8323L145.85 15.7398L145.346 15.1554C145.629 14.7282 145.826 14.2503 145.926 13.7482L146.713 13.6763V12.1432L145.926 12.0668C145.826 11.5661 145.629 11.0897 145.346 10.6641L145.85 10.0572L144.762 8.99623L144.155 9.49526C143.727 9.21652 143.252 9.01985 142.752 8.91531L142.676 8.13306H141.165L141.093 8.91531C140.592 9.01982 140.115 9.21647 139.686 9.49526L139.088 8.99623L138.018 10.0707L138.513 10.6776ZM143.386 11.4599C143.673 11.7474 143.868 12.1135 143.947 12.5119C144.026 12.9103 143.985 13.3232 143.83 13.6984C143.674 14.0735 143.411 14.3941 143.073 14.6197C142.735 14.8452 142.338 14.9656 141.932 14.9656C141.526 14.9656 141.129 14.8452 140.791 14.6197C140.453 14.3941 140.19 14.0735 140.034 13.6984C139.878 13.3232 139.838 12.9103 139.916 12.5119C139.995 12.1135 140.191 11.7474 140.477 11.4599C140.668 11.2686 140.895 11.1169 141.145 11.0134C141.394 10.9098 141.662 10.8565 141.932 10.8565C142.202 10.8565 142.47 10.9098 142.719 11.0134C142.969 11.1169 143.195 11.2686 143.386 11.4599Z" fill="white"/>
</g>
<g id="Character">
<path id="Vector_35" d="M80.9856 67.6384C80.9856 67.6384 83.3953 64.0418 86.4209 64.7881C89.4465 65.5344 89.6264 70.4707 89.6264 70.4707L87.9495 69.8907C87.9495 69.8907 88.4979 66.3166 86.3445 65.8086C84.191 65.3006 82.177 68.1779 82.177 68.1779L81.2104 67.6653" fill="#263238"/>
<path id="Vector_36" d="M65.2417 84.7805L66.1588 82.3978L72.8035 65.1657L98.4021 72.8983L93.0837 93.5921L65.2417 84.7805Z" fill="#244A4A"/>
<path id="Vector_37" d="M86.8347 59.7529C86.4435 59.8832 84.2496 62.5177 83.8091 63.2685C83.3685 64.0193 83.319 64.5093 83.6562 64.7656C83.9019 64.9819 84.1813 65.1566 84.4834 65.2826C84.5868 65.2826 84.1193 66.0604 84.7127 66.447C85.3061 66.8336 85.6118 66.7572 85.6118 66.7572C85.6118 66.7572 85.459 67.8946 86.2322 68.2048C87.0055 68.515 87.3427 68.1509 87.4731 68.2048C87.6034 68.2588 88.3003 66.937 88.3003 66.937L89.1994 68.3307C89.5269 67.9737 89.8051 67.5746 90.0266 67.1438C90.4402 66.3661 90.4133 64.1722 90.4133 64.1722L89.9997 62.2075L90.701 59.3887C90.701 59.3887 87.2887 58.9392 87.2618 59.0066C87.2348 59.074 86.8347 59.7529 86.8347 59.7529Z" fill="#E9B376"/>
<path id="Vector_38" opacity="0.2" d="M93.8929 90.4451L66.3117 82.0067L65.2417 84.7805L93.0837 93.5921L93.8929 90.4451Z" fill="black"/>
<path id="Vector_39" d="M154.23 62.5312C154.23 62.5312 154.324 62.8369 153.96 63.4304C153.596 64.0238 152.805 63.6102 152.809 63.7136C152.694 64.0186 152.531 64.3037 152.328 64.5588C152.085 64.905 151.591 64.8735 150.822 64.4689C150.053 64.0643 147.329 61.9783 147.185 61.5961C147.185 61.5961 146.497 61.214 146.416 61.1915C146.335 61.169 146.659 57.7433 146.659 57.7433L149.5 58.3187L151.447 57.8242C151.447 57.8242 153.641 57.7028 154.432 58.085C154.572 58.1479 154.697 58.2153 154.814 58.2828C154.913 58.3389 154.995 58.419 155.054 58.5157C155.113 58.6123 155.147 58.7224 155.152 58.8356C155.157 58.9487 155.133 59.0613 155.083 59.1628C155.032 59.2642 154.957 59.3512 154.864 59.4157L154.297 59.8203C154.297 59.8203 154.855 60.1215 155.246 60.3553C155.372 60.4281 155.474 60.5363 155.54 60.6665C155.605 60.7967 155.631 60.9433 155.615 61.0881C155.611 61.1483 155.597 61.2076 155.574 61.2634C155.535 61.3609 155.46 61.44 155.365 61.485C155.27 61.53 155.162 61.5376 155.062 61.5062C155.08 61.7038 155.029 61.9016 154.917 62.0656C154.806 62.2297 154.641 62.3498 154.45 62.4053C154.203 62.4953 154.23 62.5312 154.23 62.5312Z" fill="#E9B376"/>
<path id="Vector_40" opacity="0.1" d="M152.773 60.9937C152.647 60.9939 152.522 60.9646 152.409 60.9083C152.337 60.8694 152.272 60.8163 152.221 60.7522C152.169 60.6881 152.131 60.6143 152.108 60.5351C152.009 60.2237 151.996 59.891 152.072 59.573C151.879 59.7777 151.662 59.9575 151.425 60.108C151.242 60.238 151.033 60.3269 150.813 60.3688C150.696 60.3908 150.576 60.3882 150.459 60.3611C150.343 60.334 150.234 60.283 150.139 60.2114C150.126 60.2028 150.115 60.1916 150.106 60.1785C150.098 60.1654 150.092 60.1507 150.09 60.1353C150.088 60.12 150.088 60.1042 150.092 60.0892C150.096 60.0741 150.103 60.0601 150.113 60.0479C150.123 60.0357 150.135 60.0257 150.149 60.0184C150.162 60.0112 150.177 60.0068 150.193 60.0057C150.209 60.0046 150.224 60.0067 150.239 60.012C150.253 60.0172 150.267 60.0254 150.278 60.0361C150.349 60.0885 150.43 60.1252 150.516 60.1438C150.602 60.1624 150.691 60.1625 150.777 60.144C150.967 60.1095 151.147 60.0327 151.303 59.9192C151.656 59.6983 151.962 59.4095 152.202 59.0695C152.212 59.0138 152.234 58.9612 152.269 58.9165C152.303 58.8718 152.349 58.8363 152.4 58.8133C152.422 58.8075 152.445 58.8082 152.467 58.8154C152.488 58.8226 152.507 58.8359 152.522 58.8537C152.534 58.8725 152.54 58.8944 152.54 58.9167C152.54 58.939 152.534 58.9608 152.522 58.9796C152.481 59.0425 152.445 59.1055 152.4 59.1639C152.245 59.5781 152.219 60.0292 152.324 60.4587C152.352 60.5614 152.418 60.6497 152.508 60.706C152.587 60.7481 152.675 60.7701 152.764 60.7701C152.854 60.7701 152.942 60.7481 153.021 60.706C153.272 60.5351 153.52 60.3328 153.812 60.1035L154.441 59.6045C154.465 59.586 154.495 59.5778 154.525 59.5816C154.555 59.5854 154.582 59.6009 154.601 59.6247C154.619 59.6486 154.628 59.6788 154.624 59.7087C154.62 59.7387 154.604 59.7659 154.581 59.7843C154.347 59.9597 154.131 60.126 153.951 60.2789C153.659 60.5127 153.403 60.7284 153.142 60.8903C153.033 60.9622 152.904 60.9983 152.773 60.9937Z" fill="#263238"/>
<path id="Vector_41" opacity="0.1" d="M151.155 64.3205C151.025 64.3077 150.905 64.2468 150.818 64.1497C150.629 63.9648 150.462 63.7598 150.319 63.5383C150.239 63.4436 150.184 63.3315 150.156 63.2111C150.129 63.0907 150.131 62.9655 150.161 62.8459C150.2 62.7526 150.261 62.6704 150.34 62.6068C150.418 62.5432 150.511 62.5003 150.611 62.4818C150.789 62.4504 150.971 62.4581 151.146 62.5043C151.326 62.54 151.503 62.588 151.676 62.6481C151.626 62.5796 151.581 62.5074 151.541 62.4323C151.462 62.3163 151.423 62.1777 151.429 62.0374C151.436 61.8971 151.488 61.7628 151.577 61.6546C151.676 61.5883 151.791 61.5482 151.909 61.538C152.028 61.5278 152.147 61.5478 152.256 61.5961C152.922 61.7892 153.564 62.0546 154.171 62.3874C154.197 62.4024 154.216 62.4266 154.224 62.4549C154.232 62.4833 154.23 62.5138 154.216 62.5402C154.209 62.5532 154.2 62.5647 154.188 62.574C154.177 62.5833 154.163 62.5903 154.149 62.5945C154.135 62.5986 154.12 62.6 154.105 62.5984C154.091 62.5968 154.076 62.5923 154.064 62.5852C153.47 62.2612 152.843 62.0019 152.193 61.8119C152.045 61.767 151.838 61.722 151.744 61.8119C151.649 61.9018 151.667 62.1401 151.744 62.3154C151.867 62.5448 152.043 62.742 152.256 62.8909L152.49 63.0258C152.514 63.0422 152.531 63.067 152.537 63.0952C152.544 63.1235 152.54 63.1532 152.526 63.1786C152.513 63.2034 152.49 63.222 152.463 63.2304C152.436 63.2388 152.407 63.2363 152.382 63.2236C152.297 63.1842 152.216 63.1376 152.139 63.0842C151.815 62.9083 151.467 62.7825 151.105 62.7111C150.957 62.6784 150.804 62.6784 150.656 62.7111C150.593 62.7212 150.533 62.7465 150.482 62.7849C150.431 62.8233 150.391 62.8736 150.364 62.9313C150.347 63.0186 150.351 63.1085 150.374 63.1942C150.397 63.2799 150.44 63.3591 150.498 63.4259C150.628 63.6311 150.779 63.8224 150.948 63.9968C151.033 64.0778 151.096 64.1137 151.141 64.1047C151.156 64.1015 151.171 64.1013 151.185 64.1041C151.2 64.1069 151.214 64.1128 151.226 64.1212C151.238 64.1296 151.249 64.1405 151.257 64.1532C151.264 64.1658 151.27 64.1799 151.272 64.1946C151.277 64.2238 151.27 64.2539 151.254 64.2784C151.237 64.3028 151.211 64.3196 151.182 64.325L151.155 64.3205Z" fill="#263238"/>
<path id="Vector_42" opacity="0.1" d="M152.022 61.7715C152.005 61.7714 151.989 61.7677 151.973 61.7608C151.958 61.7538 151.944 61.7437 151.933 61.731C151.819 61.5826 151.75 61.4047 151.735 61.2185C151.722 61.083 151.751 60.9469 151.816 60.8273C151.852 60.7619 151.904 60.7062 151.967 60.6647C152.029 60.6233 152.101 60.5974 152.175 60.5891C152.205 60.5877 152.234 60.5977 152.256 60.6169C152.279 60.6361 152.293 60.6631 152.297 60.6925C152.298 60.722 152.288 60.751 152.269 60.7735C152.25 60.7961 152.223 60.8105 152.193 60.8139C152.155 60.8182 152.118 60.8319 152.086 60.8539C152.053 60.8758 152.027 60.9053 152.009 60.9397C151.968 61.0217 151.951 61.1137 151.96 61.205C151.97 61.3465 152.023 61.4815 152.112 61.5916C152.132 61.6131 152.143 61.6412 152.143 61.6703C152.143 61.6994 152.132 61.7275 152.112 61.749C152.086 61.7669 152.054 61.7748 152.022 61.7715Z" fill="#263238"/>
<path id="Vector_43" opacity="0.1" d="M155.03 61.5961C155.011 61.6007 154.991 61.6007 154.972 61.5961C154.451 61.2549 153.897 60.9686 153.317 60.7419C153.29 60.7309 153.268 60.7097 153.256 60.6828C153.245 60.6559 153.244 60.6255 153.254 60.5981C153.259 60.5842 153.267 60.5715 153.277 60.5608C153.287 60.55 153.299 60.5414 153.313 60.5355C153.326 60.5296 153.341 60.5266 153.355 60.5265C153.37 60.5264 153.385 60.5294 153.398 60.5351C153.991 60.7642 154.558 61.0567 155.089 61.4073C155.101 61.4147 155.112 61.4245 155.121 61.4363C155.13 61.4482 155.136 61.4616 155.14 61.476C155.143 61.4903 155.143 61.5051 155.141 61.5196C155.138 61.5341 155.133 61.5479 155.125 61.5601C155.113 61.5731 155.098 61.5831 155.082 61.5893C155.065 61.5956 155.048 61.5979 155.03 61.5961Z" fill="#263238"/>
<path id="Vector_44" d="M85.922 120.391L81.6646 129.675L85.5578 131.806L91.3483 122.428L85.922 120.391Z" fill="#E9B376"/>
<path id="Vector_45" d="M82.5277 129.216C82.7839 129.976 83.9483 130.515 84.6677 130.394L85.0813 129.67C85.5083 129.099 85.886 128.928 86.5064 129.374C86.8121 129.589 87.0054 130.205 86.956 130.943C86.8805 131.638 86.9635 132.342 87.1987 133.002C87.1987 133.002 89.3657 136.081 90.2558 136.985C90.7863 137.52 91.4742 138.275 91.5641 139.201C91.5896 139.501 91.5791 139.803 91.5326 140.1C91.4614 140.373 91.3556 140.636 91.2179 140.883L83.7011 136.809C83.4763 136.419 83.1858 136.071 82.8424 135.78C82.6638 135.697 82.4676 135.661 82.2713 135.673C82.0751 135.686 81.885 135.747 81.7185 135.852L78.9761 134.391L79.4256 133.285C79.5425 132.993 79.6729 132.655 79.8123 132.3C80.4102 130.776 81.5117 129.153 81.6825 128.74C81.9702 127.971 82.5277 129.216 82.5277 129.216Z" fill="#263238"/>
<path id="Vector_46" d="M88.4035 134.593C88.3946 134.569 88.3779 134.548 88.3559 134.534C88.3339 134.52 88.308 134.514 88.2821 134.517C88.0373 134.531 87.8011 134.612 87.5988 134.75C87.4909 134.827 87.5988 135.011 87.7112 134.935C87.8896 134.813 88.0978 134.741 88.3136 134.728C88.3295 134.728 88.3451 134.723 88.359 134.716C88.373 134.708 88.3849 134.697 88.3937 134.684C88.4025 134.671 88.408 134.655 88.4097 134.64C88.4114 134.624 88.4093 134.608 88.4035 134.593Z" fill="#244A4A"/>
<path id="Vector_47" d="M87.9946 133.977C87.9857 133.953 87.969 133.932 87.947 133.918C87.925 133.904 87.899 133.898 87.8732 133.901C87.6282 133.918 87.3923 134 87.1898 134.139C87.0819 134.211 87.1898 134.4 87.3022 134.323C87.4813 134.202 87.6889 134.129 87.9047 134.112C87.92 134.111 87.935 134.107 87.9485 134.1C87.962 134.092 87.9735 134.082 87.9823 134.069C87.991 134.057 87.9966 134.042 87.9988 134.027C88.0009 134.012 87.9995 133.996 87.9946 133.982V133.977Z" fill="#244A4A"/>
<path id="Vector_48" d="M87.554 133.348C87.5434 133.325 87.5263 133.305 87.5048 133.291C87.4832 133.278 87.4581 133.271 87.4326 133.271C87.1921 133.297 86.9627 133.385 86.7672 133.528C86.6593 133.599 86.7672 133.788 86.8796 133.712C87.0581 133.59 87.2662 133.518 87.4821 133.505C87.4976 133.504 87.5126 133.499 87.5261 133.491C87.5395 133.483 87.551 133.472 87.5596 133.459C87.5683 133.446 87.5739 133.432 87.576 133.416C87.5781 133.401 87.5768 133.385 87.572 133.37L87.554 133.348Z" fill="#244A4A"/>
<path id="Vector_49" opacity="0.2" d="M91.5596 139.682C91.5596 139.817 91.5596 139.961 91.5237 140.109C91.4495 140.382 91.3423 140.645 91.2045 140.892L83.6876 136.818C83.4629 136.428 83.1724 136.08 82.829 135.789C82.6504 135.706 82.4541 135.67 82.2579 135.682C82.0616 135.695 81.8716 135.756 81.705 135.861L78.9626 134.4L79.4122 133.294L79.4752 133.132L91.5596 139.682Z" fill="white"/>
<path id="Vector_50" d="M87.2483 133.55L87.3337 133.352C87.4474 133.072 87.5843 132.801 87.7428 132.543C87.9122 132.271 88.1512 132.049 88.4352 131.9C88.5102 131.854 88.5959 131.827 88.684 131.823C88.7721 131.819 88.8598 131.838 88.9387 131.878C89.0146 131.935 89.0723 132.013 89.105 132.102C89.1377 132.192 89.1439 132.288 89.123 132.381C89.0963 132.534 89.0392 132.68 88.9551 132.811C88.8709 132.941 88.7614 133.054 88.633 133.141C88.2606 133.321 87.8637 133.445 87.4551 133.51L87.2483 133.55ZM88.7319 132.048C88.6627 132.051 88.595 132.069 88.5341 132.102C88.287 132.233 88.0791 132.427 87.9316 132.664C87.8156 132.85 87.7134 133.044 87.6259 133.244C87.9388 133.196 88.2421 133.099 88.5251 132.957C88.6286 132.887 88.7172 132.797 88.7859 132.693C88.8546 132.589 88.9019 132.472 88.9252 132.35C88.9252 132.251 88.9252 132.12 88.8443 132.071C88.811 132.05 88.7708 132.042 88.7319 132.048Z" fill="#244A4A"/>
<path id="Vector_51" d="M87.4956 133.604L87.3337 133.469C87.005 133.216 86.7183 132.912 86.484 132.57C86.4126 132.432 86.3698 132.282 86.3582 132.127C86.3466 131.973 86.3665 131.817 86.4166 131.671C86.4442 131.58 86.4968 131.499 86.5684 131.437C86.64 131.375 86.7276 131.335 86.8212 131.32C86.912 131.322 87.0009 131.347 87.0794 131.393C87.158 131.438 87.2238 131.503 87.2708 131.581C87.4466 131.849 87.5475 132.16 87.563 132.48C87.5803 132.78 87.5713 133.081 87.536 133.379L87.4956 133.604ZM86.8392 131.549C86.7448 131.549 86.6683 131.662 86.6369 131.756C86.5958 131.874 86.5797 132 86.5898 132.124C86.5998 132.249 86.6358 132.37 86.6953 132.48C86.8665 132.737 87.0774 132.964 87.3202 133.154C87.3382 132.936 87.3382 132.716 87.3202 132.498C87.3053 132.219 87.2169 131.949 87.064 131.716C87.0235 131.653 86.9381 131.549 86.8392 131.549Z" fill="#244A4A"/>
<path id="Vector_52" d="M127.256 98.5419L123.003 107.826L126.891 109.957L132.682 100.578L127.256 98.5419Z" fill="#E9B376"/>
<path id="Vector_53" d="M123.861 107.367C124.122 108.127 125.282 108.666 126.001 108.545L126.415 107.821C126.842 107.25 127.224 107.079 127.84 107.524C128.146 107.74 128.339 108.356 128.29 109.093C128.214 109.788 128.297 110.49 128.532 111.148C128.532 111.148 130.704 114.232 131.59 115.136C132.12 115.671 132.808 116.426 132.898 117.352C132.923 117.652 132.914 117.953 132.871 118.251C132.795 118.523 132.688 118.786 132.552 119.033L125.035 114.96C124.81 114.57 124.52 114.222 124.176 113.931C123.998 113.848 123.801 113.812 123.605 113.824C123.409 113.837 123.219 113.898 123.052 114.003L120.31 112.542L120.759 111.436C120.876 111.143 121.007 110.806 121.146 110.451C121.744 108.922 122.845 107.304 123.021 106.89C123.304 106.104 123.861 107.367 123.861 107.367Z" fill="#263238"/>
<path id="Vector_54" d="M129.737 112.739C129.728 112.717 129.711 112.697 129.69 112.683C129.67 112.67 129.645 112.663 129.62 112.663C129.375 112.679 129.139 112.761 128.937 112.901C128.825 112.978 128.937 113.162 129.045 113.086C129.224 112.965 129.432 112.893 129.647 112.879C129.663 112.878 129.679 112.874 129.693 112.866C129.707 112.859 129.719 112.848 129.728 112.835C129.737 112.822 129.743 112.807 129.746 112.791C129.748 112.775 129.747 112.759 129.742 112.744L129.737 112.739Z" fill="#244A4A"/>
<path id="Vector_55" d="M129.328 112.114C129.319 112.09 129.302 112.069 129.28 112.055C129.259 112.042 129.233 112.035 129.207 112.038C128.963 112.056 128.727 112.137 128.523 112.272C128.415 112.348 128.523 112.537 128.636 112.461C128.814 112.337 129.022 112.264 129.238 112.249C129.254 112.249 129.269 112.245 129.282 112.237C129.295 112.23 129.307 112.219 129.316 112.207C129.324 112.194 129.33 112.179 129.332 112.164C129.334 112.149 129.333 112.134 129.328 112.119V112.114Z" fill="#244A4A"/>
<path id="Vector_56" d="M128.888 111.499C128.878 111.475 128.861 111.455 128.839 111.441C128.817 111.428 128.792 111.421 128.766 111.422C128.521 111.44 128.286 111.522 128.083 111.66C127.975 111.732 128.083 111.921 128.195 111.845C128.374 111.723 128.582 111.651 128.798 111.638C128.813 111.637 128.828 111.632 128.842 111.624C128.855 111.616 128.867 111.605 128.875 111.592C128.884 111.579 128.89 111.564 128.892 111.549C128.894 111.534 128.892 111.518 128.888 111.503V111.499Z" fill="#244A4A"/>
<path id="Vector_57" opacity="0.2" d="M132.893 117.833C132.89 117.983 132.878 118.134 132.857 118.283C132.786 118.556 132.679 118.82 132.538 119.065L125.021 114.992C124.797 114.603 124.508 114.254 124.167 113.962C123.989 113.879 123.792 113.843 123.596 113.855C123.4 113.868 123.209 113.929 123.043 114.034L120.296 112.573L120.746 111.467L120.813 111.305L132.893 117.833Z" fill="white"/>
<path id="Vector_58" d="M128.577 111.701L128.663 111.503C128.777 111.22 128.916 110.948 129.076 110.689C129.244 110.419 129.482 110.198 129.764 110.051C129.841 110.008 129.928 109.985 130.016 109.985C130.104 109.985 130.191 110.008 130.268 110.051C130.344 110.108 130.402 110.186 130.435 110.275C130.468 110.365 130.474 110.462 130.452 110.554C130.425 110.707 130.368 110.854 130.284 110.984C130.2 111.115 130.09 111.227 129.962 111.314C129.592 111.497 129.197 111.621 128.789 111.683L128.577 111.701ZM130.061 110.195C129.991 110.199 129.924 110.219 129.863 110.253C129.615 110.382 129.407 110.577 129.261 110.815C129.145 111.001 129.043 111.195 128.955 111.395C129.26 111.342 129.555 111.245 129.832 111.107C129.935 111.038 130.024 110.948 130.093 110.844C130.162 110.74 130.209 110.623 130.232 110.5C130.232 110.402 130.232 110.271 130.151 110.222C130.126 110.205 130.096 110.196 130.065 110.195H130.061Z" fill="#244A4A"/>
<path id="Vector_59" d="M128.829 111.755L128.667 111.62C128.338 111.367 128.051 111.064 127.817 110.721C127.747 110.583 127.705 110.432 127.693 110.278C127.682 110.124 127.701 109.968 127.75 109.822C127.773 109.733 127.822 109.654 127.892 109.594C127.961 109.535 128.046 109.498 128.137 109.488C128.228 109.478 128.319 109.496 128.4 109.54C128.48 109.583 128.545 109.65 128.586 109.732C128.763 110 128.865 110.31 128.883 110.631C128.897 110.931 128.886 111.232 128.851 111.53L128.829 111.755ZM128.173 109.7C128.074 109.7 128.002 109.813 127.966 109.907C127.927 110.026 127.912 110.151 127.922 110.275C127.932 110.399 127.967 110.52 128.024 110.631C128.197 110.887 128.407 111.114 128.649 111.305C128.667 111.087 128.667 110.867 128.649 110.649C128.634 110.37 128.546 110.1 128.393 109.867C128.366 109.817 128.276 109.7 128.173 109.7Z" fill="#244A4A"/>
<path id="Vector_60" d="M102.893 68.9016C102.893 68.9016 101.855 73.7615 103.374 78.019L97.3995 99.5984C97.3995 99.5984 81.7139 126.842 82.186 126.959C82.658 127.076 90.2783 131.626 90.2783 131.626C90.2783 131.626 105.501 108.01 107.708 104.867C109.916 101.725 118.997 77.6638 118.997 77.6638L102.893 68.9016Z" fill="#263238"/>
<path id="Vector_61" opacity="0.3" d="M108.796 70.8887C108.504 71.7609 106.382 74.1526 106.058 75.1507C105.964 75.4429 103.644 74.1706 103.545 74.4763C105.415 77.0928 112.447 80.6175 117.19 82.7979C117.936 80.9591 118.134 80.1544 118.736 78.5764C119.671 76.2117 120.692 74.3549 121.222 72.9927C116.987 72.0846 112.307 71.3698 108.796 70.8887Z" fill="black"/>
<path id="Vector_62" d="M145.791 75.2901C139.907 72.2824 123.794 68.1329 123.794 68.1329L124.468 63.3359L105.532 59.6C104.613 61.7504 103.861 63.969 103.284 66.2357C100.645 77.6413 112.276 79.0215 114.582 79.1699L135.622 82.9193L124.509 103.24L132.295 106.239C132.295 106.239 142.366 91.0565 147.19 82.9193C149.055 79.7408 147.392 76.1083 145.791 75.2901Z" fill="#263238"/>
<path id="Vector_63" opacity="0.3" d="M120.211 64.3475L112.118 62.783L112.433 61.4972L120.498 63.0617L120.211 64.3475Z" fill="white"/>
<path id="Vector_64" opacity="0.3" d="M121.11 63.1831L124.396 63.844L124.212 65.1567L120.849 64.4689L121.11 63.1831Z" fill="white"/>
<path id="Vector_65" opacity="0.3" d="M106.252 60.2968L111.817 61.3758L111.489 62.6526L105.946 61.5826L106.252 60.2968Z" fill="white"/>
<g id="Group" opacity="0.3">
<path id="Vector_66" d="M105.375 61.4522L104.844 61.3174L105.326 60.099L105.694 60.1665L105.375 61.4522Z" fill="white"/>
</g>
<path id="Vector_67" opacity="0.3" d="M123.807 68.0879L114.285 65.3231C114.479 65.3815 120.503 66.6718 123.92 67.2787L123.807 68.0879Z" fill="black"/>
<path id="Vector_68" opacity="0.3" d="M135.667 82.69L140.788 81.0536C140.788 81.0536 137.25 84.3174 134.521 84.7895L135.667 82.69Z" fill="black"/>
<path id="Vector_69" d="M105.281 31.9244C104.917 31.9244 92.8006 40.5067 91.0967 42.5657C89.3928 44.6248 85.9985 59.8832 85.9985 59.8832L90.5437 61.0162L96.0869 46.4096L106.427 41.1361C106.427 41.1361 108.909 36.4066 108.976 36.1908C109.044 35.975 105.281 31.9244 105.281 31.9244Z" fill="#244A4A"/>
<path id="Vector_70" opacity="0.7" d="M105.281 31.9244C104.917 31.9244 92.8006 40.5067 91.0967 42.5657C89.3928 44.6248 85.9985 59.8832 85.9985 59.8832L90.5437 61.0162L96.0869 46.4096L106.427 41.1361C106.427 41.1361 108.909 36.4066 108.976 36.1908C109.044 35.975 105.281 31.9244 105.281 31.9244Z" fill="white"/>
<path id="Vector_71" d="M149.307 57.9995L135.087 48.1764C135.087 48.1764 130.376 34.7432 128.915 32.6212C127.017 29.8654 123.403 29.681 123.403 29.681L125.597 41.1586C125.597 41.1586 126.869 45.7442 128.087 49.0396C129.342 52.4204 129.827 54.2591 132.907 56.0889C135.577 57.6758 146.983 61.9333 146.983 61.9333C146.785 61.8479 149.307 57.9995 149.307 57.9995Z" fill="#244A4A"/>
<path id="Vector_72" opacity="0.7" d="M149.307 57.9995L135.087 48.1764C135.087 48.1764 130.376 34.7432 128.915 32.6212C127.017 29.8654 123.403 29.681 123.403 29.681L125.597 41.1586C125.597 41.1586 126.869 45.7442 128.087 49.0396C129.342 52.4204 129.827 54.2591 132.907 56.0889C135.577 57.6758 146.983 61.9333 146.983 61.9333C146.785 61.8479 149.307 57.9995 149.307 57.9995Z" fill="white"/>
<path id="Vector_73" d="M104.503 59.3887C104.503 59.3887 103.532 59.3258 103.882 58.4491C104.218 57.7918 104.696 57.2175 105.281 56.7677L106.072 51.1076L105.281 31.9244L108.823 31.0252L112.721 30.1261L114.384 28.6245L118.88 28.4132L121.088 29.6361H123.407C123.407 29.672 127.966 40.0392 126.824 48.3158C125.682 56.5924 124.864 61.8029 124.671 62.3514C124.28 63.4214 123.425 63.0842 123.425 63.0842L104.503 59.3887Z" fill="#244A4A"/>
<path id="Vector_74" opacity="0.7" d="M104.503 59.3887C104.503 59.3887 103.532 59.3258 103.882 58.4491C104.218 57.7918 104.696 57.2175 105.281 56.7677L106.072 51.1076L105.676 41.5272L105.281 31.9244L108.823 31.0252L112.721 30.1261L114.384 28.6245L118.763 28.4132L121.101 29.6361H123.421C123.421 29.672 127.98 40.0392 126.838 48.3158C125.696 56.5924 124.877 61.8029 124.684 62.3514C124.293 63.4214 123.439 63.0842 123.439 63.0842L104.503 59.3887Z" fill="white"/>
<path id="Vector_75" opacity="0.1" d="M116.704 61.4882C116.689 61.4871 116.675 61.483 116.662 61.4763C116.649 61.4696 116.637 61.4603 116.627 61.449C116.618 61.4378 116.61 61.4247 116.606 61.4106C116.601 61.3965 116.599 61.3816 116.601 61.3668C117.554 52.134 117.743 42.8383 117.167 33.5743C117.166 33.5452 117.176 33.5168 117.195 33.495C117.215 33.4732 117.242 33.4597 117.271 33.4574C117.285 33.4555 117.3 33.4567 117.314 33.4611C117.328 33.4654 117.342 33.4727 117.353 33.4825C117.364 33.4923 117.373 33.5044 117.379 33.5179C117.385 33.5314 117.388 33.546 117.387 33.5608C117.967 42.8366 117.779 52.1445 116.826 61.3893C116.824 61.4039 116.82 61.4181 116.814 61.4311C116.807 61.4441 116.797 61.4556 116.786 61.4648C116.775 61.4741 116.762 61.4809 116.748 61.485C116.733 61.489 116.719 61.4901 116.704 61.4882Z" fill="#263238"/>
<path id="Vector_76" opacity="0.2" d="M106.8 44.3011L106.926 47.2863C106.926 47.2863 114.757 41.5048 116.308 39.5716C118.314 37.081 118.466 35.7053 118.466 35.7053L106.8 44.3011Z" fill="black"/>
<path id="Vector_77" d="M116.592 34.406L117.518 35.8581C117.518 35.8581 104.211 45.6858 91.7935 46.5175L91.0337 50.748L95.3091 51.5302C95.3091 51.5302 114.191 44.2606 118.624 35.9481L119.95 33.961L118.534 32.7291L118.084 33.0169L116.592 34.406Z" fill="#244A4A"/>
<path id="Vector_78" opacity="0.2" d="M127.017 45.8116C127.017 45.8116 127.431 39.9672 127.512 36.9686C127.782 38.4948 127.97 40.0346 128.074 41.5812C128.195 43.5908 127.588 47.6953 127.588 47.6953L127.017 45.8116Z" fill="black"/>
<path id="Vector_79" opacity="0.2" d="M112.932 30.3868C113.112 30.724 115.994 34.397 115.994 34.397L118.318 32.7741C118.318 32.7741 116.299 34.9905 116.286 35.0219L115.688 35.0804L112.932 30.3868Z" fill="black"/>
<path id="Vector_80" opacity="0.2" d="M118.534 32.7291L120.269 33.4889C120.595 32.762 120.863 32.0104 121.07 31.241C121.105 30.7645 121.07 29.9553 121.07 29.9553H121.303C121.412 30.7276 121.361 31.5139 121.155 32.2661C120.791 33.3046 120.355 34.3071 120.355 34.3071L118.534 32.7291Z" fill="black"/>
<path id="Vector_81" opacity="0.2" d="M135.087 48.1674C135.217 49.1025 134.637 50.3658 134.147 51.1706C134.736 50.9503 135.402 50.685 135.685 50.1276C135.968 49.5701 136.18 49.5296 136.135 48.9047L135.087 48.1674Z" fill="black"/>
<path id="Vector_82" d="M112.932 20.9099C112.932 20.9099 108.967 17.8258 109.088 16.7379C109.21 15.6499 109.839 15.9601 109.839 15.9601C109.839 15.9601 108.405 13.3975 109.691 12.8985C110.977 12.3995 111.089 12.8311 111.089 12.8311C111.089 12.8311 110.487 10.7181 111.494 10.0347C112.262 9.50874 112.64 10.4843 112.64 10.4843C112.64 10.4843 114.047 8.0881 115.85 8.04764C116.749 8.07911 117.199 8.63658 117.109 9.32892V9.41883C117.109 9.41883 120.678 7.68349 122.409 8.6096C124.14 9.53572 121.982 10.7181 121.982 10.7181C121.982 10.7181 125.511 10.2011 126.262 11.6172C126.86 12.7277 125.313 13.5549 125.313 13.5549C125.701 13.6819 126.062 13.8784 126.379 14.1348C126.587 14.3137 126.738 14.5497 126.813 14.8135C126.889 15.0773 126.885 15.3575 126.803 15.6192C126.72 15.8809 126.563 16.1128 126.35 16.286C126.138 16.4593 125.879 16.5664 125.606 16.594H125.574C125.39 16.594 125.053 16.6614 124.909 16.5355C124.909 16.5355 125.57 17.7943 124.275 18.2619C122.98 18.7295 122.297 17.2324 122.297 17.2324L112.932 20.9099Z" fill="#263238"/>
<path id="Vector_83" d="M114.483 29.2C114.483 29.2 114.618 27.3433 113.135 22.906C113.135 22.906 113.368 22.7846 113.368 22.7801C113.157 22.1597 112.941 21.5887 112.739 21.0897L119.033 24.6234C118.948 26.0665 119.586 28.8224 119.932 29.9822L118.449 32.7471L114.483 29.2Z" fill="#E9B376"/>
<path id="Vector_84" opacity="0.2" d="M119.231 26.6194L115.657 25.9766C116.025 27.0645 117.055 28.3233 119.523 28.3233C119.379 27.7644 119.281 27.1945 119.231 26.6194Z" fill="black"/>
<path id="Vector_85" d="M122.823 13.7977C123.609 15.1868 124.001 18.2934 121.708 17.7494C119.415 17.2054 121.474 11.4059 122.823 13.7977Z" fill="#263238"/>
<path id="Vector_86" d="M112.546 18.0866C113.13 21.9664 113.382 24.1648 115.531 25.9766C118.763 28.701 123.317 26.5385 123.906 22.5508C124.437 18.9543 123.394 13.2222 119.433 12.0443C118.555 11.7784 117.624 11.7405 116.728 11.9343C115.832 12.1281 115 12.5471 114.31 13.1518C113.621 13.7566 113.097 14.5271 112.789 15.3905C112.48 16.2539 112.396 17.1818 112.546 18.0866Z" fill="#E9B376"/>
<path id="Vector_87" d="M118.237 18.7205C118.273 19.1206 118.511 19.4218 118.772 19.3948C119.033 19.3678 119.222 19.0262 119.181 18.626C119.141 18.2259 118.907 17.9247 118.646 17.9517C118.386 17.9787 118.192 18.3203 118.237 18.7205Z" fill="#263238"/>
<path id="Vector_88" d="M122.149 18.4372C122.184 18.8374 122.427 19.1431 122.688 19.1161C122.949 19.0891 123.138 18.7475 123.097 18.3473C123.057 17.9472 122.818 17.646 122.558 17.6685C122.297 17.691 122.113 18.0551 122.149 18.4372Z" fill="#263238"/>
<path id="Vector_89" d="M120.858 18.3428C120.858 18.3428 122.297 20.2175 122.773 20.9863C122.261 21.5393 121.281 21.3909 121.281 21.3909L120.858 18.3428Z" fill="#D58745"/>
<path id="Vector_90" d="M117.172 16.612C117.204 16.6194 117.238 16.6179 117.27 16.6076C117.301 16.5973 117.33 16.5786 117.351 16.5535C117.506 16.3747 117.699 16.2341 117.917 16.1428C118.134 16.0516 118.37 16.0121 118.606 16.0275C118.655 16.0341 118.705 16.0214 118.745 15.9921C118.785 15.9628 118.813 15.9191 118.822 15.8702C118.826 15.8459 118.825 15.8209 118.82 15.7968C118.814 15.7727 118.804 15.7501 118.789 15.7302C118.774 15.7104 118.755 15.6938 118.734 15.6816C118.713 15.6693 118.689 15.6616 118.664 15.6589C118.367 15.6317 118.067 15.6764 117.79 15.789C117.513 15.9016 117.267 16.079 117.073 16.3063C117.038 16.3416 117.018 16.3892 117.018 16.4389C117.018 16.4885 117.038 16.5362 117.073 16.5715C117.1 16.5955 117.135 16.6097 117.172 16.612Z" fill="#263238"/>
<path id="Vector_91" d="M123.744 16.576C123.779 16.5649 123.809 16.5428 123.83 16.5131C123.859 16.4728 123.872 16.4226 123.865 16.3732C123.858 16.3238 123.833 16.2788 123.794 16.2478C123.561 16.0653 123.287 15.9417 122.996 15.8877C122.704 15.8337 122.405 15.8508 122.121 15.9376C122.098 15.9461 122.077 15.9592 122.058 15.976C122.04 15.9928 122.025 16.0131 122.015 16.0357C122.004 16.0582 121.998 16.0826 121.997 16.1074C121.996 16.1323 122 16.1571 122.009 16.1804C122.017 16.2032 122.03 16.224 122.047 16.2418C122.064 16.2596 122.084 16.2739 122.106 16.2839C122.128 16.2939 122.152 16.2995 122.176 16.3002C122.2 16.301 122.225 16.2969 122.247 16.2883C122.473 16.2216 122.711 16.2109 122.941 16.2571C123.171 16.3033 123.387 16.4051 123.569 16.5535C123.594 16.5713 123.623 16.5826 123.654 16.5865C123.684 16.5905 123.716 16.5868 123.744 16.576Z" fill="#263238"/>
<path id="Vector_92" d="M120.8 22.5148C120.161 22.3395 119.001 21.9664 118.399 21.3999C118.334 21.5432 118.287 21.6943 118.26 21.8495C118.202 22.1158 118.211 22.3923 118.287 22.6542C118.449 23.1892 118.943 23.7512 120.229 24.0524H120.251C120.251 24.0524 120.944 24.2007 121.222 22.6227C121.236 22.6227 121.065 22.5868 120.8 22.5148Z" fill="#263238"/>
<path id="Vector_93" d="M120.8 22.5149L120.575 22.9644C119.366 22.6767 118.552 22.3125 118.26 21.8585C118.287 21.7033 118.334 21.5522 118.399 21.4089C118.988 21.9664 120.161 22.3395 120.8 22.5149Z" fill="white"/>
<path id="Vector_94" d="M120.229 24.0434C118.943 23.7422 118.43 23.1802 118.287 22.6452C118.769 22.7701 119.225 22.9785 119.635 23.2611C119.909 23.4544 120.116 23.7276 120.229 24.0434Z" fill="#DC5753"/>
<path id="Vector_95" d="M113.84 21.0582C114.189 20.8903 114.482 20.6268 114.686 20.2985C114.819 19.9642 114.848 19.5978 114.771 19.2465C114.724 18.8773 114.657 18.5111 114.569 18.1495C114.924 18.3114 115.333 18.0146 115.508 17.6685C115.725 17.1248 115.78 16.5298 115.666 15.9556C115.89 15.9955 116.122 15.9749 116.336 15.8959C116.55 15.8169 116.739 15.6824 116.884 15.506C117.024 15.3268 117.097 15.1043 117.091 14.8769C117.084 14.6495 116.998 14.4315 116.848 14.2607C118.299 14.3933 119.762 14.2406 121.155 13.8111C121.065 13.991 121.186 14.2068 121.317 14.3641C121.854 15.0025 122.608 15.4203 123.434 15.5375C123.556 15.5375 123.704 15.5375 123.767 15.4476C123.795 15.3888 123.803 15.3225 123.79 15.2588C123.671 14.4657 123.247 13.7506 122.607 13.2672C121.965 12.8007 121.247 12.4479 120.485 12.2242C119.244 11.7758 117.942 11.5181 116.623 11.4599C115.302 11.4023 113.987 11.6856 112.806 12.2826C112.543 12.404 112.311 12.5839 112.128 12.8086C111.973 13.035 111.866 13.2904 111.813 13.5594C111.394 15.1725 111.279 16.8493 111.471 18.5047" fill="#263238"/>
<path id="Vector_96" d="M111.291 21.4763C111.481 21.9247 111.757 22.3311 112.104 22.6722C112.451 23.0133 112.863 23.2822 113.314 23.4634C114.533 23.94 115.279 22.879 115.063 21.6652C114.865 20.5682 113.993 18.9992 112.717 19.0442C111.44 19.0891 110.833 20.3569 111.291 21.4763Z" fill="#E9B376"/>
<path id="Vector_97" opacity="0.2" d="M113.971 21.4404C113.945 21.4399 113.921 21.4307 113.901 21.4144C113.882 21.398 113.868 21.3755 113.863 21.3505C113.797 21.037 113.652 20.7458 113.44 20.5053C113.278 20.3032 113.051 20.1635 112.797 20.1097C112.681 20.0877 112.561 20.1008 112.452 20.1472C112.343 20.1937 112.251 20.2713 112.186 20.3704C112.179 20.3839 112.17 20.3958 112.159 20.4055C112.147 20.4152 112.134 20.4224 112.12 20.4266C112.105 20.4308 112.09 20.432 112.075 20.4301C112.06 20.4281 112.046 20.4231 112.033 20.4154C112.02 20.4083 112.009 20.3987 111.999 20.3872C111.99 20.3757 111.983 20.3625 111.979 20.3483C111.975 20.3341 111.973 20.3192 111.975 20.3045C111.977 20.2897 111.981 20.2755 111.988 20.2625C112.076 20.1228 112.203 20.0126 112.353 19.9461C112.504 19.8796 112.671 19.8598 112.833 19.8894C113.136 19.9459 113.411 20.1046 113.611 20.3389C113.839 20.6121 113.993 20.9384 114.061 21.2875C114.066 21.3173 114.06 21.3479 114.043 21.3731C114.026 21.3982 114 21.4159 113.971 21.4224V21.4404Z" fill="black"/>
</g>
<g id="Hand">
<path id="Vector_98" d="M171.111 115.05L154.653 140.001C148.736 147.644 143.8 154.388 134.871 156.986L103.204 168.931C101.347 169.631 99.703 170.797 98.4295 172.318C97.156 173.839 96.2965 175.662 95.9341 177.613L97.1075 183.88H63.1199C63.1199 183.88 63.5694 159.297 65.6465 151.884C67.5931 144.938 72.444 138.846 82.402 136.845C90.6831 135.168 122.239 129.234 128.357 129.036C130.96 128.955 131.603 130.763 131.482 130.965L132.925 130.803C132.925 130.803 149.896 115.828 153.605 112.204C156.478 109.399 161.275 111.031 161.275 111.031C161.275 111.031 166.395 106.301 170.055 108.626C170.064 108.608 173.431 111.013 171.111 115.05Z" fill="#DB8C7E"/>
<path id="Vector_99" opacity="0.3" d="M131.482 130.947C133.478 136.648 128.537 140.172 122.783 142.834C117.028 145.495 102.606 150.265 102.606 150.265L102.156 152.805L104.584 150.854C104.584 150.854 116.444 146.651 124.365 142.96C129.4 140.617 131.199 138.716 132.035 136.773C132.718 135.149 132.831 133.341 132.354 131.644L132.174 130.785L131.482 130.947Z" fill="black"/>
<path id="Vector_100" opacity="0.3" d="M161.284 111.013C161.284 111.013 164.498 113.944 161.904 117.078C159.719 119.717 141.876 142.622 141.876 142.622L144.151 140.757C144.151 140.757 162.583 119.015 163.752 117.114C165.474 114.272 162.776 110.982 161.284 111.013Z" fill="black"/>
</g>
</g>
</svg>
