<svg width="94" height="30" viewBox="0 0 94 30" fill="none" xmlns="http://www.w3.org/2000/svg">
<g id="Business web">
<path fill-rule="evenodd" clip-rule="evenodd" d="M5.92136 3.41995C4.75551 3.41995 3.67497 3.8037 2.8077 4.44329V1.0606C2.8077 0.477874 2.3243 -0.00537109 1.74137 -0.00537109C1.15845 -0.00537109 0.675049 0.477874 0.675049 1.0606V8.66454C0.675049 11.564 3.02096 13.9091 5.92136 13.9091C8.82176 13.9091 11.1677 11.564 11.1677 8.66454C11.1677 5.76509 8.82176 3.41995 5.92136 3.41995ZM5.92136 11.8056C4.18681 11.8056 2.77926 10.3985 2.77926 8.66454C2.77926 6.93056 4.18681 5.52348 5.92136 5.52348C7.65591 5.52348 9.06346 6.93056 9.06346 8.66454C9.06346 10.3985 7.65591 11.8056 5.92136 11.8056Z" fill="#A1A6BA"/>
<path fill-rule="evenodd" clip-rule="evenodd" d="M86.6776 2.26871C83.0947 2.26871 80.1801 5.18237 80.1801 8.76404C80.1801 12.3457 83.0947 15.2594 86.6776 15.2594C90.2604 15.2594 93.175 12.3457 93.175 8.76404C93.175 5.16816 90.2604 2.26871 86.6776 2.26871ZM90.0614 9.81579H87.7439V12.1325C87.7439 12.7152 87.2605 13.1985 86.6776 13.1985C86.0947 13.1985 85.6113 12.7152 85.6113 12.1325V9.81579H83.2938C82.7109 9.81579 82.2275 9.33256 82.2275 8.74982C82.2275 8.16709 82.7109 7.68385 83.2938 7.68385H85.6113V5.36713C85.6113 4.7844 86.0947 4.30116 86.6776 4.30116C87.2605 4.30116 87.7439 4.7844 87.7439 5.36713V7.68385H90.0614C90.6443 7.68385 91.1277 8.16709 91.1277 8.74982C91.1277 9.33256 90.6443 9.81579 90.0614 9.81579Z" fill="#A1A6BA"/>
<path d="M24.0346 6.53265C24.0346 4.54283 25.7407 3.39159 27.1909 3.39159H31.243C31.8259 3.39159 32.2951 3.8464 32.2951 4.44335C32.2951 5.13978 31.6979 5.4951 31.243 5.4951H27.2051C26.5227 5.4951 26.153 6.04941 26.153 6.53265C26.153 7.0301 26.5085 7.59862 27.2051 7.59862H29.6648C31.57 7.59862 32.8211 9.19048 32.8211 10.7397C32.8211 12.3458 31.6268 13.9234 29.6648 13.9234H25.6412C24.973 13.9234 24.5749 13.3691 24.5749 12.8574C24.5749 12.3031 25.0014 11.7915 25.627 11.7915H29.6221C30.3188 11.7915 30.66 11.1519 30.66 10.7539C30.66 10.3702 30.3472 9.73057 29.6221 9.73057H27.1909C26.0962 9.71636 24.0346 8.84937 24.0346 6.53265Z" fill="#A1A6BA"/>
<path d="M59.6498 6.53265C59.6498 4.54283 61.3559 3.39159 62.8061 3.39159H66.8439C67.4268 3.39159 67.896 3.8464 67.896 4.44335C67.896 5.13978 67.2989 5.4951 66.8439 5.4951H62.8061C62.1237 5.4951 61.754 6.04941 61.754 6.53265C61.754 7.0301 62.1095 7.59862 62.8061 7.59862H65.2658C67.1709 7.59862 68.4221 9.19048 68.4221 10.7397C68.4221 12.3458 67.2278 13.9234 65.2658 13.9234H61.2422C60.5597 13.9234 60.1759 13.3691 60.1759 12.8574C60.1759 12.3031 60.6024 11.7915 61.228 11.7915H65.2231C65.9198 11.7915 66.261 11.1519 66.261 10.7539C66.261 10.3702 65.9482 9.73057 65.2231 9.73057H62.8061C61.6971 9.71636 59.6498 8.84937 59.6498 6.53265Z" fill="#A1A6BA"/>
<path d="M71.9907 3.39159C70.5405 3.39159 68.8344 4.54283 68.8344 6.53265C68.8344 8.84937 70.8818 9.71636 71.9907 9.73057H74.422C75.147 9.73057 75.4598 10.3702 75.4598 10.7539C75.4598 11.1519 75.1186 11.7915 74.422 11.7915H70.4268C69.8012 11.7915 69.3747 12.3031 69.3747 12.8574C69.3747 13.3691 69.7586 13.9234 70.441 13.9234H74.4646C76.4266 13.9234 77.6209 12.3458 77.6209 10.7397C77.6209 9.19048 76.3698 7.59862 74.4646 7.59862H71.9907C71.2941 7.59862 70.9386 7.0301 70.9386 6.53265C70.9386 6.04941 71.3083 5.4951 71.9907 5.4951H76.0285C76.4835 5.4951 77.0806 5.13978 77.0806 4.44335C77.0806 3.8464 76.6115 3.39159 76.0285 3.39159H71.9907Z" fill="#A1A6BA"/>
<path d="M34.058 4.45756C34.058 3.87483 34.5414 3.39159 35.1244 3.39159C35.7073 3.39159 36.1907 3.87483 36.1907 4.45756V12.8432C36.1907 13.4259 35.7073 13.9092 35.1244 13.9092C34.5414 13.9092 34.058 13.4259 34.058 12.8432V4.45756Z" fill="#A1A6BA"/>
<path fill-rule="evenodd" clip-rule="evenodd" d="M34.2998 20.5181C35.167 19.8785 36.2476 19.4948 37.4134 19.4948C40.3138 19.4948 42.6597 21.8399 42.6597 24.7394C42.6597 27.6388 40.3138 29.984 37.4134 29.984C34.513 29.984 32.1671 27.6388 32.1671 24.7394V17.1354C32.1671 16.5527 32.6505 16.0695 33.2334 16.0695C33.8164 16.0695 34.2998 16.5527 34.2998 17.1354V20.5181ZM34.2713 24.7394C34.2713 26.4733 35.6789 27.8804 37.4134 27.8804C39.148 27.8804 40.5413 26.4733 40.5555 24.7394C40.5555 23.0054 39.148 21.5983 37.4134 21.5983C35.6789 21.5983 34.2713 23.0054 34.2713 24.7394Z" fill="#A1A6BA"/>
<path d="M21.7883 3.39159C21.2054 3.39159 20.722 3.87483 20.722 4.45756L20.7362 8.73566C20.6935 10.427 19.3144 11.7772 17.6083 11.7772C15.9022 11.7772 14.5231 10.427 14.4804 8.73566L14.4946 4.45756C14.4946 3.87483 14.0112 3.39159 13.4283 3.39159C12.8454 3.39159 12.362 3.87483 12.362 4.45756V8.73566C12.4046 11.5925 14.7363 13.9092 17.6083 13.9092C20.4803 13.9092 22.8119 11.6067 22.8546 8.73566V4.45756C22.8546 3.87483 22.3712 3.39159 21.7883 3.39159Z" fill="#A1A6BA"/>
<path d="M17.395 20.5324C17.395 19.9497 17.8784 19.4664 18.4613 19.4664C19.0442 19.4664 19.5276 19.9497 19.5276 20.5324V24.8105C19.485 27.6815 17.1533 29.984 14.2813 29.984C12.5752 29.984 11.0539 29.1739 10.1013 27.9089C9.14876 29.1739 7.62747 29.984 5.92136 29.984C3.04939 29.984 0.717702 27.6815 0.675049 24.8105V20.5324C0.675049 19.9497 1.15845 19.4664 1.74137 19.4664C2.3243 19.4664 2.8077 19.9497 2.8077 20.5324L2.79348 24.8105C2.83613 26.5018 4.21524 27.8521 5.92136 27.8521C7.59904 27.8521 8.96393 26.5302 9.03502 24.8815V20.5324C9.03502 19.9497 9.51842 19.4664 10.1013 19.4664C10.6843 19.4664 11.1677 19.9497 11.1677 20.5324V24.8815C11.2388 26.5302 12.6036 27.8521 14.2813 27.8521C15.9874 27.8521 17.3666 26.5018 17.4092 24.8105L17.395 20.5324Z" fill="#A1A6BA"/>
<path d="M38.5082 13.9092C39.0911 13.9092 39.5745 13.4259 39.5745 12.8432L39.5603 8.56511C39.603 6.87376 40.9821 5.52353 42.6882 5.52353C44.3943 5.52353 45.7734 6.87376 45.8161 8.56511L45.8019 12.8432C45.8019 13.4259 46.2853 13.9092 46.8682 13.9092C47.4511 13.9092 47.9345 13.4259 47.9345 12.8432V8.56511C47.8919 5.7083 45.5602 3.39159 42.6882 3.39159C39.8162 3.39159 37.4845 5.69409 37.4419 8.56511V12.8432C37.4419 13.4259 37.9111 13.9092 38.5082 13.9092Z" fill="#A1A6BA"/>
<path d="M36.1907 1.16012C36.1907 1.74884 35.7133 2.22609 35.1244 2.22609C34.5354 2.22609 34.058 1.74884 34.058 1.16012C34.058 0.571398 34.5354 0.0941475 35.1244 0.0941475C35.7133 0.0941475 36.1907 0.571398 36.1907 1.16012Z" fill="#A1A6BA"/>
<path fill-rule="evenodd" clip-rule="evenodd" d="M58.7541 9.73052C58.2707 9.40362 57.6025 9.53153 57.2755 10.0148C57.2748 10.0154 57.2718 10.0195 57.2664 10.0267C57.1504 10.1811 55.9515 11.7772 54.3893 11.7772C53.9201 11.7772 53.4651 11.6635 53.0528 11.4787L58.0859 6.46153C58.4982 6.04935 58.4982 5.36713 58.0859 4.95496L58.07 4.93904C57.7581 4.62654 56.54 3.40574 54.3751 3.40574C51.4747 3.40574 49.1287 5.75088 49.1287 8.65034C49.1287 11.5498 51.4747 13.8949 54.3751 13.8949C57.2433 13.8949 58.888 11.4207 59.0341 11.201L59.0384 11.1945C59.3797 10.7254 59.2517 10.0574 58.7541 9.73052ZM51.2614 8.66454C51.2614 6.94478 52.6547 5.53769 54.3893 5.53769C54.8585 5.53769 55.3134 5.63718 55.7115 5.83616L51.56 9.97214C51.3751 9.57418 51.2614 9.13357 51.2614 8.66454Z" fill="#A1A6BA"/>
<path fill-rule="evenodd" clip-rule="evenodd" d="M28.9966 26.0896C29.3236 25.6064 29.9918 25.4784 30.4752 25.8053C30.9728 26.1322 31.1008 26.8002 30.7596 27.2693L30.7552 27.2758C30.6091 27.4957 28.9644 29.9697 26.0962 29.9697C23.1958 29.9697 20.8499 27.6246 20.8499 24.7252C20.8499 21.8257 23.1958 19.4806 26.0962 19.4806C28.2611 19.4806 29.4793 20.7014 29.7911 21.0139L29.807 21.0298C30.2193 21.442 30.2193 22.1242 29.807 22.5364L24.7739 27.5535C25.1862 27.7383 25.6412 27.852 26.1104 27.852C27.6727 27.852 28.8716 26.2558 28.9875 26.1015L28.9937 26.0932C28.9953 26.0911 28.9963 26.0899 28.9966 26.0896ZM26.1104 21.6125C24.3758 21.6125 22.9825 23.0196 22.9825 24.7394C22.9825 25.2084 23.0963 25.649 23.2811 26.047L27.4326 21.911C27.0345 21.712 26.5796 21.6125 26.1104 21.6125Z" fill="#A1A6BA"/>
<path d="M50.6358 22.9344C50.4937 23.1334 50.2946 23.304 50.0529 23.4319C49.8112 23.5598 49.5269 23.6167 49.1998 23.6167C48.9155 23.6167 48.6454 23.574 48.4037 23.4745C48.162 23.375 47.9487 23.2471 47.7781 23.0623C47.6075 22.8918 47.4653 22.6786 47.3658 22.437C47.2662 22.1954 47.2236 21.9253 47.2236 21.6411C47.2236 21.3426 47.2805 21.0725 47.38 20.8309C47.4795 20.5893 47.6217 20.3761 47.8065 20.2055C47.9913 20.035 48.2046 19.8928 48.4463 19.8076C48.688 19.7081 48.9581 19.6654 49.2425 19.6654C49.3705 19.6654 49.4984 19.6797 49.6264 19.7081C49.7543 19.7365 49.8823 19.7649 50.0103 19.8218C50.124 19.8644 50.2377 19.9355 50.3373 20.0066C50.4368 20.0776 50.5221 20.1629 50.5932 20.2624L50.1809 20.5751C50.0956 20.4472 49.9534 20.3477 49.7828 20.2624C49.6122 20.1771 49.4273 20.1345 49.2425 20.1345C49.0292 20.1345 48.8302 20.1771 48.6454 20.2482C48.4747 20.3334 48.3184 20.4329 48.1904 20.5751C48.0624 20.7172 47.9771 20.8735 47.906 21.0583C47.835 21.2431 47.8065 21.4421 47.8065 21.6411C47.8065 21.8542 47.835 22.0532 47.906 22.238C47.9771 22.4228 48.0624 22.5791 48.1904 22.7212C48.3184 22.8634 48.4605 22.9628 48.6311 23.0481C48.8018 23.1334 49.0008 23.1618 49.2141 23.1618C49.4273 23.1618 49.6264 23.1192 49.797 23.0339C49.9676 22.9486 50.1098 22.8207 50.2235 22.6644L50.6358 22.9344Z" fill="#A1A6BA"/>
<path fill-rule="evenodd" clip-rule="evenodd" d="M53.5362 22.7922C53.6073 22.6217 53.6358 22.4511 53.6358 22.2521C53.6358 22.0531 53.5931 21.8684 53.5362 21.712C53.4651 21.5557 53.3798 21.4136 53.2519 21.2998C53.1239 21.1862 52.9817 21.1009 52.8111 21.0298C52.6405 20.9587 52.4557 20.9303 52.2709 20.9303C52.0718 20.9303 51.9012 20.9587 51.7306 21.0298C51.5742 21.0867 51.4178 21.1862 51.3041 21.2998C51.1903 21.4136 51.0908 21.5557 51.0197 21.712C50.9486 21.8826 50.9202 22.0531 50.9202 22.2521C50.9202 22.4511 50.9486 22.6359 51.0197 22.7922C51.0908 22.9628 51.1903 23.1049 51.3041 23.2186C51.4178 23.3323 51.56 23.4176 51.7306 23.4887C51.9012 23.5597 52.086 23.5881 52.2709 23.5881C52.4699 23.5881 52.6405 23.5597 52.8111 23.4887C52.9817 23.4318 53.1239 23.3323 53.2519 23.2186C53.3656 23.0907 53.4651 22.9486 53.5362 22.7922ZM53.0528 21.911C53.0955 22.0105 53.1097 22.1384 53.1097 22.2521C53.1097 22.3658 53.0955 22.4795 53.0528 22.5932C53.0244 22.7069 52.9675 22.8064 52.8964 22.8917C52.8253 22.977 52.7258 23.0481 52.6263 23.0907C52.5268 23.1333 52.413 23.1617 52.2709 23.1617C52.1429 23.1617 52.0149 23.1333 51.9154 23.0907C51.8017 23.0481 51.7164 22.977 51.6453 22.8917C51.5742 22.8064 51.5315 22.7069 51.4889 22.5932C51.4462 22.4937 51.432 22.3658 51.432 22.2521C51.432 22.1384 51.4462 22.0247 51.4889 21.911C51.5173 21.8115 51.5742 21.712 51.6453 21.6268C51.7164 21.5415 51.8159 21.4704 51.9154 21.4278C52.0149 21.3851 52.1287 21.3567 52.2709 21.3567C52.3988 21.3567 52.5268 21.3851 52.6263 21.4278C52.74 21.4704 52.8253 21.5415 52.8964 21.6268C52.9675 21.712 53.0102 21.7973 53.0528 21.911Z" fill="#A1A6BA"/>
<path d="M55.1144 21.0583C55.2565 20.9588 55.4272 20.9162 55.612 20.9162C55.7826 20.9162 55.939 20.9588 56.067 21.0299C56.1949 21.1009 56.3087 21.2431 56.394 21.4136C56.4793 21.2573 56.593 21.1294 56.7494 21.0441C56.9058 20.9588 57.0622 20.9162 57.247 20.9162C57.4034 20.9162 57.5456 20.9446 57.6735 21.0014C57.7873 21.0583 57.8868 21.1294 57.9721 21.2288C58.0432 21.3283 58.1143 21.4278 58.1427 21.5557C58.1854 21.6837 58.1996 21.8116 58.1996 21.9537V23.5171H57.702V22.1243C57.702 22.0248 57.6878 21.9253 57.6735 21.8258C57.6593 21.7405 57.6309 21.6552 57.5882 21.5842C57.5456 21.5131 57.4887 21.4563 57.4176 21.4136C57.3465 21.371 57.2612 21.3568 57.1475 21.3568C57.0338 21.3568 56.9342 21.3852 56.8489 21.4278C56.7636 21.4705 56.7067 21.5415 56.6499 21.6126C56.593 21.6837 56.5646 21.7689 56.5361 21.8684C56.5077 21.9679 56.5077 22.0674 56.5077 22.1669V23.5313H56.0101V22.0248C56.0101 21.9253 55.9959 21.84 55.9817 21.7547C55.9674 21.6695 55.939 21.5984 55.8963 21.5415C55.8537 21.4847 55.7968 21.442 55.7257 21.3994C55.6546 21.371 55.5693 21.3425 55.4698 21.3425C55.285 21.3425 55.1286 21.4136 55.0149 21.57C54.8869 21.7263 54.83 21.9253 54.83 22.1669V23.5029H54.3324V21.2715C54.3324 21.2198 54.3286 21.1682 54.3249 21.1185C54.3242 21.1092 54.3235 21.1 54.3229 21.0908C54.3214 21.0711 54.3202 21.0517 54.3193 21.0328C54.3186 21.0172 54.3182 21.002 54.3182 20.9872H54.7874C54.7874 20.9944 54.7876 21.002 54.788 21.01C54.7884 21.0183 54.789 21.0271 54.7897 21.0361C54.7909 21.0509 54.7924 21.0664 54.7939 21.0823C54.7976 21.1214 54.8016 21.1629 54.8016 21.2004V21.3994H54.8158C54.8727 21.2715 54.9864 21.1578 55.1144 21.0583Z" fill="#A1A6BA"/>
<path fill-rule="evenodd" clip-rule="evenodd" d="M59.0527 24.7963H59.5361V23.1618H59.5503C59.6498 23.304 59.7778 23.4177 59.9342 23.4887C60.0906 23.5598 60.2612 23.6024 60.446 23.6024C60.6451 23.6024 60.8157 23.574 60.9721 23.5029C61.1285 23.4319 61.2564 23.3324 61.3702 23.2187C61.4839 23.0908 61.5692 22.9486 61.6261 22.7923C61.683 22.6217 61.7114 22.4512 61.7114 22.2664C61.7114 22.0959 61.683 21.9111 61.6261 21.7547C61.5692 21.5842 61.4839 21.4421 61.3702 21.3284C61.2564 21.2005 61.1285 21.1152 60.9721 21.0441C60.8157 20.973 60.6451 20.9446 60.4603 20.9446C60.247 20.9446 60.0621 20.9873 59.9058 21.0725C59.7494 21.1578 59.6356 21.2715 59.5503 21.3994H59.5361V21.0015H59.0527V24.7963ZM61.1427 21.9111C61.1853 22.0248 61.1996 22.1385 61.1996 22.2522C61.1996 22.3659 61.1853 22.4796 61.1427 22.5791C61.1143 22.6928 61.0574 22.7923 60.9863 22.8776C60.9152 22.9628 60.8157 23.0197 60.7162 23.0766C60.6024 23.1192 60.4887 23.1476 60.3465 23.1476C60.2185 23.1476 60.0906 23.1192 59.9911 23.0766C59.8915 23.0339 59.792 22.9628 59.7209 22.8776C59.6498 22.8065 59.593 22.707 59.5503 22.5933C59.5077 22.4938 59.4934 22.3659 59.4934 22.2522C59.4934 22.1385 59.5077 22.0248 59.5503 21.9111C59.593 21.7974 59.6498 21.6979 59.7209 21.6126C59.792 21.5273 59.8915 21.4563 59.9911 21.4136C60.1048 21.371 60.2185 21.3426 60.3465 21.3426C60.4887 21.3426 60.6166 21.371 60.7162 21.4136C60.8299 21.4563 60.9152 21.5273 60.9863 21.6126C61.0574 21.6979 61.1 21.7974 61.1427 21.9111Z" fill="#A1A6BA"/>
<path d="M62.4054 21.1892C62.404 21.1653 62.4023 21.1417 62.4005 21.1185C62.3971 21.0725 62.3938 21.0282 62.3938 20.9872H62.863C62.863 21.0128 62.8659 21.0441 62.8691 21.0785C62.8711 21.1002 62.8732 21.1232 62.8747 21.1468L62.8752 21.1546L62.8757 21.1633C62.8767 21.1802 62.8773 21.1974 62.8773 21.2146V21.4136H62.8915C62.9626 21.2715 63.0621 21.1436 63.2042 21.0583C63.3464 20.973 63.4886 20.9162 63.6592 20.9162C63.7303 20.9162 63.8014 20.9304 63.8583 20.9446L63.8298 21.4136C63.7587 21.3994 63.6876 21.3852 63.6023 21.3852C63.4886 21.3852 63.3749 21.4136 63.2896 21.4563C63.2043 21.4989 63.1332 21.5557 63.0621 21.641C63.0052 21.7121 62.9626 21.7974 62.9341 21.8969C62.9057 21.9963 62.8915 22.0958 62.8915 22.2095V23.5313H62.3938V21.5557C62.4223 21.4705 62.4223 21.3852 62.4081 21.2715C62.4081 21.2566 62.4077 21.2416 62.4072 21.2268C62.4067 21.2142 62.4061 21.2017 62.4054 21.1892Z" fill="#A1A6BA"/>
<path fill-rule="evenodd" clip-rule="evenodd" d="M66.7018 22.7922C66.7729 22.6217 66.8013 22.4511 66.8013 22.2521C66.8013 22.0531 66.7729 21.8684 66.7018 21.712C66.6307 21.5557 66.5454 21.4136 66.4174 21.2998C66.3037 21.1862 66.1615 21.1009 65.9909 21.0298C65.8203 20.9587 65.6355 20.9303 65.4506 20.9303C65.2516 20.9303 65.081 20.9587 64.9104 21.0298C64.754 21.0867 64.5976 21.1862 64.4838 21.2998C64.3701 21.4136 64.2706 21.5557 64.1995 21.712C64.1284 21.8826 64.1 22.0531 64.1 22.2521C64.1 22.4511 64.1284 22.6359 64.1995 22.7922C64.2706 22.9628 64.3701 23.1049 64.4838 23.2186C64.5976 23.3323 64.7398 23.4176 64.9104 23.4887C65.081 23.5597 65.2658 23.5881 65.4506 23.5881C65.6497 23.5881 65.8203 23.5597 65.9909 23.4887C66.1473 23.4318 66.2895 23.3323 66.4174 23.2186C66.5312 23.0907 66.6307 22.9486 66.7018 22.7922ZM66.2184 21.911C66.261 22.0105 66.2753 22.1384 66.2753 22.2521C66.2753 22.3658 66.261 22.4795 66.2184 22.5932C66.19 22.7069 66.1331 22.8064 66.062 22.8917C65.9909 22.977 65.8914 23.0481 65.7919 23.0907C65.6923 23.1333 65.5786 23.1617 65.4364 23.1617C65.3085 23.1617 65.1805 23.1333 65.081 23.0907C64.9672 23.0481 64.8819 22.977 64.8108 22.8917C64.7489 22.8174 64.7086 22.7215 64.671 22.6323L64.663 22.6134C64.6601 22.6066 64.6573 22.5999 64.6545 22.5932C64.6118 22.4937 64.5976 22.3658 64.5976 22.2521C64.5976 22.1384 64.6118 22.0247 64.6545 21.911C64.6829 21.8115 64.7398 21.712 64.8108 21.6268C64.8819 21.5415 64.9815 21.4704 65.081 21.4278C65.1805 21.3851 65.2943 21.3567 65.4364 21.3567C65.5644 21.3567 65.6923 21.3851 65.7919 21.4278C65.9056 21.4704 65.9909 21.5415 66.062 21.6268C66.1331 21.712 66.1757 21.7973 66.2184 21.911Z" fill="#A1A6BA"/>
<path d="M68.2941 21.0583C68.4363 20.9588 68.6069 20.9162 68.7918 20.9162C68.9624 20.9162 69.1188 20.9588 69.2467 21.0299C69.3889 21.1009 69.4884 21.2431 69.5737 21.4136C69.659 21.2573 69.7728 21.1294 69.9292 21.0441C70.0856 20.9588 70.242 20.9162 70.4268 20.9162C70.5832 20.9162 70.7254 20.9446 70.8533 21.0014C70.9671 21.0583 71.0666 21.1294 71.1519 21.2288C71.223 21.3283 71.2941 21.4278 71.3225 21.5557C71.3652 21.6837 71.3794 21.8116 71.3794 21.9537V23.5171H70.8818V22.1243C70.8818 22.0248 70.8675 21.9253 70.8533 21.8258C70.8391 21.7405 70.8107 21.6552 70.768 21.5842C70.7254 21.5131 70.6685 21.4563 70.5974 21.4136C70.5263 21.371 70.441 21.3568 70.3273 21.3568C70.2135 21.3568 70.114 21.3852 70.0287 21.4278C69.9434 21.4705 69.8865 21.5415 69.8296 21.6126C69.7728 21.6837 69.7443 21.7689 69.7159 21.8684C69.6875 21.9679 69.6875 22.0674 69.6875 22.1669V23.5313H69.1898V22.0248C69.1898 21.9253 69.1756 21.84 69.1614 21.7547C69.1472 21.6695 69.1188 21.5984 69.0761 21.5415C69.0335 21.4847 68.9766 21.442 68.9055 21.3994C68.8344 21.371 68.7491 21.3425 68.6496 21.3425C68.4648 21.3425 68.3084 21.4136 68.1946 21.57C68.0667 21.7263 68.0098 21.9253 68.0098 22.1669V23.5029H67.4979V21.2715C67.4979 21.2198 67.4941 21.1682 67.4904 21.1185C67.487 21.0725 67.4837 21.0282 67.4837 20.9872H67.9529C67.9529 21.0141 67.9561 21.0473 67.9594 21.0823L67.9595 21.0824C67.9632 21.1215 67.9671 21.163 67.9671 21.2004V21.3994H67.9814C68.0524 21.2715 68.152 21.1578 68.2941 21.0583Z" fill="#A1A6BA"/>
<path fill-rule="evenodd" clip-rule="evenodd" d="M74.5783 22.2379C74.5783 22.0247 74.5499 21.8542 74.5072 21.6836C74.4504 21.5273 74.3651 21.3851 74.2655 21.2714C74.166 21.1577 74.0381 21.0724 73.8817 21.0156C73.7395 20.9587 73.5689 20.9303 73.384 20.9303C73.1992 20.9303 73.0286 20.9587 72.8722 21.0298C72.7158 21.0867 72.5736 21.1862 72.4599 21.2998C72.3462 21.4136 72.2608 21.5557 72.1898 21.7262C72.1187 21.8968 72.0902 22.0674 72.0902 22.2663C72.0902 22.4653 72.1187 22.6501 72.1898 22.8064C72.2466 22.9628 72.3462 23.1049 72.4599 23.2186C72.5879 23.3323 72.73 23.4318 72.8864 23.4887C73.0428 23.5597 73.2276 23.5881 73.4125 23.5881C73.64 23.5881 73.839 23.5455 74.0238 23.4602C74.1945 23.3749 74.3651 23.247 74.493 23.0623L74.1376 22.778C74.0665 22.8775 73.967 22.977 73.839 23.0481C73.711 23.1191 73.5689 23.1617 73.3983 23.1617C73.2845 23.1617 73.185 23.1475 73.0855 23.1049C72.9859 23.0765 72.9006 23.0196 72.8296 22.9486C72.7443 22.8775 72.6874 22.8064 72.6447 22.7069C72.6021 22.6075 72.5736 22.508 72.5736 22.4085H74.5783V22.2379ZM74.0096 21.7404C74.0523 21.8257 74.0665 21.9252 74.0665 22.0247H72.5736C72.5736 21.9252 72.6021 21.8257 72.6447 21.7404C72.6874 21.6552 72.7442 21.5841 72.8153 21.513C72.8864 21.442 72.9575 21.3994 73.057 21.3567C73.1423 21.3141 73.2561 21.2998 73.3556 21.2998C73.4836 21.2998 73.5831 21.3141 73.6684 21.3567C73.7537 21.3994 73.8248 21.4562 73.8817 21.513C73.9385 21.5841 73.967 21.6552 74.0096 21.7404Z" fill="#A1A6BA"/>
<path d="M76.4978 21.3993H75.8295V22.7069C75.8295 22.8633 75.858 22.9627 75.9148 23.0338C75.9717 23.1049 76.057 23.1333 76.185 23.1333C76.2276 23.1333 76.2845 23.1333 76.3271 23.1191C76.384 23.1049 76.4267 23.0907 76.4693 23.0765L76.4835 23.4886C76.4267 23.5171 76.3556 23.5313 76.2845 23.5455C76.2134 23.5597 76.1423 23.5597 76.057 23.5597C75.8153 23.5597 75.6305 23.4886 75.5167 23.3607C75.3888 23.2328 75.3319 23.0338 75.3319 22.7638V21.3993H74.8485V20.9871H75.3319V20.2623H75.8295V20.9871H76.4978V21.3993Z" fill="#A1A6BA"/>
<path d="M77.5072 20.305C77.5783 20.2482 77.6067 20.1771 77.6067 20.0776C77.6067 19.9923 77.564 19.9213 77.5072 19.836C77.4361 19.7649 77.3508 19.7365 77.2655 19.7365C77.1802 19.7365 77.0949 19.7791 77.038 19.836C76.9669 19.8929 76.9385 19.9781 76.9385 20.0634C76.9385 20.1487 76.9811 20.2198 77.038 20.2908C77.0949 20.3619 77.1802 20.3903 77.2655 20.3903C77.365 20.3903 77.4361 20.3619 77.5072 20.305Z" fill="#A1A6BA"/>
<path d="M77.0238 23.5172H77.5214V21.0015H77.0238V23.5172Z" fill="#A1A6BA"/>
<path fill-rule="evenodd" clip-rule="evenodd" d="M80.4076 23.1192C80.3081 23.2755 80.1801 23.3892 80.0095 23.4745C79.8389 23.5598 79.6683 23.5882 79.4977 23.5882C79.2986 23.5882 79.128 23.5598 78.9716 23.4887C78.8152 23.4176 78.6872 23.3182 78.5735 23.2044C78.4598 23.0907 78.3745 22.9486 78.3176 22.7781C78.2607 22.6217 78.2323 22.4369 78.2323 22.2522C78.2323 22.0674 78.2607 21.8969 78.3176 21.7405C78.3745 21.5842 78.4598 21.442 78.5735 21.3141C78.6872 21.2004 78.8152 21.1009 78.9716 21.0299C79.128 20.9588 79.2986 20.9304 79.4834 20.9304C79.6825 20.9304 79.8673 20.973 80.0237 21.0583C80.1801 21.1436 80.2938 21.2573 80.3791 21.371H80.3934V19.4949H80.891V23.5171H80.4076V23.1192ZM78.7441 22.2522C78.7441 22.3659 78.7583 22.4796 78.801 22.5933C78.8294 22.707 78.8863 22.8065 78.9574 22.8918C79.0285 22.977 79.1138 23.0481 79.2133 23.0907C79.3128 23.1476 79.4408 23.1618 79.5687 23.1618C79.6967 23.1618 79.8104 23.1334 79.9242 23.0907C80.0237 23.0481 80.1232 22.977 80.1943 22.8918C80.2654 22.8065 80.3223 22.707 80.3649 22.6075C80.4076 22.4938 80.4218 22.3801 80.4218 22.2664C80.4218 22.1527 80.4076 22.0248 80.3649 21.9253C80.3223 21.8116 80.2654 21.7121 80.1943 21.6268C80.1232 21.5415 80.0237 21.4705 79.9242 21.4278C79.8247 21.3852 79.6967 21.3568 79.5687 21.3568C79.4266 21.3568 79.3128 21.3852 79.2133 21.4278C79.1138 21.4705 79.0285 21.5415 78.9574 21.6268C78.8863 21.7121 78.8294 21.8116 78.801 21.9253C78.7583 22.0248 78.7441 22.1385 78.7441 22.2522Z" fill="#A1A6BA"/>
<path fill-rule="evenodd" clip-rule="evenodd" d="M84.2321 22.7922C84.3032 22.6217 84.3316 22.4511 84.3316 22.2521C84.3316 22.0531 84.289 21.8684 84.2321 21.712C84.161 21.5557 84.0757 21.4136 83.9478 21.2998C83.834 21.1862 83.6918 21.1009 83.5212 21.0298C83.3506 20.9587 83.1658 20.9303 82.981 20.9303C82.7819 20.9303 82.6113 20.9587 82.4407 21.0298C82.2843 21.0867 82.1279 21.1862 82.0142 21.2998C81.9004 21.4136 81.8009 21.5557 81.7298 21.712C81.6587 21.8826 81.6303 22.0531 81.6303 22.2521C81.6303 22.4511 81.6587 22.6359 81.7298 22.7922C81.8009 22.9628 81.9004 23.1049 82.0142 23.2186C82.1279 23.3323 82.2701 23.4176 82.4407 23.4887C82.6113 23.5597 82.7961 23.5881 82.981 23.5881C83.18 23.5881 83.3506 23.5597 83.5212 23.4887C83.6776 23.4318 83.8198 23.3323 83.9478 23.2186C84.0615 23.0907 84.161 22.9486 84.2321 22.7922ZM83.7487 21.911C83.7914 22.0105 83.8056 22.1384 83.8056 22.2521C83.8056 22.3658 83.7914 22.4795 83.7487 22.5932C83.7203 22.7069 83.6634 22.8064 83.5923 22.8917C83.5212 22.977 83.4217 23.0481 83.3222 23.0907C83.2227 23.1333 83.1089 23.1617 82.9667 23.1617C82.8388 23.1617 82.7108 23.1333 82.6113 23.0907C82.4976 23.0481 82.4123 22.977 82.3412 22.8917C82.2701 22.8064 82.2274 22.7069 82.1848 22.5932C82.1421 22.4937 82.1279 22.3658 82.1279 22.2521C82.1279 22.1384 82.1421 22.0247 82.1848 21.911C82.2132 21.8115 82.2701 21.712 82.3412 21.6268C82.4123 21.5415 82.5118 21.4704 82.6113 21.4278C82.7108 21.3851 82.8246 21.3567 82.9667 21.3567C83.0947 21.3567 83.2227 21.3851 83.3222 21.4278C83.4359 21.4704 83.5212 21.5415 83.5923 21.6268C83.6634 21.712 83.7061 21.7973 83.7487 21.911Z" fill="#A1A6BA"/>
<path d="M86.379 21.6268C86.3221 21.5415 86.2368 21.4562 86.1373 21.3994C86.0378 21.3425 85.9241 21.3141 85.7961 21.3141C85.7392 21.3141 85.6824 21.3141 85.6255 21.3283C85.5686 21.3425 85.5117 21.3567 85.4691 21.3852C85.4264 21.4136 85.3838 21.442 85.3696 21.4846C85.3411 21.5273 85.3269 21.5699 85.3269 21.641C85.3269 21.7405 85.3696 21.8258 85.4691 21.8826C85.5686 21.9395 85.7108 21.9821 85.8956 22.0247C86.0094 22.0532 86.1231 22.0816 86.2368 22.1242C86.3364 22.1669 86.4359 22.2095 86.507 22.2664C86.5781 22.3232 86.6492 22.3943 86.6918 22.4796C86.7345 22.5648 86.7487 22.6501 86.7487 22.7638C86.7487 22.9059 86.7202 23.0339 86.6634 23.1476C86.6065 23.2471 86.5354 23.3323 86.4359 23.4034C86.3364 23.4745 86.2369 23.5171 86.1089 23.5455C85.9951 23.574 85.8672 23.5882 85.7392 23.5882C85.5544 23.5882 85.3554 23.5455 85.1847 23.4745C84.9999 23.4034 84.8435 23.2897 84.7298 23.1334L85.0852 22.8349C85.1563 22.9344 85.2416 23.0197 85.3696 23.0907C85.4833 23.1618 85.6255 23.1902 85.7677 23.1902C85.8245 23.1902 85.8956 23.1902 85.9525 23.176C86.0094 23.1618 86.0662 23.1476 86.1089 23.1191C86.1515 23.0907 86.1942 23.0481 86.2226 23.0054C86.2511 22.9628 86.2653 22.9059 86.2653 22.8349C86.2653 22.7212 86.2084 22.6359 86.0947 22.5791C85.9809 22.5222 85.8245 22.4653 85.597 22.4227C85.5544 22.4085 85.5117 22.3978 85.469 22.3872C85.4264 22.3765 85.3838 22.3659 85.3411 22.3516C85.2558 22.3232 85.1705 22.2806 85.0994 22.2237C85.0283 22.1669 84.9715 22.11 84.9288 22.0247C84.8862 21.9395 84.8577 21.84 84.8577 21.7263C84.8577 21.5984 84.8862 21.4704 84.943 21.3852C84.9999 21.2857 85.071 21.2146 85.1563 21.1435C85.2416 21.0867 85.3411 21.0298 85.4549 21.0014C85.5686 20.973 85.6824 20.9588 85.8103 20.9588C85.9951 20.9588 86.1658 21.0014 86.3364 21.0583C86.507 21.1293 86.6349 21.2288 86.7345 21.3709L86.379 21.6268Z" fill="#A1A6BA"/>
<path d="M48.9013 26.6297C49.015 26.6724 49.0861 26.7434 49.143 26.8287L49.5126 26.4876C49.4131 26.3455 49.2709 26.246 49.1003 26.1749C48.9297 26.1181 48.7449 26.0754 48.5743 26.0754C48.3752 26.0754 48.2046 26.1181 48.034 26.1749C47.8776 26.2318 47.7212 26.3313 47.6075 26.445C47.4795 26.5729 47.3942 26.715 47.3231 26.8714C47.252 27.0277 47.2236 27.2125 47.2236 27.4115C47.2236 27.6247 47.252 27.8094 47.3231 27.9658C47.3942 28.1221 47.4937 28.2642 47.6075 28.3779C47.7212 28.4916 47.8634 28.5911 48.034 28.648C48.2046 28.7191 48.3752 28.7475 48.5743 28.7475C48.7733 28.7475 48.9581 28.7191 49.1145 28.648C49.2709 28.5911 49.4131 28.4916 49.5126 28.3637L49.1714 28.0653C49.1003 28.1505 49.015 28.2216 48.9155 28.2642C48.8018 28.3069 48.688 28.3353 48.5601 28.3353C48.4179 28.3353 48.3041 28.3069 48.2046 28.2642C48.1051 28.2216 48.0198 28.1505 47.9487 28.0653C47.8776 27.9942 47.835 27.8947 47.7923 27.781C47.7496 27.6815 47.7354 27.5536 47.7354 27.4399C47.7354 27.3262 47.7496 27.2125 47.7923 27.0988C47.8207 26.9993 47.8776 26.8998 47.9487 26.8145C48.0198 26.7292 48.1051 26.6582 48.2046 26.6155C48.3184 26.5729 48.4321 26.5445 48.5601 26.5445C48.688 26.5445 48.8018 26.5729 48.9013 26.6297Z" fill="#A1A6BA"/>
<path fill-rule="evenodd" clip-rule="evenodd" d="M52.5552 27.4399C52.5552 27.6388 52.5268 27.8094 52.4557 27.9799C52.3846 28.1363 52.2851 28.2784 52.1713 28.4063C52.0434 28.52 51.9012 28.6195 51.7306 28.6764C51.56 28.7475 51.3894 28.7759 51.1903 28.7759C51.0055 28.7759 50.8206 28.7475 50.65 28.6764C50.4794 28.6053 50.3372 28.52 50.2235 28.4063C50.1098 28.2926 50.0102 28.1505 49.9392 27.9799C49.8681 27.8236 49.8396 27.6388 49.8396 27.4399C49.8396 27.2409 49.8681 27.0703 49.9392 26.8998C50.0102 26.7434 50.1098 26.6013 50.2235 26.4876C50.3372 26.3739 50.4936 26.2744 50.65 26.2175C50.8206 26.1465 50.9913 26.1181 51.1903 26.1181C51.3751 26.1181 51.56 26.1465 51.7306 26.2175C51.9012 26.2886 52.0434 26.3739 52.1713 26.4876C52.2993 26.6013 52.3846 26.7434 52.4557 26.8998C52.5268 27.0703 52.5552 27.2409 52.5552 27.4399ZM52.0434 27.4399C52.0434 27.3262 52.0291 27.1982 51.9865 27.0988C51.9438 26.985 51.9012 26.8998 51.8301 26.8145C51.759 26.7292 51.6737 26.6582 51.56 26.6155C51.4604 26.5729 51.3325 26.5444 51.2045 26.5444C51.0623 26.5444 50.9486 26.5729 50.8491 26.6155C50.7496 26.6582 50.65 26.7292 50.5789 26.8145C50.5079 26.8998 50.451 26.9992 50.4226 27.0988C50.3799 27.2124 50.3657 27.3262 50.3657 27.4399C50.3657 27.5536 50.3799 27.6815 50.4226 27.781C50.4652 27.8947 50.5079 27.9942 50.5789 28.0794C50.65 28.1647 50.7353 28.2358 50.8491 28.2784C50.9486 28.3211 51.0766 28.3495 51.2045 28.3495C51.3467 28.3495 51.4604 28.3211 51.56 28.2784C51.6595 28.2358 51.759 28.1647 51.8301 28.0794C51.9012 27.9942 51.9581 27.8947 51.9865 27.781C52.0149 27.6815 52.0434 27.5678 52.0434 27.4399Z" fill="#A1A6BA"/>
<path d="M53.7133 26.2842C53.71 26.2491 53.7068 26.216 53.7068 26.1891V26.2175H53.2519C53.2519 26.2585 53.2551 26.3028 53.2586 26.3488C53.2622 26.3985 53.2661 26.4501 53.2661 26.5018V28.7332H53.7637V27.3972C53.7637 27.1414 53.8206 26.9424 53.9485 26.7861C54.0765 26.6297 54.2329 26.5587 54.4319 26.5587C54.5457 26.5587 54.6452 26.5729 54.7163 26.6155C54.7874 26.6582 54.8442 26.715 54.8869 26.7861C54.9295 26.8571 54.958 26.9424 54.9722 27.0277C54.9864 27.1272 55.0006 27.2267 55.0006 27.3262V28.719H55.4983V27.1556C55.4983 27.0135 55.484 26.8856 55.4414 26.7576C55.4129 26.6297 55.3419 26.516 55.2708 26.4307C55.1855 26.3312 55.0859 26.2602 54.9722 26.2033C54.8442 26.1465 54.7021 26.1181 54.5457 26.1181C54.4461 26.1181 54.3608 26.1323 54.2755 26.1607C54.1902 26.1749 54.1191 26.2175 54.048 26.2602C53.977 26.3028 53.9201 26.3597 53.8632 26.4165C53.8064 26.4734 53.7637 26.5302 53.7353 26.6013H53.721V26.4023C53.721 26.3962 53.7209 26.3899 53.7207 26.3836C53.7206 26.378 53.7203 26.3724 53.72 26.3668C53.7186 26.3395 53.7159 26.3113 53.7133 26.2842Z" fill="#A1A6BA"/>
<path d="M58.9105 26.6013H58.2423V27.9089C58.2423 28.0653 58.2707 28.1648 58.3276 28.2358C58.3845 28.3069 58.4698 28.3353 58.5977 28.3353C58.6404 28.3353 58.6972 28.3353 58.7399 28.3211C58.7614 28.3157 58.7809 28.3104 58.7991 28.305C58.829 28.2961 58.8555 28.2873 58.8821 28.2785L58.8963 28.6906C58.8394 28.7191 58.7683 28.7333 58.6972 28.7475C58.6262 28.7617 58.5551 28.7617 58.4698 28.7617C58.2281 28.7617 58.0432 28.6906 57.9295 28.5627C57.8015 28.4348 57.7447 28.2358 57.7447 27.9658V26.6013H57.2613V26.1892H57.7447V25.4643H58.2423V26.1892H58.9105V26.6013Z" fill="#A1A6BA"/>
<path d="M61.1931 28.6105C61.1948 28.6285 61.1965 28.6461 61.1977 28.6625C61.1984 28.6725 61.199 28.682 61.1993 28.6911L61.1994 28.6959L61.1995 28.7002L61.1996 28.7049V28.6906H61.6403C61.6403 28.6497 61.637 28.6054 61.6336 28.5594C61.6299 28.5097 61.6261 28.4581 61.6261 28.4064V26.175H61.1285V27.511C61.1285 27.7526 61.0716 27.9516 60.9436 28.1079C60.8299 28.2643 60.6593 28.3353 60.4602 28.3353C60.3465 28.3353 60.247 28.3211 60.1759 28.2785C60.1048 28.2358 60.0479 28.179 60.0053 28.1079C59.9626 28.0369 59.9342 27.9658 59.92 27.8663L59.9199 27.8661C59.9057 27.7667 59.8915 27.6673 59.8915 27.5678V26.175H59.3939V27.7384C59.3939 27.8805 59.4081 28.0084 59.4508 28.1364C59.4934 28.2643 59.5503 28.3638 59.6214 28.4632C59.7067 28.5627 59.8062 28.6338 59.92 28.6906C60.0479 28.7475 60.1901 28.7759 60.3465 28.7759C60.5313 28.7759 60.6877 28.7333 60.8441 28.6338C61.0005 28.5485 61.1142 28.4206 61.1711 28.2927H61.1853V28.4917C61.1853 28.5291 61.1893 28.5706 61.193 28.6097L61.193 28.6098L61.1931 28.6105Z" fill="#A1A6BA"/>
<path d="M64.3132 26.1891C64.3132 26.2013 64.3139 26.2147 64.3149 26.229C64.3161 26.2464 64.3179 26.265 64.3197 26.2842C64.3214 26.3022 64.3232 26.3208 64.3246 26.3392C64.3263 26.3607 64.3274 26.3821 64.3274 26.4023V26.6013H64.3416C64.3701 26.5302 64.4127 26.4734 64.4696 26.4165C64.5265 26.3597 64.5833 26.3028 64.6544 26.2602C64.7255 26.2175 64.7966 26.1749 64.8819 26.1607C64.9672 26.1323 65.0525 26.1181 65.152 26.1181C65.3084 26.1181 65.4506 26.1465 65.5786 26.2033C65.6923 26.2602 65.7918 26.3312 65.8771 26.4307C65.9482 26.516 66.0193 26.6297 66.0478 26.7576C66.0904 26.8856 66.1046 27.0135 66.1046 27.1556V28.719H65.607V27.3262C65.607 27.2267 65.5928 27.1272 65.5786 27.0277C65.5644 26.9424 65.5359 26.8571 65.4933 26.7861C65.4506 26.715 65.3937 26.6582 65.3227 26.6155C65.2516 26.5729 65.152 26.5587 65.0383 26.5587C64.8393 26.5587 64.6829 26.6297 64.5549 26.7861C64.4269 26.9424 64.3701 27.1414 64.3701 27.3972V28.7332H63.8725V26.5018C63.8725 26.4501 63.8686 26.3985 63.8649 26.3488C63.8615 26.3028 63.8582 26.2585 63.8582 26.2175H64.3132V26.1891Z" fill="#A1A6BA"/>
<path fill-rule="evenodd" clip-rule="evenodd" d="M69.3036 27.4256C69.3036 27.2267 69.2752 27.0419 69.2183 26.8713C69.1614 26.715 69.0761 26.5729 68.9766 26.4592C68.8771 26.3455 68.7491 26.2602 68.5927 26.2033C68.4506 26.1465 68.28 26.1181 68.0951 26.1181C67.9103 26.1181 67.7397 26.1465 67.5833 26.2175C67.4269 26.2744 67.2847 26.3739 67.171 26.4876C67.0572 26.6013 66.9719 26.7434 66.9008 26.914C66.8297 27.0845 66.8013 27.2551 66.8013 27.4541C66.8013 27.6531 66.8297 27.8378 66.9008 27.9942C66.9577 28.1505 67.0572 28.2926 67.171 28.4063C67.2989 28.52 67.4411 28.6195 67.5975 28.6764C67.7539 28.7475 67.9387 28.7759 68.1236 28.7759C68.351 28.7759 68.5501 28.7332 68.7349 28.648C68.9197 28.5627 69.0904 28.4348 69.2183 28.25L68.8629 27.9657C68.7918 28.0652 68.6923 28.1647 68.5643 28.2358C68.4363 28.3069 68.2942 28.3495 68.1236 28.3495C68.0098 28.3495 67.9103 28.3353 67.8108 28.2926C67.7113 28.2642 67.6259 28.2074 67.5548 28.1363C67.4695 28.0652 67.4127 27.9942 67.37 27.8947C67.3274 27.7952 67.2989 27.6957 67.2989 27.5962H69.3036V27.4256ZM68.7349 26.9424C68.7776 27.0277 68.7918 27.1272 68.7918 27.2267H67.2989C67.2989 27.1272 67.3274 27.0277 67.37 26.9424C67.4127 26.8571 67.4695 26.7718 67.5406 26.715C67.6117 26.6439 67.6828 26.6013 67.7823 26.5587C67.8676 26.516 67.9814 26.5018 68.0809 26.5018C68.2089 26.5018 68.3084 26.516 68.3937 26.5587C68.479 26.6013 68.5501 26.6582 68.6069 26.715C68.6638 26.7861 68.7065 26.8571 68.7349 26.9424Z" fill="#A1A6BA"/>
<path fill-rule="evenodd" clip-rule="evenodd" d="M70.1993 29.1312C70.313 29.2591 70.441 29.3586 70.6116 29.4297C70.7822 29.5007 70.9528 29.5434 71.1234 29.5434C71.2941 29.5434 71.4362 29.515 71.55 29.4723C71.6637 29.4297 71.749 29.3586 71.8201 29.2733C71.8912 29.1881 71.9339 29.0886 71.9623 28.9749C71.9907 28.8612 72.005 28.7332 72.005 28.6053V28.2784H71.9907C71.9054 28.4205 71.7775 28.5343 71.6068 28.6053C71.4505 28.6764 71.2798 28.719 71.095 28.719C70.9102 28.719 70.7254 28.6906 70.569 28.6195C70.4126 28.5485 70.2704 28.4632 70.1709 28.3495C70.0571 28.2358 69.9718 28.0937 69.9149 27.9373C69.8581 27.781 69.8296 27.6104 69.8296 27.4256C69.8296 27.2409 69.8581 27.0703 69.9149 26.914C69.9718 26.7576 70.0571 26.6155 70.1709 26.5018C70.2846 26.3881 70.4126 26.2886 70.569 26.2175C70.7254 26.1465 70.896 26.1181 71.095 26.1181C71.2798 26.1181 71.4505 26.1607 71.6068 26.2318C71.7775 26.3028 71.9054 26.4307 72.005 26.5871H72.0192V26.1891H72.5026V28.5769C72.5026 28.7617 72.4741 28.9322 72.4315 29.1028C72.3888 29.2733 72.3035 29.4155 72.204 29.5434C72.0903 29.6713 71.9481 29.7708 71.7775 29.8561C71.6068 29.9271 71.3794 29.9698 71.1234 29.9698C70.9102 29.9698 70.6827 29.9271 70.4552 29.8561C70.2277 29.7708 70.0429 29.6571 69.8865 29.515L70.1993 29.1312ZM70.3415 27.4256C70.3415 27.5393 70.3557 27.6531 70.3984 27.7668C70.441 27.8805 70.4837 27.9657 70.569 28.051C70.6401 28.1363 70.7254 28.1931 70.8391 28.25C70.9386 28.2926 71.0666 28.3211 71.1945 28.3211C71.3225 28.3211 71.4362 28.2926 71.55 28.25C71.6637 28.2074 71.749 28.1363 71.8201 28.0652C71.8912 27.9799 71.9481 27.8947 71.9907 27.781C72.0334 27.6673 72.0476 27.5536 72.0476 27.4256C72.0476 27.3119 72.0334 27.1982 71.9907 27.0845C71.9481 26.985 71.8912 26.8856 71.8201 26.8003C71.749 26.715 71.6495 26.6582 71.55 26.6013C71.4505 26.5587 71.3225 26.5302 71.1945 26.5302C71.0666 26.5302 70.9386 26.5587 70.8391 26.6013C70.7396 26.6439 70.6543 26.715 70.569 26.7861C70.4979 26.8713 70.441 26.9566 70.3984 27.0703C70.3699 27.184 70.3415 27.2977 70.3415 27.4256Z" fill="#A1A6BA"/>
<path fill-rule="evenodd" clip-rule="evenodd" d="M75.8153 27.9799C75.8864 27.8094 75.9148 27.6388 75.9148 27.4399C75.9148 27.2409 75.8864 27.0703 75.8153 26.8998C75.7442 26.7434 75.6589 26.6013 75.531 26.4876C75.4172 26.3739 75.275 26.2886 75.1044 26.2175C74.9338 26.1465 74.749 26.1181 74.5642 26.1181C74.3651 26.1181 74.1945 26.1465 74.0239 26.2175C73.8675 26.2744 73.7111 26.3739 73.5974 26.4876C73.4836 26.6013 73.3841 26.7434 73.313 26.8998C73.2419 27.0703 73.2135 27.2409 73.2135 27.4399C73.2135 27.6388 73.2419 27.8236 73.313 27.9799C73.3841 28.1505 73.4836 28.2926 73.5974 28.4063C73.7111 28.52 73.8533 28.6053 74.0239 28.6764C74.1945 28.7475 74.3793 28.7759 74.5642 28.7759C74.7632 28.7759 74.9338 28.7475 75.1044 28.6764C75.2608 28.6195 75.403 28.52 75.531 28.4063C75.6447 28.2784 75.7442 28.1363 75.8153 27.9799ZM75.3461 27.0988C75.3888 27.1982 75.403 27.3262 75.403 27.4399C75.403 27.5678 75.3746 27.6815 75.3461 27.781C75.3177 27.8947 75.2608 27.9942 75.1897 28.0794C75.1186 28.1647 75.0191 28.2358 74.9196 28.2784C74.8201 28.3211 74.7063 28.3495 74.5642 28.3495C74.4362 28.3495 74.3082 28.3211 74.2087 28.2784C74.095 28.2358 74.0097 28.1647 73.9386 28.0794C73.8675 27.9942 73.8248 27.8947 73.7822 27.781C73.7395 27.6815 73.7253 27.5536 73.7253 27.4399C73.7253 27.3262 73.7395 27.2124 73.7822 27.0988C73.8106 26.9992 73.8675 26.8998 73.9386 26.8145C74.0097 26.7292 74.1092 26.6582 74.2087 26.6155C74.3082 26.5729 74.422 26.5444 74.5642 26.5444C74.6921 26.5444 74.8201 26.5729 74.9196 26.6155C75.0333 26.6582 75.1186 26.7292 75.1897 26.8145C75.2608 26.8998 75.3035 26.985 75.3461 27.0988Z" fill="#A1A6BA"/>
<path d="M78.3745 26.8287C78.3176 26.7434 78.2465 26.6724 78.1328 26.6297C78.0332 26.5729 77.9195 26.5445 77.7915 26.5445C77.6636 26.5445 77.5498 26.5729 77.4361 26.6155C77.3366 26.6582 77.2513 26.7292 77.1802 26.8145C77.1091 26.8998 77.0522 26.9993 77.0238 27.0988C76.9811 27.2125 76.9669 27.3262 76.9669 27.4399C76.9669 27.5536 76.9811 27.6815 77.0238 27.781C77.0664 27.8947 77.1091 27.9942 77.1802 28.0653C77.2513 28.1505 77.3366 28.2216 77.4361 28.2642C77.5356 28.3069 77.6494 28.3353 77.7915 28.3353C77.9195 28.3353 78.0332 28.3069 78.147 28.2642C78.2465 28.2216 78.3318 28.1505 78.4029 28.0653L78.7441 28.3637C78.6446 28.4916 78.5024 28.5911 78.346 28.648C78.1896 28.7191 78.0048 28.7475 77.8058 28.7475C77.6067 28.7475 77.4361 28.7191 77.2655 28.648C77.0949 28.5911 76.9527 28.4916 76.839 28.3779C76.7252 28.2642 76.6257 28.1221 76.5546 27.9658C76.4835 27.8094 76.4551 27.6247 76.4551 27.4115C76.4551 27.2125 76.4835 27.0277 76.5546 26.8714C76.6257 26.715 76.711 26.5729 76.839 26.445C76.9527 26.3313 77.1091 26.2318 77.2655 26.1749C77.4361 26.1181 77.6067 26.0754 77.8058 26.0754C77.9764 26.0754 78.1612 26.1181 78.3318 26.1749C78.5024 26.246 78.6446 26.3455 78.7441 26.4876L78.3745 26.8287Z" fill="#A1A6BA"/>
<path d="M79.7251 25.5069C79.7962 25.4501 79.8247 25.379 79.8247 25.2795C79.8247 25.18 79.7962 25.109 79.7251 25.0379C79.6541 24.9668 79.5687 24.9384 79.4834 24.9384C79.3981 24.9384 79.3128 24.981 79.256 25.0379C79.1849 25.0947 79.1564 25.18 79.1564 25.2653C79.1564 25.3506 79.1991 25.4216 79.256 25.4927C79.3128 25.5638 79.3981 25.5922 79.4834 25.5922C79.583 25.5922 79.6541 25.5638 79.7251 25.5069Z" fill="#A1A6BA"/>
<path d="M79.2417 28.7048H79.7393V26.1892H79.2417V28.7048Z" fill="#A1A6BA"/>
<path fill-rule="evenodd" clip-rule="evenodd" d="M83.1658 27.4399C83.1658 27.6388 83.1374 27.8094 83.0663 27.9799C82.9952 28.1363 82.8957 28.2784 82.782 28.4063C82.654 28.52 82.5118 28.6195 82.3554 28.6764C82.1848 28.7475 82.0142 28.7759 81.8152 28.7759C81.6303 28.7759 81.4455 28.7475 81.2749 28.6764C81.1043 28.6053 80.9621 28.52 80.8484 28.4063C80.7346 28.2926 80.6351 28.1505 80.564 27.9799C80.4929 27.8236 80.4645 27.6388 80.4645 27.4399C80.4645 27.2409 80.4929 27.0703 80.564 26.8998C80.6351 26.7434 80.7346 26.6013 80.8484 26.4876C80.9621 26.3739 81.1185 26.2744 81.2749 26.2175C81.4455 26.1465 81.6161 26.1181 81.8152 26.1181C82 26.1181 82.1848 26.1465 82.3554 26.2175C82.526 26.2886 82.6682 26.3739 82.782 26.4876C82.9099 26.6013 82.9952 26.7434 83.0663 26.8998C83.1374 27.0703 83.1658 27.2409 83.1658 27.4399ZM82.654 27.4399C82.654 27.3262 82.6398 27.1982 82.5971 27.0988C82.5545 26.985 82.5118 26.8998 82.4407 26.8145C82.3696 26.7292 82.2843 26.6582 82.1706 26.6155C82.0711 26.5729 81.9431 26.5444 81.8152 26.5444C81.673 26.5444 81.5592 26.5729 81.4597 26.6155C81.3602 26.6582 81.2607 26.7292 81.1896 26.8145C81.1185 26.8998 81.0616 26.9992 81.0332 27.0988C80.9905 27.2124 80.9763 27.3262 80.9763 27.4399C80.9763 27.5536 80.9905 27.6815 81.0332 27.781C81.0758 27.8947 81.1185 27.9942 81.1896 28.0794C81.2607 28.1647 81.346 28.2358 81.4597 28.2784C81.5592 28.3211 81.6872 28.3495 81.8152 28.3495C81.9573 28.3495 82.0711 28.3211 82.1706 28.2784C82.2701 28.2358 82.3696 28.1647 82.4407 28.0794C82.5118 27.9942 82.5687 27.8947 82.5971 27.781C82.6256 27.6815 82.654 27.5678 82.654 27.4399Z" fill="#A1A6BA"/>
<path d="M84.3174 28.6338C84.3885 28.5628 84.417 28.4917 84.417 28.3922C84.417 28.2927 84.3885 28.2074 84.3174 28.1506C84.2463 28.0795 84.161 28.0511 84.0615 28.0511C83.962 28.0511 83.8767 28.0795 83.8056 28.1506C83.7345 28.2074 83.7061 28.2927 83.7061 28.3922C83.7061 28.4775 83.7345 28.5628 83.8056 28.6338C83.8767 28.7049 83.962 28.7333 84.0615 28.7333C84.161 28.7333 84.2463 28.7049 84.3174 28.6338Z" fill="#A1A6BA"/>
</g>
</svg>
