<svg width="129" height="25" viewBox="0 0 129 25" fill="none" xmlns="http://www.w3.org/2000/svg">
<g id="Entrepreneur">
<path d="M11.7607 4.50435C11.846 2.96694 11.9314 1.48079 12.0167 -0.00537109H0.666748V1.61744C0.736773 1.62545 0.806563 1.63346 0.876228 1.64146L1.11146 1.66855C1.55668 1.71985 2.00187 1.77113 2.47592 1.82243V16.7523C1.92975 16.8377 1.41772 16.9231 0.871561 17.0256V18.6655H12.2727C12.2386 17.8798 12.2087 17.1025 12.1789 16.3253C12.149 15.548 12.1191 14.7708 12.085 13.985C11.691 13.9682 11.3094 13.9555 10.93 13.943C10.5369 13.9299 10.1462 13.917 9.74672 13.8996C9.71183 14.2089 9.67693 14.5124 9.64246 14.8122C9.55891 15.5389 9.47786 16.2438 9.40537 16.9573H5.92357V9.90233H7.40845C7.52793 10.4148 7.66447 10.9273 7.80101 11.3885H9.32003V6.81045H7.76688C7.6474 7.32292 7.52793 7.80122 7.40845 8.27952H5.90651V1.63452H9.37123C9.39683 2.10428 9.42243 2.5655 9.44804 3.02673C9.47364 3.48795 9.49924 3.94917 9.52484 4.41893C9.90144 4.43568 10.2657 4.44833 10.6278 4.46089C11.0041 4.47395 11.378 4.48693 11.7607 4.50435Z" fill="#A1A6BA"/>
<path fill-rule="evenodd" clip-rule="evenodd" d="M52.4205 24.3895V24.3897C52.4089 24.5812 52.397 24.7783 52.3816 24.9859H58.031C58.0475 24.7713 58.06 24.5647 58.0724 24.3603C58.0856 24.1416 58.0987 23.9255 58.1164 23.7047C57.6385 23.6022 57.2288 23.5168 56.8192 23.4314V18.4263C56.9046 18.4434 56.9558 18.4605 57.007 18.4776C57.7921 18.8363 58.6113 18.9046 59.4647 18.8363C61.1203 18.6996 62.315 17.8797 62.9806 16.3423C63.1854 15.8298 63.3391 15.3003 63.4415 14.7536C63.7316 13.2846 63.7145 11.7984 63.5951 10.3293C63.5439 9.61188 63.3903 8.87734 63.1854 8.19405C62.7075 6.65665 61.7688 5.58047 60.0621 5.40965C58.6967 5.27299 57.5019 5.6488 56.5803 6.7079C56.5715 6.71663 56.5628 6.72487 56.5541 6.73278C56.5503 6.73624 56.5465 6.73963 56.5427 6.74298L56.5368 6.74808C56.5257 6.75768 56.5146 6.76694 56.5035 6.7762C56.4779 6.79756 56.4523 6.81893 56.4267 6.84455C56.329 6.50245 56.2401 6.17782 56.1474 5.83942L56.1465 5.83632C56.1099 5.70259 56.0727 5.56671 56.0341 5.42673C54.737 5.61464 53.491 5.78546 52.2451 5.95628V7.2887C52.6669 7.36148 53.0763 7.42187 53.4733 7.48041C53.5422 7.49057 53.6107 7.50066 53.6788 7.51077V23.4314C53.2692 23.5339 52.8766 23.6193 52.467 23.7047C52.4482 23.9295 52.4347 24.1543 52.4206 24.3875L52.4205 24.3885L52.4205 24.3895ZM59.789 16.7693C58.782 17.111 57.8091 17.0939 56.8021 16.6669V8.8261C56.8021 8.14281 57.2288 7.63034 57.9115 7.49369C57.9798 7.49369 58.031 7.4766 58.0822 7.45952C59.2087 7.27161 59.9426 7.69867 60.2839 8.77486C60.4376 9.27023 60.54 9.79979 60.5741 10.3123C60.6765 11.8497 60.7106 13.3871 60.4888 14.9074C60.44 15.2612 60.3477 15.6149 60.2554 15.9687L60.2554 15.969L60.2335 16.0529L60.2173 16.1155L60.2126 16.1337L60.2005 16.1807L60.1917 16.215C60.1766 16.2745 60.1618 16.334 60.1474 16.3935C60.0962 16.5814 59.9938 16.701 59.789 16.7693Z" fill="#A1A6BA"/>
<path d="M94.6069 17.0427C95.0848 17.1452 95.5115 17.2306 95.9382 17.316C95.9297 17.5466 95.9169 17.7687 95.9041 17.9907C95.8913 18.2128 95.8784 18.4349 95.8699 18.6655H91.5177C91.5177 18.6142 91.5134 18.5673 91.5091 18.5203C91.5049 18.4733 91.5006 18.4263 91.5006 18.3751C91.5006 17.4128 91.5025 16.4505 91.5044 15.4882C91.5082 13.5636 91.512 11.639 91.5006 9.71439C91.5006 9.3215 91.4153 8.9286 91.2958 8.55279C91.1593 8.10865 90.7838 7.85242 90.3229 7.74993C89.8792 7.64743 89.4354 7.6816 89.0258 7.85242C88.6674 8.00616 88.3772 8.29655 88.3772 8.72361V16.9231C88.3772 16.9418 88.3824 16.9554 88.3898 16.9752C88.396 16.9914 88.4037 17.0118 88.4114 17.0427C88.8039 17.1281 89.2135 17.2135 89.6914 17.2989C89.6734 17.534 89.6601 17.7691 89.6465 18.0093L89.6465 18.0101L89.6464 18.0113C89.6344 18.2242 89.6221 18.4411 89.6061 18.6655H84.0079V17.316C84.4346 17.2306 84.8272 17.1452 85.2539 17.0427V7.64743L85.1004 7.63039L85.0994 7.6303L85.099 7.63024L85.0984 7.63018C84.6858 7.58449 84.2597 7.5373 83.8202 7.47661V6.09295C85.032 5.92213 86.2438 5.75131 87.5068 5.56341C87.585 5.83166 87.6558 6.09992 87.7242 6.3586L87.7248 6.36082L87.7256 6.36407C87.7612 6.49884 87.7962 6.63099 87.8311 6.75916C87.9197 6.69264 88.0101 6.62072 88.1029 6.54691L88.1031 6.54675C88.2962 6.39316 88.4996 6.23138 88.7186 6.09295C89.9304 5.32425 91.2446 5.18759 92.5929 5.66589C93.7194 6.07587 94.3168 6.96414 94.5045 8.12573C94.5557 8.4503 94.5728 8.77487 94.5728 9.09942V16.5302C94.6069 16.7181 94.6069 16.8719 94.6069 17.0427Z" fill="#A1A6BA"/>
<path d="M18.6086 17.2135C18.328 17.1566 18.0473 17.0996 17.7515 17.0427C17.7504 17.0331 17.7494 17.0236 17.7485 17.0142L17.7476 17.0054L17.7461 16.9889L17.7451 16.9785C17.7426 16.9496 17.7404 16.9212 17.7382 16.8927C17.7306 16.794 17.723 16.6953 17.7003 16.5815V15.0441C17.7003 14.35 17.7021 13.6579 17.704 12.9663L17.7041 12.9626V12.9588C17.7078 11.5764 17.7116 10.1965 17.7003 8.80904C17.7003 8.55281 17.7856 8.3649 17.9392 8.15991C18.3488 7.66453 18.9121 7.64744 19.4582 7.6987C20.2263 7.76702 20.67 8.22824 20.7895 8.97987C20.8407 9.30442 20.8748 9.62899 20.8748 9.95354V18.6484H25.2441V17.948C25.2441 17.726 25.2612 17.5039 25.2783 17.2818C25.0479 17.2391 24.8302 17.1964 24.6126 17.1537C24.395 17.111 24.1774 17.0683 23.947 17.0256V9.04819C23.947 8.70654 23.9299 8.34782 23.8617 8.02325C23.6057 6.74208 22.8717 5.85381 21.5746 5.54633C20.0897 5.1876 18.7243 5.478 17.5467 6.48585C17.4891 6.53519 17.4316 6.5885 17.376 6.64003L17.3758 6.64025C17.316 6.69569 17.2583 6.74909 17.2053 6.79333C17.1837 6.71601 17.1626 6.63981 17.1419 6.56443C17.1187 6.48009 17.096 6.39677 17.0734 6.31406L17.0731 6.313C17.0046 6.06164 16.9375 5.81576 16.8639 5.56342C15.5839 5.75132 14.3721 5.92214 13.1603 6.09296V7.47662C13.6382 7.52787 14.1161 7.57912 14.5769 7.63036C14.6793 8.10866 14.6452 16.7352 14.5598 17.0427L14.5595 17.0427C14.167 17.1281 13.7746 17.2135 13.3651 17.2989C13.3561 17.5505 13.3424 17.7878 13.329 18.0209C13.3168 18.2311 13.3049 18.4378 13.2968 18.6484H18.9462C18.9633 18.4178 18.9761 18.1956 18.9889 17.9735L18.9889 17.9733L18.9891 17.9707C19.0018 17.7496 19.0145 17.5285 19.0315 17.2989C18.8897 17.2705 18.7497 17.2421 18.6098 17.2138L18.6086 17.2135Z" fill="#A1A6BA"/>
<path d="M114.593 7.30577C114.342 7.27883 114.095 7.25662 113.846 7.23416L113.846 7.2341C113.621 7.21385 113.394 7.19339 113.159 7.16911V5.95626C113.787 5.88732 114.415 5.81494 115.045 5.74219L115.047 5.74204L115.05 5.74172L115.053 5.74132L115.062 5.74025C115.832 5.65145 116.607 5.56213 117.392 5.47796C117.416 5.55171 117.44 5.62446 117.464 5.69654C117.611 6.14206 117.751 6.56194 117.751 7.03244C117.739 9.14915 117.743 11.2659 117.747 13.3775V13.3858C117.749 14.4411 117.751 15.4951 117.751 16.5473V17.0597C118.211 17.1451 118.621 17.2306 119.065 17.333C119.039 17.5637 119.018 17.7857 118.996 18.0078C118.975 18.2299 118.954 18.4519 118.928 18.6825H115.293C115.242 18.5204 115.186 18.354 115.129 18.1812L115.129 18.1807C115.071 18.0077 115.011 17.8284 114.951 17.6405C114.832 17.7259 114.747 17.7943 114.661 17.8626C113.176 19.2121 111.179 19.0754 109.916 18.4605C108.927 17.9822 108.397 17.1622 108.227 16.1031C108.159 15.7615 108.141 15.4027 108.141 15.044V7.33993C107.812 7.30579 107.497 7.27165 107.183 7.23752C107.025 7.22041 106.867 7.2033 106.708 7.18619V5.97335C107.724 5.86036 108.74 5.73815 109.776 5.61348C110.15 5.56852 110.526 5.52324 110.906 5.47796C110.943 5.62501 110.988 5.76714 111.032 5.90795L111.033 5.90836L111.033 5.91098C111.133 6.22722 111.231 6.53668 111.231 6.87871V14.3949C111.231 14.7365 111.248 15.0782 111.299 15.4198C111.418 16.3423 112.016 16.8889 112.937 16.906C113.262 16.906 113.586 16.8547 113.91 16.7693C114.252 16.6839 114.695 16.086 114.695 15.7444V7.4595C114.644 7.40825 114.627 7.37409 114.593 7.30577Z" fill="#A1A6BA"/>
<path fill-rule="evenodd" clip-rule="evenodd" d="M46.0836 15.7957C45.5204 14.9586 45.3497 14.0191 45.3497 12.96C47.5173 12.9258 49.6166 12.9088 51.7671 12.8917C51.7991 12.7903 51.8395 12.6889 51.8798 12.5874C51.9685 12.3643 52.0573 12.1411 52.0573 11.918C52.0573 10.9443 51.9549 9.97062 51.6818 9.01402C51.4087 8.0745 51.0162 7.22039 50.3164 6.5371C49.1217 5.39258 47.688 5.20467 46.1519 5.52924C44.5305 5.87088 43.4723 6.87874 42.7896 8.34781C42.3629 9.25317 42.1581 10.1927 42.0727 11.1835C41.9362 12.7892 42.0898 14.3608 42.7896 15.8469C43.4211 17.1964 44.3769 18.2043 45.8447 18.6313C47.6026 19.1438 49.2582 18.8534 50.8284 17.9993C50.9926 17.9226 51.1357 17.8178 51.2803 17.7119C51.3612 17.6527 51.4425 17.5932 51.5282 17.5381C51.3405 17.111 51.1698 16.7181 50.9991 16.3252L50.9986 16.3253L50.9972 16.3258C50.8446 16.3768 50.7427 16.4108 50.6407 16.4619C49.8556 16.7864 49.0534 16.9573 48.2 16.9402C47.2954 16.9231 46.5957 16.5302 46.0836 15.7957ZM49.2052 10.8128C49.2159 10.9564 49.2271 11.1068 49.2411 11.2689C47.9099 11.3372 46.6298 11.3884 45.3497 11.4397C45.3464 11.4198 45.3424 11.4012 45.3382 11.3834C45.3356 11.3724 45.3329 11.3617 45.3301 11.3513C45.3281 11.3436 45.326 11.3361 45.324 11.3287C45.3106 11.2792 45.2985 11.2343 45.2985 11.1835C45.3497 10.056 45.5545 8.96277 45.9812 7.90368C46.1178 7.59619 46.3226 7.40829 46.6469 7.3058C47.4661 7.04956 48.0976 7.27163 48.5243 8.02324C48.9169 8.70653 49.0705 9.45816 49.1558 10.2269C49.1758 10.4175 49.19 10.6081 49.2052 10.8126V10.8128Z" fill="#A1A6BA"/>
<path fill-rule="evenodd" clip-rule="evenodd" d="M102.963 12.9166L102.96 12.9166C101.875 12.9296 100.797 12.9426 99.7101 12.96C99.6589 13.4212 99.7271 13.8483 99.8125 14.2754C99.932 14.9245 100.171 15.5224 100.615 16.0348C101.11 16.6156 101.724 16.906 102.475 16.9231C103.294 16.9573 104.079 16.8035 104.847 16.496C105.001 16.4277 105.155 16.3765 105.359 16.3081L105.36 16.3102L105.361 16.3111C105.531 16.703 105.701 17.095 105.889 17.5381C105.876 17.5478 105.863 17.5569 105.85 17.5657C105.839 17.5731 105.828 17.5802 105.816 17.5873C105.806 17.5937 105.796 17.6001 105.786 17.6064C105.768 17.6176 105.75 17.6289 105.732 17.6407C105.716 17.6514 105.7 17.6626 105.684 17.6747C104.318 18.6313 102.782 19.0071 101.161 18.8192C99.1468 18.5972 97.7985 17.4185 97.0646 15.5736C96.1259 13.1992 96.16 10.7906 97.1329 8.41614C97.7644 6.89582 98.8567 5.85381 100.512 5.49507C101.809 5.22176 103.055 5.30717 104.182 6.07587C104.984 6.62251 105.479 7.42536 105.82 8.31364C106.264 9.45816 106.435 10.6539 106.401 11.8667C106.388 12.1106 106.307 12.3458 106.224 12.5847L106.223 12.5855C106.209 12.6255 106.196 12.6655 106.182 12.7056C106.174 12.7283 106.167 12.7511 106.159 12.7739C106.154 12.79 106.149 12.8062 106.144 12.8223C106.138 12.8397 106.133 12.8571 106.128 12.8746C105.057 12.8913 104.007 12.904 102.963 12.9166ZM103.567 11.2689C103.533 10.3806 103.431 9.54357 103.175 8.7407C103.038 8.33073 102.851 7.972 102.577 7.63035C102.065 6.98123 100.512 7.10081 100.273 8.00616C100.218 8.21749 100.157 8.42882 100.095 8.64102C99.9481 9.14925 99.7994 9.66247 99.7271 10.1927C99.7185 10.2618 99.7089 10.3304 99.6993 10.399C99.652 10.7371 99.605 11.0733 99.6759 11.4568C100.359 11.4208 101.033 11.3895 101.713 11.358C102.323 11.3297 102.938 11.3012 103.567 11.2689Z" fill="#A1A6BA"/>
<path fill-rule="evenodd" clip-rule="evenodd" d="M80.1088 12.9169C81.1626 12.9043 82.2205 12.8915 83.291 12.8747C83.322 12.7764 83.3609 12.6765 83.4 12.576C83.4899 12.3448 83.5812 12.1101 83.5812 11.8839C83.5812 10.5857 83.4105 9.32157 82.8985 8.12582C82.5059 7.20337 81.9427 6.41759 81.0381 5.9222C79.6727 5.17059 78.239 5.23891 76.8395 5.78555C75.6447 6.26385 74.8596 7.18629 74.3305 8.3308C73.8697 9.30449 73.6649 10.3465 73.5966 11.4227C73.4771 13.0113 73.682 14.5658 74.4159 16.0178C75.1327 17.4356 76.2421 18.4264 77.8294 18.7339C79.5191 19.0755 81.1405 18.751 82.6083 17.8285C82.6851 17.7773 82.7576 17.7218 82.8301 17.6663L82.8303 17.6661C82.9028 17.6106 82.9753 17.5552 83.0521 17.504C82.9396 17.2481 82.8332 17.0045 82.7293 16.7658C82.6598 16.6061 82.5914 16.4486 82.523 16.2911C82.4202 16.3379 82.3275 16.3745 82.2396 16.4092L82.2392 16.4093C82.1667 16.4379 82.0974 16.4653 82.028 16.4961C81.2429 16.8207 80.4407 16.9573 79.6044 16.9232C78.8705 16.9061 78.2561 16.5986 77.7952 16.0349C77.0613 15.1637 76.8907 14.1217 76.8736 12.9601C77.9534 12.9428 79.0289 12.9299 80.1088 12.9169ZM80.722 10.9184C80.73 11.0319 80.7383 11.1484 80.7479 11.269C80.0468 11.3049 79.3599 11.3362 78.6673 11.3677L78.6636 11.3678C78.0423 11.3961 77.4162 11.4246 76.7712 11.4569C76.7849 11.2992 76.7958 11.1552 76.8062 11.0184L76.8063 11.0173C76.8218 10.8137 76.8361 10.6258 76.8565 10.4319C76.976 9.52656 77.1637 8.63828 77.5392 7.80125C77.6416 7.57918 77.7953 7.44253 78.0171 7.35711C78.8876 7.01547 79.5873 7.23754 80.0482 8.05748C80.4066 8.68953 80.5602 9.38991 80.6455 10.0903C80.6823 10.36 80.7015 10.6297 80.722 10.9184Z" fill="#A1A6BA"/>
<path d="M36.9013 5.56351C36.9525 5.76003 36.9995 5.95228 37.0464 6.14453C37.0934 6.33663 37.1403 6.52873 37.1915 6.7251C37.2683 6.68239 37.3451 6.63541 37.4219 6.58844L37.4221 6.58832C37.4988 6.54139 37.5756 6.49445 37.6523 6.45179C38.5569 5.92224 39.5297 5.68309 40.5709 5.56351C41.0658 5.51227 41.4242 5.66601 41.7144 6.09307C41.6225 6.96055 41.5204 7.84827 41.4161 8.75621L41.4159 8.75765C41.3847 9.02923 41.3533 9.30263 41.3218 9.57784C40.9644 9.56079 40.6197 9.54801 40.275 9.53523L40.2693 9.53504H40.2687C39.9242 9.52226 39.5798 9.50947 39.2225 9.49243C39.1372 8.86038 39.0689 8.24542 39.0006 7.63047C38.4886 7.66462 38.0619 7.81837 37.6694 8.09168V17.0599C37.9651 17.1309 38.2526 17.1937 38.5547 17.2597C38.6885 17.289 38.8251 17.3188 38.9665 17.3503C38.9582 17.5666 38.9458 17.7748 38.9334 17.9848C38.9202 18.2059 38.907 18.429 38.8982 18.6656H33.3171V17.3673C33.7097 17.2649 34.1022 17.1623 34.4777 17.0769V7.66462C34.3294 7.64813 34.1846 7.63164 34.041 7.61514C33.9616 7.60601 33.8826 7.59689 33.8036 7.58776C33.6437 7.5693 33.4839 7.55083 33.3208 7.53238L33.1294 7.51089V6.12722C34.0997 5.96537 35.0807 5.82481 36.0891 5.68032L36.1037 5.67823C36.3676 5.64042 36.6334 5.60233 36.9013 5.56351Z" fill="#A1A6BA"/>
<path d="M119.901 17.3502C119.867 17.7772 119.85 18.2043 119.833 18.6655C121.727 18.6655 123.571 18.6655 125.482 18.6143C125.499 18.3921 125.512 18.1741 125.525 17.9562C125.538 17.7385 125.55 17.5209 125.567 17.2989C125.396 17.2608 125.229 17.2227 125.066 17.1854C124.791 17.1225 124.528 17.0622 124.27 17.0085V7.97203C124.697 7.81828 125.124 7.66455 125.585 7.51081C125.616 7.76392 125.645 8.00766 125.674 8.24636L125.674 8.24813C125.723 8.65318 125.77 9.04376 125.824 9.4411C126.173 9.45818 126.519 9.47099 126.865 9.48379C127.21 9.49661 127.556 9.50942 127.906 9.52651C127.941 9.21644 127.977 8.90868 128.012 8.6035C128.112 7.73179 128.21 6.88124 128.298 6.05882C127.991 5.59759 127.599 5.44386 127.104 5.54635C126.936 5.58094 126.768 5.61124 126.601 5.64139L126.6 5.64149C126.19 5.71552 125.785 5.78866 125.397 5.92216C125.022 6.04737 124.661 6.22567 124.306 6.40147L124.306 6.40172C124.128 6.48967 123.952 6.57699 123.775 6.65669C123.733 6.49692 123.691 6.32474 123.647 6.14422C123.602 5.958 123.554 5.76292 123.502 5.56343C122.239 5.75134 120.993 5.92216 119.696 6.09298V7.47664C120.114 7.53428 120.495 7.57977 120.86 7.62335C120.928 7.63143 120.995 7.63944 121.062 7.64746V17.0598C120.923 17.0945 120.79 17.1273 120.659 17.1595C120.405 17.2222 120.16 17.2824 119.901 17.3502Z" fill="#A1A6BA"/>
<path d="M69.6801 7.84705L69.6782 7.84774C69.4998 7.91355 69.328 7.97695 69.1591 8.04035V17.0598C69.3795 17.1107 69.5956 17.1574 69.8118 17.204L69.8206 17.2059C70.0368 17.2526 70.2529 17.2993 70.4733 17.3502C70.4644 17.4653 70.4556 17.5793 70.4467 17.6928C70.4354 17.8377 70.4241 17.9818 70.4128 18.1262C70.3988 18.3047 70.3849 18.4837 70.3709 18.6655H64.7898V17.3673L65.9674 17.0598V7.64746C65.8328 7.63249 65.6997 7.61752 65.5671 7.60256C65.4728 7.5919 65.3788 7.58125 65.2847 7.57059L65.2704 7.56896C65.049 7.54389 64.8276 7.5188 64.602 7.49372V6.11006C65.848 5.93924 67.0768 5.76842 68.391 5.5805C68.4422 5.76835 68.4977 5.9562 68.5531 6.14405C68.6086 6.33201 68.6641 6.51998 68.7153 6.70794C68.8666 6.63223 69.0123 6.55376 69.157 6.47585L69.1573 6.47573C69.3716 6.36032 69.5835 6.24618 69.8077 6.14423C70.4904 5.81966 71.2413 5.70008 71.9923 5.5805C72.4873 5.51218 72.8798 5.63176 73.2041 6.09297C73.1645 6.4608 73.1231 6.83425 73.081 7.21332L73.0802 7.22057L73.0801 7.22135C72.9954 7.98405 72.9082 8.76953 72.8286 9.57775C72.4847 9.56936 72.145 9.55684 71.8033 9.54426C71.4496 9.53122 71.0939 9.51812 70.7293 9.50942C70.674 9.07727 70.6258 8.67387 70.5755 8.25259C70.5482 8.02445 70.5203 7.79098 70.4904 7.54496C70.2002 7.6551 69.9336 7.75349 69.6801 7.84705Z" fill="#A1A6BA"/>
<path d="M29.75 5.7342V3.08645C29.3107 3.10689 28.8899 3.12734 28.469 3.14779C28.1867 3.16151 27.9043 3.17523 27.6165 3.18894C27.4761 3.68067 27.3299 4.1724 27.1846 4.66068C27.0826 5.00354 26.9812 5.34471 26.8826 5.68295C26.6074 5.69915 26.3438 5.71151 26.0844 5.72367C25.7967 5.73716 25.5142 5.7504 25.227 5.76836C25.218 6.07745 25.204 6.36719 25.1904 6.65045C25.1785 6.89945 25.1668 7.14344 25.1588 7.39118C25.381 7.42824 25.5936 7.4621 25.8035 7.49552C26.0772 7.53911 26.3464 7.58198 26.6266 7.63032C26.6437 7.78407 26.6607 7.93781 26.6607 8.09154V15.7786C26.6607 16.0348 26.6607 16.291 26.6949 16.5473C26.8314 17.7772 27.6336 18.5971 28.8454 18.8021C29.6476 18.9388 30.4327 18.8875 31.2178 18.7338C31.5762 18.6654 31.9346 18.5971 32.276 18.3751C32.2477 18.1299 32.2246 17.8847 32.201 17.6337C32.1819 17.4301 32.1624 17.2227 32.1394 17.0085C31.9761 17.0085 31.8188 17.0105 31.6655 17.0124C31.37 17.0162 31.0891 17.0197 30.8082 17.0085C30.2791 16.9914 29.9036 16.6498 29.8353 16.1202C29.8182 15.9494 29.8182 15.7786 29.8182 15.6077C29.8012 13.0625 29.8012 10.5172 29.8012 7.97197C29.8012 7.86583 29.8146 7.77314 29.8296 7.67001L29.8353 7.63032C30.2123 7.58431 30.5794 7.54325 30.9499 7.50182C31.2671 7.46634 31.5869 7.43058 31.9175 7.39118C31.9304 7.25428 31.9432 7.11845 31.956 6.98262C31.9944 6.57609 32.0328 6.16954 32.0712 5.7342H29.75Z" fill="#A1A6BA"/>
</g>
</svg>
