<svg width="103" height="18" viewBox="0 0 103 18" fill="none" xmlns="http://www.w3.org/2000/svg">
<g id="Mashable">
<path d="M15.29 5.97347V17.6437H19.757V-0.00537109H13.5762L9.98008 9.739L6.35587 -0.00537109H0.175049V17.6437H4.614V5.97347L8.99676 17.6437H10.9634L15.29 5.97347Z" fill="#A1A6BA"/>
<path fill-rule="evenodd" clip-rule="evenodd" d="M28.5787 16.3791V17.6726H32.5962V9.68162C32.5962 5.71489 29.7868 4.56511 26.7807 4.56511C24.8702 4.56511 22.7069 5.14 21.1055 6.54848L22.5665 9.36544C23.5779 8.47435 24.814 7.98571 26.0502 7.98571C27.6516 7.98571 28.5787 8.73305 28.5787 9.85409V11.1188C27.8202 10.1703 26.3592 9.62412 24.7016 9.62412C22.7912 9.62412 20.4032 10.6589 20.4032 13.7633C20.4032 16.609 22.7912 17.96 24.7016 17.96C26.303 17.96 27.7921 17.3277 28.5787 16.3791ZM28.5787 13.2172V14.367C28.1854 14.9706 27.2302 15.2868 26.3592 15.2868C25.3197 15.2868 24.3645 14.8269 24.3645 13.8208C24.3645 12.8148 25.3197 12.3261 26.3592 12.3261C27.2302 12.3261 28.1573 12.6136 28.5787 13.2172Z" fill="#A1A6BA"/>
<path d="M32.849 15.9765L34.5066 13.0734C35.4337 13.9069 37.4285 14.798 38.8894 14.798C40.0694 14.798 40.5751 14.4531 40.5751 13.9069C40.5751 13.3442 39.6565 13.1894 38.4733 12.9899C36.3329 12.6292 33.3266 12.1225 33.3266 8.79042C33.3266 6.54836 35.2371 4.59374 38.6646 4.59374C40.7998 4.59374 42.5417 5.28361 43.8902 6.28967L42.3731 9.16412C41.6146 8.41675 40.2098 7.75563 38.6927 7.75563C37.7656 7.75563 37.1475 8.1293 37.1475 8.61796C37.1475 9.09913 37.9934 9.24484 39.1073 9.4367C41.254 9.80646 44.3959 10.3476 44.3959 13.792C44.3959 16.2352 42.3169 17.9599 38.7489 17.9599C36.4732 17.9599 34.1695 17.1838 32.849 15.9765Z" fill="#A1A6BA"/>
<path d="M53.3582 10.1989V17.6437H57.3195V8.56047C57.3195 6.20342 56.0272 4.565 53.1896 4.565C51.0825 4.565 49.6216 5.5423 48.8631 6.43339V-0.00537109H44.8736V17.615H48.8631V9.36531C49.3407 8.79042 50.1273 8.1293 51.2792 8.1293C52.5434 8.1293 53.3582 8.6467 53.3582 10.1989Z" fill="#A1A6BA"/>
<path fill-rule="evenodd" clip-rule="evenodd" d="M66.0569 16.3791C65.2702 17.3277 63.7812 17.96 62.1798 17.96C60.2694 17.96 57.8814 16.609 57.8814 13.7633C57.8814 10.6589 60.2694 9.62412 62.1798 9.62412C63.8374 9.62412 65.2984 10.1703 66.0569 11.1188V9.85409C66.0569 8.73305 65.1298 7.98571 63.5284 7.98571C62.2922 7.98571 61.0561 8.47435 60.0447 9.36544L58.5837 6.54848C60.1851 5.14 62.3484 4.56511 64.2589 4.56511C67.265 4.56511 70.0744 5.71489 70.0744 9.68162V17.6726H66.0569V16.3791ZM66.0569 14.367V13.2172C65.6355 12.6136 64.7084 12.3261 63.8374 12.3261C62.7979 12.3261 61.8427 12.8148 61.8427 13.8208C61.8427 14.8269 62.7979 15.2868 63.8374 15.2868C64.7365 15.2868 65.6636 14.9706 66.0569 14.367Z" fill="#A1A6BA"/>
<path fill-rule="evenodd" clip-rule="evenodd" d="M71.423 -0.00537109V17.6437H75.4125V16.1778C76.452 17.4138 77.7162 17.9886 79.121 17.9886C82.2114 17.9886 84.6275 15.6029 84.6275 11.2625C84.6275 7.06576 82.2395 4.565 79.121 4.565C77.7443 4.565 76.3958 5.11114 75.4125 6.3759V-0.00537109H71.423ZM80.5257 11.2625C80.5257 13.1883 79.3457 14.3669 77.7724 14.3669C76.9296 14.3669 75.8901 13.9069 75.3844 13.2171V9.33658C75.8901 8.6467 76.9296 8.15806 77.7724 8.15806C79.3457 8.15806 80.5257 9.36531 80.5257 11.2625Z" fill="#A1A6BA"/>
<path d="M89.1507 -0.00537109H85.1613V17.6437H89.1507V-0.00537109Z" fill="#A1A6BA"/>
<path fill-rule="evenodd" clip-rule="evenodd" d="M96.343 4.5362C92.4378 4.5362 89.7127 7.52563 89.7127 11.2336C89.7127 15.4016 92.6626 17.9598 96.5396 17.9598C98.4501 17.9598 100.529 17.4137 101.765 16.2639L100.023 13.5907C99.2929 14.2806 97.832 14.683 96.9611 14.683C95.163 14.683 94.1235 13.7344 93.8426 12.5846H102.72V11.6648C102.72 7.32441 100.051 4.5362 96.343 4.5362ZM93.7864 9.79643C93.9268 8.8766 94.6011 7.81307 96.343 7.81307C98.1691 7.81307 98.8153 8.90536 98.9277 9.79643H93.7864Z" fill="#A1A6BA"/>
</g>
</svg>
